<?xml version="1.0" encoding="UTF-8" standalone="no"?>
<!DOCTYPE svg PUBLIC "-//W3C//DTD SVG 1.1//EN" "http://www.w3.org/Graphics/SVG/1.1/DTD/svg11.dtd">
<svg xmlns="http://www.w3.org/2000/svg" version="1.1" viewBox="0.00 0.00 720.00 720.00">
<path fill="none" stroke-width="1.00" stroke="#000000" d="
  M 0.00 0.00
  L 404.13 0.00
  L 398.44 1.48
  L 387.05 6.79
  L 376.70 13.47
  L 366.19 21.32
  L 356.13 29.78
  L 348.33 38.80
  L 339.08 51.22
  L 332.60 59.34
  L 329.77 64.24
  L 329.77 64.24
  L 328.94 67.58
  L 328.79 71.18
  L 329.30 71.55
  L 329.37 71.52
  L 329.45 71.48
  L 330.06 70.85
  L 331.19 68.88
  L 337.51 59.13
  L 345.33 49.15
  L 356.46 35.32
  L 363.65 28.43
  L 373.86 20.69
  L 379.44 16.61
  L 389.89 9.93
  L 405.32 2.34
  L 407.23 1.46
  L 407.32 0.79
  L 407.17 0.71
  L 404.50 0.00
  L 688.38 0.00
  L 686.90 1.33
  L 687.70 2.66
  L 690.53 5.75
  L 698.06 18.49
  L 698.03 19.20
  L 697.37 19.47
  L 697.37 19.47
  L 696.98 19.25
  L 695.89 18.02
  L 693.01 14.31
  L 688.45 6.56
  L 685.14 2.11
  L 682.33 0.39
  L 679.45 0.50
  L 679.10 1.45
  L 679.23 1.59
  L 684.37 7.14
  L 689.59 16.11
  L 689.81 16.53
  L 693.38 21.33
  L 697.08 26.28
  L 703.70 37.49
  L 711.87 51.71
  L 718.79 65.64
  L 719.25 65.69
  L 719.30 65.58
  L 720.00 62.54
  L 720.00 599.70
  L 712.24 568.76
  L 709.91 558.83
  L 702.91 527.48
  L 701.11 516.18
  L 699.31 499.98
  L 698.41 491.23
  L 698.37 490.87
  L 698.47 488.03
  L 699.53 486.57
  L 699.38 485.58
  L 699.15 485.52
  L 695.96 485.38
  L 695.81 485.39
  L 695.40 486.26
  L 696.50 489.35
  L 696.52 490.26
  L 696.28 504.53
  L 697.20 519.20
  L 699.34 534.61
  L 702.70 550.87
  L 706.56 567.20
  L 707.77 572.72
  L 713.02 594.18
  L 718.88 609.87
  L 719.12 610.17
  L 719.27 609.82
  L 720.00 604.99
  L 720.00 691.62
  L 701.77 681.84
  L 690.81 675.84
  L 681.64 672.09
  L 671.30 669.55
  L 663.63 667.51
  L 651.74 663.57
  L 644.19 661.76
  L 635.90 658.26
  L 635.55 657.96
  L 635.38 657.50
  L 635.23 655.56
  L 634.79 651.78
  L 633.72 649.13
  L 632.81 647.96
  L 626.31 641.97
  L 623.25 640.13
  L 620.62 639.23
  L 615.74 637.97
  L 611.79 636.55
  L 606.52 635.25
  L 597.80 634.19
  L 596.71 633.82
  L 595.88 633.16
  L 586.71 621.74
  L 583.93 618.38
  L 580.88 615.84
  L 577.86 614.50
  L 575.37 614.50
  L 573.44 615.45
  L 571.07 618.38
  L 569.29 620.79
  L 568.88 621.03
  L 568.44 620.90
  L 559.09 615.37
  L 552.41 612.06
  L 547.09 609.17
  L 541.74 605.33
  L 529.39 593.53
  L 524.46 587.71
  L 518.54 579.40
  L 516.32 576.19
  L 513.03 572.19
  L 510.44 569.08
  L 508.90 566.36
  L 507.85 561.90
  L 507.02 549.90
  L 506.96 540.31
  L 507.65 531.89
  L 509.14 524.13
  L 512.12 515.41
  L 513.60 510.58
  L 514.87 501.98
  L 516.05 497.08
  L 519.29 490.26
  L 520.98 486.94
  L 521.12 486.35
  L 520.49 485.07
  L 519.07 484.90
  L 516.80 486.25
  L 514.37 488.77
  L 509.95 496.38
  L 508.97 499.41
  L 508.38 503.62
  L 508.06 506.33
  L 505.94 513.50
  L 503.18 521.31
  L 500.95 531.10
  L 500.38 532.99
  L 498.72 535.30
  L 495.71 537.63
  L 493.06 539.62
  L 487.53 543.91
  L 477.59 550.82
  L 469.64 555.38
  L 460.25 558.62
  L 453.98 559.71
  L 446.64 560.04
  L 433.66 559.27
  L 416.81 556.82
  L 411.15 555.90
  L 401.49 553.63
  L 395.14 551.97
  L 383.30 548.30
  L 379.66 546.73
  L 371.03 542.69
  L 365.15 538.56
  L 359.72 534.75
  L 349.29 529.09
  L 342.71 524.80
  L 334.18 516.72
  L 323.33 503.41
  L 321.79 501.41
  L 319.45 498.58
  L 315.14 493.25
  L 312.49 489.02
  L 311.52 488.37
  L 310.47 488.89
  L 310.27 489.45
  L 310.30 491.29
  L 310.30 491.29
  L 310.93 493.71
  L 312.24 496.05
  L 324.20 512.19
  L 327.51 516.46
  L 334.22 524.04
  L 341.23 530.03
  L 353.71 537.58
  L 360.91 542.13
  L 366.22 545.86
  L 373.81 550.02
  L 384.25 554.52
  L 393.64 557.14
  L 401.02 559.03
  L 407.82 560.76
  L 417.07 562.26
  L 423.57 563.25
  L 434.50 564.66
  L 444.93 565.12
  L 455.15 564.63
  L 464.48 563.21
  L 470.17 560.92
  L 473.89 559.00
  L 479.37 556.08
  L 483.47 553.28
  L 488.05 550.38
  L 492.57 547.31
  L 497.62 542.12
  L 499.69 539.85
  L 500.48 540.01
  L 500.51 540.22
  L 500.22 546.30
  L 500.85 551.22
  L 500.99 551.76
  L 505.07 568.20
  L 506.38 570.70
  L 510.73 576.23
  L 515.92 584.28
  L 520.17 590.86
  L 527.31 599.75
  L 534.85 607.33
  L 542.51 613.33
  L 550.37 617.87
  L 557.54 621.56
  L 568.13 628.05
  L 568.81 628.99
  L 568.74 630.15
  L 567.69 633.75
  L 567.69 635.01
  L 567.98 638.40
  L 568.54 651.69
  L 568.22 666.49
  L 567.72 667.08
  L 561.22 667.97
  L 556.50 668.09
  L 553.66 668.84
  L 553.66 668.84
  L 552.90 670.02
  L 552.62 671.74
  L 552.59 704.25
  L 553.55 712.30
  L 555.52 718.72
  L 555.82 719.14
  L 556.26 719.37
  L 558.64 720.00
  L 395.65 720.00
  L 402.54 718.78
  L 411.05 713.92
  L 419.72 707.99
  L 420.56 707.34
  L 420.56 707.34
  L 423.64 704.42
  L 426.30 700.98
  L 426.47 700.55
  L 426.11 699.57
  L 425.10 699.34
  L 422.09 700.42
  L 414.67 705.14
  L 404.44 711.80
  L 399.48 713.95
  L 394.78 715.26
  L 384.05 717.82
  L 382.91 718.48
  L 383.98 719.24
  L 388.88 720.00
  L 143.28 720.00
  L 146.46 719.10
  L 149.30 717.68
  L 149.30 717.68
  L 149.30 717.68
  L 151.94 715.61
  L 154.22 712.96
  L 156.38 709.25
  L 157.91 705.18
  L 158.95 700.42
  L 159.42 695.41
  L 158.88 683.56
  L 156.09 667.11
  L 156.08 667.04
  L 154.64 662.49
  L 152.51 659.70
  L 148.91 657.97
  L 142.69 657.15
  L 142.22 657.11
  L 141.67 656.45
  L 141.67 656.44
  L 141.89 653.94
  L 142.69 647.86
  L 143.85 642.82
  L 149.73 611.89
  L 149.88 611.45
  L 150.21 611.07
  L 155.84 607.85
  L 170.07 602.82
  L 178.75 599.00
  L 185.58 595.89
  L 194.16 592.13
  L 210.63 585.50
  L 219.88 582.22
  L 230.88 578.43
  L 235.89 576.07
  L 244.37 569.35
  L 253.13 560.88
  L 262.03 550.56
  L 265.65 546.18
  L 273.89 535.96
  L 279.35 527.99
  L 282.90 523.16
  L 288.10 516.89
  L 291.20 511.24
  L 292.69 505.96
  L 294.98 500.10
  L 300.31 492.43
  L 303.14 488.60
  L 304.22 486.65
  L 306.03 483.68
  L 306.88 483.16
  L 308.94 482.14
  L 310.23 480.26
  L 312.00 475.88
  L 317.06 464.48
  L 319.15 459.36
  L 320.34 454.89
  L 326.49 426.00
  L 327.41 420.56
  L 327.73 414.30
  L 328.52 407.80
  L 329.30 401.87
  L 328.77 397.50
  L 328.84 395.91
  L 329.89 394.72
  L 331.43 393.86
  L 331.43 393.09
  L 331.18 393.04
  L 328.67 393.30
  L 328.59 393.30
  L 328.06 392.64
  L 339.16 331.27
  L 339.30 331.00
  L 339.51 331.22
  L 346.47 344.05
  L 346.64 345.12
  L 345.69 355.17
  L 346.15 361.92
  L 347.51 369.10
  L 350.28 379.99
  L 352.88 389.10
  L 356.27 398.71
  L 362.02 412.06
  L 364.60 417.88
  L 365.58 419.97
  L 368.88 425.50
  L 373.67 431.75
  L 381.33 441.55
  L 385.00 446.45
  L 391.02 454.75
  L 394.86 461.54
  L 399.34 470.16
  L 402.35 475.13
  L 406.17 480.35
  L 411.19 486.01
  L 424.91 500.41
  L 426.13 500.31
  L 426.21 500.16
  L 427.23 498.96
  L 428.05 498.91
  L 429.71 499.95
  L 432.40 501.96
  L 436.81 504.01
  L 442.94 505.54
  L 445.71 506.14
  L 446.33 506.75
  L 447.44 508.47
  L 448.91 508.53
  L 450.57 507.70
  L 457.19 503.91
  L 461.52 502.12
  L 470.65 498.74
  L 473.90 497.30
  L 487.68 491.61
  L 498.18 488.81
  L 505.03 486.65
  L 510.43 484.80
  L 518.39 482.47
  L 524.90 479.93
  L 543.65 471.95
  L 556.77 466.37
  L 571.63 458.04
  L 572.06 457.84
  L 572.55 457.79
  L 575.22 457.04
  L 576.23 454.30
  L 576.28 454.03
  L 576.83 453.54
  L 577.55 453.71
  L 577.88 453.99
  L 579.93 455.51
  L 581.70 455.90
  L 583.34 455.14
  L 583.71 454.37
  L 583.82 449.31
  L 584.00 448.68
  L 584.51 448.25
  L 589.31 444.77
  L 589.31 444.77
  L 591.33 441.94
  L 592.74 438.55
  L 592.41 437.32
  L 591.17 437.07
  L 591.17 437.07
  L 590.57 437.55
  L 588.42 440.45
  L 584.33 444.41
  L 583.33 444.62
  L 582.57 443.94
  L 582.57 443.94
  L 582.50 443.61
  L 582.48 443.17
  L 582.35 442.06
  L 582.20 441.57
  L 574.01 422.99
  L 572.61 419.24
  L 571.67 414.86
  L 570.98 414.23
  L 569.38 414.60
  L 568.43 416.07
  L 568.38 416.85
  L 569.25 428.41
  L 567.87 438.99
  L 565.49 443.66
  L 565.49 444.58
  L 566.00 445.68
  L 565.95 449.74
  L 565.95 453.31
  L 567.89 455.25
  L 568.17 455.57
  L 567.90 455.91
  L 552.24 464.57
  L 539.93 469.60
  L 530.83 473.42
  L 521.59 477.15
  L 510.26 480.06
  L 502.47 482.14
  L 500.57 482.86
  L 495.19 484.75
  L 491.13 485.57
  L 485.15 486.54
  L 481.98 487.74
  L 469.25 492.63
  L 458.94 496.52
  L 446.54 502.45
  L 446.03 502.59
  L 445.60 502.54
  L 443.52 501.91
  L 436.50 499.65
  L 431.53 497.42
  L 427.48 494.64
  L 424.57 491.42
  L 413.58 476.01
  L 408.12 468.64
  L 405.16 465.37
  L 401.98 461.74
  L 387.03 440.61
  L 381.68 433.33
  L 377.18 427.80
  L 372.65 422.22
  L 369.83 417.46
  L 361.78 399.23
  L 358.06 389.27
  L 353.94 375.09
  L 352.47 369.75
  L 352.44 369.28
  L 352.60 368.85
  L 354.51 366.42
  L 356.78 364.56
  L 356.78 364.56
  L 359.67 363.16
  L 362.99 362.44
  L 363.62 362.46
  L 364.89 363.12
  L 374.18 372.49
  L 382.19 382.52
  L 385.46 389.03
  L 386.51 396.14
  L 385.06 400.86
  L 384.82 401.36
  L 384.74 401.54
  L 384.84 403.42
  L 386.30 404.63
  L 386.94 404.74
  L 388.60 404.43
  L 390.53 403.23
  L 391.46 402.59
  L 396.61 398.49
  L 399.12 395.13
  L 401.27 390.93
  L 402.53 388.19
  L 405.34 381.59
  L 406.34 376.88
  L 406.43 364.54
  L 405.59 353.71
  L 403.79 344.13
  L 400.95 335.34
  L 396.50 326.35
  L 389.29 315.19
  L 382.12 304.11
  L 377.68 295.20
  L 373.05 279.09
  L 367.65 259.87
  L 366.97 259.29
  L 366.15 259.67
  L 366.02 260.21
  L 368.35 277.94
  L 371.40 291.38
  L 375.77 303.15
  L 381.67 313.59
  L 384.24 317.32
  L 391.59 328.56
  L 395.81 337.39
  L 398.14 344.84
  L 399.77 352.41
  L 399.77 352.41
  L 400.84 362.98
  L 400.58 373.78
  L 399.03 380.64
  L 395.16 389.86
  L 393.28 394.01
  L 393.19 394.13
  L 392.72 393.94
  L 392.66 393.60
  L 389.79 383.83
  L 387.95 380.44
  L 384.79 376.22
  L 382.79 373.65
  L 375.90 365.52
  L 371.24 361.32
  L 371.14 361.20
  L 371.44 360.53
  L 378.03 359.77
  L 384.46 360.11
  L 384.46 360.11
  L 392.75 362.25
  L 394.54 362.53
  L 396.65 362.12
  L 397.05 361.89
  L 397.29 361.56
  L 397.63 360.35
  L 397.19 358.56
  L 395.88 356.95
  L 390.79 353.94
  L 390.15 353.25
  L 388.49 347.80
  L 387.96 347.31
  L 382.74 346.70
  L 362.28 347.74
  L 358.71 347.27
  L 355.59 344.67
  L 355.21 344.28
  L 350.97 339.46
  L 348.26 335.49
  L 347.13 333.42
  L 342.63 325.45
  L 338.63 319.53
  L 335.85 315.33
  L 334.13 311.46
  L 333.21 307.11
  L 332.98 301.25
  L 333.92 287.02
  L 336.46 273.29
  L 336.50 273.02
  L 336.02 271.76
  L 334.75 271.33
  L 333.04 272.08
  L 332.53 273.02
  L 329.78 282.99
  L 328.12 291.08
  L 327.40 299.65
  L 327.68 309.00
  L 328.41 312.75
  L 330.16 316.94
  L 336.91 327.02
  L 338.46 329.10
  L 338.39 330.06
  L 337.53 331.12
  L 336.91 332.55
  L 330.81 352.16
  L 326.96 368.65
  L 323.76 381.17
  L 321.97 387.74
  L 320.06 398.96
  L 319.73 410.77
  L 319.21 417.92
  L 314.05 442.25
  L 310.35 453.86
  L 307.17 463.33
  L 306.04 467.72
  L 302.48 479.40
  L 298.13 487.10
  L 292.06 494.32
  L 290.91 495.59
  L 288.48 499.38
  L 286.87 503.84
  L 285.27 509.56
  L 284.96 510.27
  L 282.57 514.10
  L 278.66 518.34
  L 277.48 519.53
  L 273.45 524.22
  L 268.64 530.99
  L 261.75 540.34
  L 244.92 559.93
  L 241.43 563.06
  L 236.72 567.64
  L 234.05 570.51
  L 227.36 573.37
  L 221.93 574.62
  L 216.59 576.93
  L 212.52 578.84
  L 204.44 581.21
  L 194.39 585.44
  L 187.44 588.46
  L 178.29 592.48
  L 168.55 596.71
  L 158.12 600.95
  L 150.22 604.85
  L 150.13 604.89
  L 149.54 604.47
  L 148.73 589.50
  L 148.22 587.05
  L 147.11 585.64
  L 145.18 585.08
  L 142.22 585.70
  L 138.68 587.53
  L 135.32 590.06
  L 130.78 593.52
  L 126.17 595.48
  L 125.70 595.75
  L 125.48 596.27
  L 124.82 601.25
  L 124.63 601.63
  L 124.21 601.59
  L 119.94 599.12
  L 118.23 597.78
  L 113.63 594.57
  L 108.27 593.57
  L 108.27 593.57
  L 105.42 593.93
  L 102.59 594.91
  L 100.12 596.74
  L 97.58 600.15
  L 96.58 601.64
  L 94.57 605.07
  L 92.88 609.35
  L 90.67 620.02
  L 89.78 622.29
  L 89.48 622.70
  L 89.11 622.98
  L 67.58 635.01
  L 63.11 637.24
  L 54.31 639.84
  L 48.40 641.76
  L 41.67 644.83
  L 36.29 646.59
  L 33.18 647.04
  L 21.19 649.30
  L 16.66 650.91
  L 12.93 652.89
  L 6.73 656.54
  L 1.17 659.16
  L 0.78 659.41
  L 0.50 659.82
  L 0.00 661.00
  L 0.00 0.00
  Z
  M 183.85 109.53
  L 189.25 113.73
  L 194.93 115.62
  L 195.98 115.71
  L 202.60 116.62
  L 207.68 118.54
  L 208.63 119.08
  L 214.62 121.93
  L 219.72 122.65
  L 242.00 123.62
  L 242.17 123.63
  L 246.19 123.21
  L 251.08 121.48
  L 255.33 119.92
  L 255.41 119.90
  L 264.47 117.00
  L 268.57 115.07
  L 273.76 111.74
  L 279.24 108.25
  L 279.31 107.61
  L 279.20 107.54
  L 277.26 107.13
  L 275.14 107.56
  L 271.65 109.08
  L 261.74 113.05
  L 258.27 113.84
  L 256.01 113.82
  L 249.09 112.22
  L 246.35 111.45
  L 243.28 110.04
  L 241.89 108.95
  L 236.34 103.38
  L 236.16 103.02
  L 236.55 102.92
  L 250.72 102.53
  L 264.25 99.91
  L 268.03 98.74
  L 297.21 89.26
  L 309.59 84.65
  L 321.79 79.47
  L 322.01 79.34
  L 322.44 78.53
  L 322.05 77.69
  L 320.60 76.83
  L 316.97 76.63
  L 311.90 78.53
  L 308.81 79.83
  L 272.08 91.67
  L 261.73 93.95
  L 256.45 94.70
  L 245.35 96.06
  L 237.73 95.93
  L 231.14 94.49
  L 224.80 92.08
  L 220.08 89.23
  L 217.04 86.10
  L 216.24 85.71
  L 215.50 86.21
  L 215.41 86.66
  L 216.19 89.20
  L 217.96 91.79
  L 225.37 98.74
  L 231.29 104.25
  L 233.12 106.60
  L 235.13 109.40
  L 239.47 113.71
  L 246.09 117.24
  L 246.15 117.29
  L 246.02 117.48
  L 223.30 115.80
  L 218.36 115.74
  L 214.54 114.52
  L 206.36 110.69
  L 199.37 109.01
  L 193.99 107.88
  L 190.12 106.29
  L 184.72 102.03
  L 174.55 91.48
  L 172.96 91.01
  L 171.75 92.13
  L 171.70 92.96
  L 173.18 97.97
  L 174.76 101.22
  L 179.66 110.34
  L 182.78 117.48
  L 183.73 124.99
  L 184.13 130.05
  L 185.81 135.48
  L 191.76 147.40
  L 199.11 160.63
  L 207.21 172.59
  L 212.94 180.74
  L 213.89 182.21
  L 219.66 190.54
  L 224.97 196.24
  L 234.96 204.33
  L 249.77 213.95
  L 250.00 214.21
  L 249.74 214.44
  L 242.58 218.26
  L 237.36 222.31
  L 235.39 224.59
  L 233.41 227.99
  L 232.23 230.14
  L 230.55 232.73
  L 228.21 237.05
  L 227.82 240.90
  L 228.14 241.74
  L 229.59 242.29
  L 230.76 241.26
  L 232.40 237.72
  L 234.78 235.20
  L 234.78 235.20
  L 238.20 233.60
  L 242.50 233.19
  L 242.61 233.21
  L 242.91 233.92
  L 239.27 241.58
  L 236.61 249.50
  L 234.98 257.22
  L 234.25 261.51
  L 232.29 270.20
  L 231.14 276.80
  L 230.61 285.37
  L 230.55 286.79
  L 230.65 287.22
  L 231.02 287.50
  L 233.41 288.03
  L 236.24 287.77
  L 236.90 287.08
  L 238.27 283.19
  L 240.61 279.87
  L 251.01 268.76
  L 255.45 266.49
  L 260.86 263.80
  L 267.50 259.35
  L 275.48 256.46
  L 281.38 256.03
  L 281.76 256.20
  L 281.91 256.59
  L 282.08 266.82
  L 280.98 274.25
  L 280.41 276.23
  L 276.74 289.77
  L 274.78 299.75
  L 272.53 314.68
  L 269.18 335.85
  L 267.38 345.49
  L 265.40 356.12
  L 260.47 381.34
  L 257.29 396.80
  L 252.59 415.56
  L 251.00 421.30
  L 246.65 433.92
  L 237.61 456.39
  L 233.12 466.79
  L 227.95 476.93
  L 222.10 486.82
  L 215.57 496.45
  L 210.26 503.14
  L 203.19 510.94
  L 202.52 511.64
  L 190.53 524.94
  L 182.46 533.98
  L 174.40 544.21
  L 165.69 558.58
  L 163.86 562.65
  L 162.06 568.43
  L 160.13 574.59
  L 160.51 575.65
  L 163.38 577.27
  L 163.90 577.39
  L 164.38 577.16
  L 166.49 574.71
  L 170.08 566.50
  L 173.77 561.16
  L 177.16 558.08
  L 187.06 552.98
  L 194.45 549.18
  L 199.36 546.17
  L 199.77 546.36
  L 199.76 546.47
  L 194.61 564.40
  L 193.56 569.35
  L 193.29 573.27
  L 193.95 578.41
  L 195.12 582.20
  L 195.70 582.63
  L 196.34 582.30
  L 196.43 581.87
  L 196.35 578.57
  L 197.02 575.54
  L 197.04 575.49
  L 201.13 563.11
  L 203.90 552.74
  L 205.40 548.02
  L 207.55 543.70
  L 212.30 537.64
  L 212.49 537.26
  L 212.30 536.89
  L 210.71 535.32
  L 210.65 534.34
  L 215.22 528.20
  L 217.71 523.95
  L 223.76 510.56
  L 229.99 497.49
  L 238.26 477.93
  L 247.48 450.15
  L 248.88 445.68
  L 254.47 430.29
  L 259.60 416.36
  L 262.11 405.98
  L 265.87 393.30
  L 268.83 383.95
  L 271.27 375.03
  L 274.30 363.68
  L 275.95 355.06
  L 278.36 341.28
  L 280.46 329.28
  L 284.76 299.08
  L 286.01 290.76
  L 286.28 285.50
  L 285.77 278.48
  L 285.50 269.07
  L 285.54 265.95
  L 285.14 261.34
  L 284.72 257.17
  L 284.84 256.70
  L 285.19 256.40
  L 287.58 255.28
  L 287.78 254.45
  L 287.70 254.37
  L 285.89 252.85
  L 285.49 252.42
  L 285.26 251.99
  L 284.95 251.09
  L 284.65 249.64
  L 284.62 249.52
  L 283.90 249.34
  L 282.75 250.27
  L 282.30 250.53
  L 281.79 250.61
  L 274.57 251.30
  L 267.87 253.29
  L 267.87 253.29
  L 262.00 256.36
  L 256.60 260.59
  L 255.85 260.99
  L 250.23 263.11
  L 245.35 266.78
  L 240.09 272.88
  L 237.35 276.29
  L 237.14 276.43
  L 236.60 275.89
  L 239.04 266.04
  L 240.69 256.25
  L 241.74 250.86
  L 243.56 245.32
  L 246.12 239.60
  L 249.45 233.73
  L 249.73 233.33
  L 249.73 233.33
  L 251.58 232.01
  L 254.37 231.45
  L 254.96 230.90
  L 255.82 224.16
  L 255.44 223.04
  L 254.32 222.67
  L 254.32 222.67
  L 253.99 222.76
  L 250.70 224.47
  L 248.01 226.60
  L 244.31 229.68
  L 240.00 230.84
  L 238.28 231.16
  L 237.76 231.12
  L 237.35 230.57
  L 237.65 229.42
  L 242.96 225.05
  L 248.64 221.32
  L 248.64 221.32
  L 259.69 216.23
  L 262.76 215.50
  L 265.72 215.50
  L 266.49 214.90
  L 266.79 212.44
  L 266.79 212.41
  L 266.16 211.70
  L 258.60 211.41
  L 257.01 210.91
  L 243.38 201.99
  L 234.78 195.27
  L 231.86 192.84
  L 230.24 191.64
  L 227.14 189.25
  L 225.31 187.18
  L 214.39 171.33
  L 201.99 153.05
  L 192.55 136.88
  L 190.00 131.73
  L 189.02 128.14
  L 187.16 118.21
  L 183.49 109.80
  L 183.46 109.66
  L 183.85 109.53
  Z
  M 425.44 263.51
  L 427.61 265.82
  L 430.11 267.50
  L 433.13 268.60
  L 436.52 268.98
  L 439.31 271.11
  L 442.65 272.87
  L 450.99 275.29
  L 455.40 275.50
  L 459.22 274.46
  L 460.08 274.01
  L 460.59 273.88
  L 461.07 274.14
  L 463.11 275.58
  L 465.66 276.17
  L 466.56 276.81
  L 467.52 278.49
  L 468.80 279.52
  L 470.77 279.91
  L 473.20 279.37
  L 474.37 279.73
  L 475.69 281.61
  L 475.98 281.76
  L 476.27 281.76
  L 476.30 281.76
  L 476.51 281.43
  L 473.65 269.82
  L 472.42 266.82
  L 471.17 263.67
  L 471.09 263.14
  L 470.68 258.69
  L 470.06 243.74
  L 470.15 243.25
  L 470.42 243.68
  L 472.93 248.50
  L 477.44 254.93
  L 478.05 255.44
  L 480.32 256.59
  L 480.80 257.33
  L 482.01 268.31
  L 482.92 272.92
  L 486.51 283.39
  L 488.91 289.72
  L 489.15 290.05
  L 489.84 290.09
  L 490.21 289.50
  L 490.08 285.48
  L 490.11 278.84
  L 491.75 263.19
  L 492.69 251.54
  L 493.85 243.45
  L 496.51 233.06
  L 497.65 228.92
  L 500.93 219.14
  L 506.70 206.02
  L 507.53 204.24
  L 507.58 204.19
  L 507.66 204.21
  L 507.89 204.39
  L 508.03 204.84
  L 505.47 213.71
  L 504.56 221.75
  L 504.42 230.90
  L 504.60 263.43
  L 505.54 276.02
  L 507.16 286.04
  L 508.82 292.56
  L 511.38 299.78
  L 515.70 309.59
  L 517.94 314.55
  L 526.12 329.47
  L 529.53 335.21
  L 535.05 345.86
  L 539.52 356.88
  L 539.52 356.88
  L 542.66 367.13
  L 544.95 377.67
  L 545.61 381.00
  L 546.88 389.00
  L 547.83 405.71
  L 547.82 412.95
  L 546.97 419.56
  L 545.36 424.55
  L 543.08 427.74
  L 542.83 428.16
  L 543.00 428.61
  L 544.71 430.74
  L 545.17 431.03
  L 545.67 430.81
  L 556.03 419.91
  L 561.28 413.02
  L 569.06 399.62
  L 572.28 393.71
  L 577.78 383.22
  L 581.41 374.35
  L 581.76 373.31
  L 583.56 366.67
  L 584.66 359.97
  L 585.60 347.37
  L 585.65 334.81
  L 585.04 324.60
  L 585.46 324.34
  L 585.57 324.48
  L 586.39 327.51
  L 586.64 330.62
  L 586.94 331.65
  L 590.67 336.67
  L 593.81 339.33
  L 597.51 340.71
  L 602.72 341.35
  L 609.31 340.82
  L 609.31 340.82
  L 613.13 339.55
  L 616.79 337.58
  L 620.00 340.51
  L 626.92 342.05
  L 635.57 342.75
  L 639.65 343.65
  L 643.09 343.73
  L 646.85 342.84
  L 651.69 340.63
  L 653.92 339.11
  L 656.53 337.37
  L 656.78 337.12
  L 656.65 336.80
  L 656.00 336.04
  L 654.39 334.41
  L 653.68 333.97
  L 646.18 329.51
  L 636.01 323.76
  L 623.72 318.48
  L 623.41 318.24
  L 623.74 318.03
  L 626.36 316.72
  L 628.70 314.58
  L 634.05 306.57
  L 635.90 303.45
  L 639.30 299.42
  L 641.70 296.78
  L 643.07 294.39
  L 643.76 291.25
  L 643.99 285.36
  L 643.69 276.67
  L 642.63 267.59
  L 637.51 243.41
  L 636.70 239.99
  L 633.98 231.30
  L 628.90 218.22
  L 621.19 201.60
  L 616.85 192.61
  L 616.49 192.19
  L 615.98 192.07
  L 613.18 192.15
  L 613.09 192.16
  L 612.68 192.90
  L 613.90 196.71
  L 615.99 202.57
  L 623.95 220.51
  L 629.62 235.93
  L 633.33 248.95
  L 636.92 265.75
  L 638.03 277.44
  L 636.85 288.63
  L 636.85 288.63
  L 634.13 297.52
  L 629.84 306.08
  L 628.58 308.24
  L 624.56 314.55
  L 624.16 314.85
  L 623.20 314.72
  L 622.82 313.82
  L 623.12 307.70
  L 622.49 301.76
  L 622.49 301.76
  L 622.49 301.76
  L 621.17 296.68
  L 619.14 291.74
  L 619.12 291.71
  L 619.09 290.58
  L 619.88 289.77
  L 620.82 289.39
  L 625.99 287.01
  L 628.17 284.96
  L 628.22 284.81
  L 628.01 283.64
  L 627.00 283.01
  L 622.23 283.25
  L 618.18 285.20
  L 617.22 285.40
  L 616.43 284.81
  L 616.37 284.68
  L 613.17 276.78
  L 613.10 275.40
  L 614.45 275.09
  L 620.12 276.46
  L 625.59 279.61
  L 631.74 285.29
  L 631.82 285.37
  L 633.12 285.80
  L 634.33 285.14
  L 634.80 284.17
  L 633.90 281.59
  L 629.02 276.95
  L 624.37 273.56
  L 620.06 271.76
  L 616.37 271.18
  L 612.24 271.37
  L 611.37 270.99
  L 607.37 264.31
  L 603.94 256.54
  L 595.68 234.77
  L 592.80 226.47
  L 589.32 216.54
  L 585.72 204.76
  L 583.06 189.74
  L 582.18 187.77
  L 581.36 187.18
  L 580.56 187.34
  L 578.63 190.30
  L 578.08 192.89
  L 579.25 201.24
  L 581.83 211.66
  L 584.43 218.99
  L 586.90 225.83
  L 590.49 236.53
  L 594.05 246.25
  L 599.73 261.17
  L 604.80 271.41
  L 604.93 272.02
  L 604.48 272.47
  L 600.85 273.57
  L 596.71 273.32
  L 595.79 273.41
  L 593.84 274.90
  L 592.35 277.13
  L 591.28 280.19
  L 590.86 283.57
  L 591.09 286.78
  L 591.97 289.73
  L 593.36 291.94
  L 595.33 293.51
  L 597.98 294.27
  L 610.35 294.28
  L 610.89 294.23
  L 613.66 293.38
  L 614.65 292.99
  L 615.18 292.96
  L 615.54 293.35
  L 617.52 298.42
  L 618.78 303.62
  L 618.78 303.62
  L 618.78 303.62
  L 619.34 309.61
  L 619.00 315.76
  L 618.83 316.11
  L 618.45 316.14
  L 612.45 314.33
  L 610.97 313.81
  L 602.69 312.29
  L 589.86 312.34
  L 585.73 312.48
  L 585.33 312.36
  L 585.20 311.95
  L 584.47 291.48
  L 582.05 273.75
  L 580.84 259.92
  L 579.95 245.14
  L 577.93 224.81
  L 577.00 216.00
  L 576.72 207.22
  L 577.28 194.39
  L 578.72 187.42
  L 580.07 181.44
  L 583.04 158.73
  L 583.44 150.07
  L 583.29 149.70
  L 582.66 149.51
  L 582.22 149.99
  L 579.58 160.66
  L 577.01 171.09
  L 575.77 177.73
  L 573.08 193.36
  L 571.90 205.52
  L 571.75 209.66
  L 572.56 224.31
  L 574.59 245.56
  L 575.58 262.86
  L 576.53 275.25
  L 578.19 286.16
  L 579.14 297.12
  L 579.14 297.12
  L 579.36 310.47
  L 579.61 323.52
  L 580.07 336.21
  L 579.04 359.02
  L 578.01 366.54
  L 576.64 371.31
  L 575.15 374.71
  L 572.19 382.32
  L 569.01 389.01
  L 566.59 393.79
  L 564.81 396.54
  L 562.83 399.76
  L 562.62 400.38
  L 561.21 404.22
  L 559.72 407.36
  L 557.23 412.08
  L 556.78 412.72
  L 548.88 424.87
  L 548.64 424.89
  L 548.61 424.88
  L 548.59 424.87
  L 548.47 424.31
  L 551.15 416.04
  L 552.10 406.75
  L 552.14 403.05
  L 552.13 390.89
  L 551.51 382.12
  L 549.65 371.03
  L 546.49 359.21
  L 542.06 347.31
  L 536.22 335.08
  L 528.85 322.25
  L 523.77 312.84
  L 522.09 309.20
  L 516.76 297.05
  L 513.82 288.03
  L 511.47 275.24
  L 510.47 261.74
  L 510.20 239.53
  L 510.60 221.26
  L 511.37 215.03
  L 517.39 192.50
  L 518.50 189.11
  L 521.93 181.50
  L 527.09 173.01
  L 530.99 168.05
  L 535.78 161.86
  L 536.04 160.17
  L 535.14 159.18
  L 535.14 159.18
  L 534.44 159.48
  L 532.59 161.37
  L 532.27 161.27
  L 532.29 161.16
  L 534.47 158.50
  L 535.76 157.10
  L 544.91 143.89
  L 553.81 128.16
  L 554.03 127.29
  L 553.93 126.40
  L 553.39 126.16
  L 553.29 126.24
  L 530.50 155.76
  L 521.23 170.03
  L 512.66 186.91
  L 508.66 194.57
  L 503.81 204.10
  L 502.36 207.47
  L 497.19 218.67
  L 495.11 223.06
  L 492.76 230.89
  L 492.22 233.25
  L 492.06 233.56
  L 491.88 233.27
  L 490.43 229.97
  L 488.42 227.16
  L 488.42 227.16
  L 488.42 227.16
  L 485.77 224.79
  L 482.54 222.94
  L 481.60 222.15
  L 481.21 220.99
  L 481.05 204.44
  L 482.48 192.16
  L 486.33 178.31
  L 491.87 162.21
  L 496.04 148.02
  L 497.51 144.19
  L 500.04 139.77
  L 500.30 139.18
  L 499.73 139.48
  L 498.10 141.62
  L 485.02 168.55
  L 482.04 176.57
  L 478.04 190.86
  L 477.84 191.26
  L 477.44 191.53
  L 474.25 192.70
  L 473.80 193.19
  L 466.45 219.79
  L 466.17 220.25
  L 465.70 220.44
  L 459.28 221.23
  L 458.54 221.10
  L 458.08 220.51
  L 453.44 205.29
  L 452.02 197.61
  L 451.21 189.90
  L 451.21 189.90
  L 451.15 189.01
  L 451.02 180.74
  L 451.62 172.98
  L 452.96 165.73
  L 455.03 159.00
  L 457.14 153.36
  L 468.52 125.05
  L 473.89 114.27
  L 479.80 104.17
  L 479.93 103.97
  L 480.08 103.75
  L 482.32 101.14
  L 485.79 98.38
  L 487.40 97.19
  L 487.46 97.11
  L 487.43 97.03
  L 487.26 96.80
  L 486.99 96.76
  L 486.98 96.76
  L 480.33 100.35
  L 477.14 102.06
  L 473.91 105.08
  L 470.87 109.64
  L 462.80 125.89
  L 453.54 148.78
  L 453.01 150.17
  L 449.80 159.34
  L 447.64 167.59
  L 446.42 175.33
  L 446.08 182.71
  L 446.15 184.99
  L 446.06 185.45
  L 445.71 185.77
  L 443.29 187.69
  L 442.60 189.14
  L 437.29 204.92
  L 436.01 211.22
  L 435.89 222.59
  L 436.62 238.50
  L 436.39 239.59
  L 436.07 239.73
  L 435.67 239.41
  L 433.30 230.47
  L 429.44 214.84
  L 427.91 207.06
  L 426.20 198.66
  L 425.18 191.19
  L 425.11 183.95
  L 426.04 178.40
  L 427.93 174.74
  L 428.10 174.34
  L 427.71 174.13
  L 427.01 174.02
  L 426.59 173.82
  L 426.42 173.37
  L 426.60 170.07
  L 427.56 166.27
  L 429.06 161.69
  L 433.34 149.77
  L 437.88 141.50
  L 444.34 131.34
  L 450.14 120.39
  L 450.03 119.40
  L 449.09 119.07
  L 449.09 119.07
  L 448.56 119.40
  L 435.42 137.19
  L 432.18 142.31
  L 428.90 148.77
  L 422.19 165.69
  L 421.65 168.96
  L 420.53 175.52
  L 419.08 178.83
  L 417.51 180.53
  L 407.34 192.28
  L 401.82 201.32
  L 399.15 207.93
  L 397.13 214.54
  L 395.76 221.14
  L 395.05 227.75
  L 394.99 252.63
  L 395.92 261.15
  L 398.45 272.38
  L 399.52 276.75
  L 402.02 284.55
  L 405.89 292.59
  L 411.31 301.18
  L 418.52 310.72
  L 419.69 313.98
  L 419.63 314.35
  L 419.29 314.20
  L 404.35 301.11
  L 387.30 283.94
  L 382.67 276.58
  L 378.34 269.11
  L 375.44 263.76
  L 373.04 257.64
  L 368.98 240.75
  L 367.87 235.21
  L 366.80 228.73
  L 366.38 222.66
  L 366.57 209.90
  L 367.58 197.24
  L 367.58 197.24
  L 369.59 183.59
  L 372.56 170.05
  L 375.32 161.31
  L 379.01 153.05
  L 383.04 146.14
  L 387.81 139.60
  L 387.83 139.58
  L 392.81 132.35
  L 396.76 124.27
  L 396.53 123.33
  L 395.75 122.99
  L 395.19 123.11
  L 394.35 123.97
  L 386.07 136.31
  L 377.78 147.85
  L 371.47 159.66
  L 368.33 168.30
  L 365.77 178.76
  L 362.83 198.25
  L 362.83 198.25
  L 361.90 210.95
  L 361.75 223.74
  L 363.16 235.12
  L 366.87 253.15
  L 368.68 258.16
  L 370.31 262.27
  L 372.30 267.38
  L 375.25 272.53
  L 378.60 278.28
  L 382.26 284.56
  L 385.53 288.84
  L 397.52 301.04
  L 410.28 312.25
  L 418.83 320.16
  L 423.61 325.89
  L 424.76 326.88
  L 425.01 326.95
  L 425.63 326.68
  L 425.77 326.02
  L 424.74 322.43
  L 421.49 312.00
  L 418.09 304.63
  L 415.70 300.56
  L 408.17 286.84
  L 404.13 275.96
  L 404.12 275.91
  L 400.49 260.63
  L 399.47 249.77
  L 399.46 244.52
  L 399.66 231.11
  L 400.81 221.50
  L 404.51 207.44
  L 406.80 201.89
  L 409.40 197.21
  L 410.78 195.02
  L 415.66 187.72
  L 419.87 183.06
  L 420.24 182.88
  L 420.28 183.29
  L 419.81 191.49
  L 421.09 200.19
  L 424.29 216.16
  L 428.96 234.36
  L 430.23 238.75
  L 430.21 239.17
  L 429.82 239.31
  L 425.00 239.12
  L 418.57 237.79
  L 412.27 235.21
  L 412.21 235.18
  L 408.89 234.81
  L 408.51 234.98
  L 408.31 235.31
  L 408.32 238.34
  L 408.41 238.53
  L 420.18 263.44
  L 421.56 264.91
  L 423.54 264.56
  L 425.44 263.51
  Z
  M 671.11 302.66
  L 673.60 306.83
  L 675.87 310.13
  L 681.02 317.94
  L 685.14 326.01
  L 688.06 334.05
  L 689.90 342.40
  L 690.58 350.42
  L 690.23 358.76
  L 688.17 364.13
  L 686.58 366.21
  L 684.63 368.91
  L 684.78 369.69
  L 686.10 370.49
  L 688.34 370.41
  L 691.20 368.72
  L 694.17 365.58
  L 696.28 362.12
  L 698.55 358.06
  L 703.75 350.61
  L 707.66 343.00
  L 710.10 335.58
  L 711.10 328.45
  L 711.05 321.76
  L 710.31 315.24
  L 705.18 288.38
  L 699.44 265.14
  L 688.33 226.06
  L 686.02 214.49
  L 685.19 213.45
  L 683.90 213.75
  L 683.55 214.52
  L 684.13 222.79
  L 689.88 248.67
  L 693.87 264.36
  L 698.41 283.81
  L 703.56 311.75
  L 704.65 320.00
  L 704.73 327.20
  L 703.79 333.49
  L 701.87 338.97
  L 697.23 350.44
  L 696.94 350.49
  L 696.91 350.40
  L 695.23 337.71
  L 691.41 325.36
  L 686.02 315.05
  L 682.84 310.82
  L 679.26 307.13
  L 676.84 305.22
  L 672.39 301.33
  L 671.31 299.64
  L 670.80 297.77
  L 670.78 297.39
  L 669.81 278.56
  L 668.44 269.92
  L 666.05 260.16
  L 660.56 242.15
  L 652.70 220.41
  L 652.60 219.98
  L 652.64 219.53
  L 653.28 216.89
  L 652.68 216.02
  L 652.60 216.02
  L 649.30 216.00
  L 649.13 216.01
  L 648.13 216.60
  L 647.90 217.75
  L 650.88 229.29
  L 654.44 240.10
  L 658.49 253.84
  L 659.97 259.48
  L 663.24 274.21
  L 664.59 290.01
  L 664.53 306.75
  L 664.05 311.81
  L 663.09 315.94
  L 662.88 316.25
  L 662.64 315.96
  L 656.98 304.64
  L 650.40 295.16
  L 649.54 294.76
  L 648.70 295.20
  L 648.56 295.45
  L 648.37 296.16
  L 649.02 299.15
  L 658.00 315.48
  L 659.25 318.89
  L 659.28 323.43
  L 657.68 327.92
  L 657.38 329.49
  L 658.01 330.52
  L 659.83 332.72
  L 660.30 334.49
  L 659.92 335.94
  L 658.75 337.50
  L 658.54 337.94
  L 658.81 338.35
  L 659.88 339.15
  L 660.42 339.34
  L 660.91 339.05
  L 662.69 336.45
  L 663.95 332.72
  L 665.30 327.15
  L 667.18 321.96
  L 669.55 315.68
  L 670.64 310.61
  L 670.45 302.88
  L 670.96 302.52
  L 671.11 302.66
  Z
  M 268.45 305.62
  L 267.63 311.67
  L 266.12 320.51
  L 266.07 320.95
  L 266.42 320.68
  L 267.91 318.53
  L 274.94 282.89
  L 275.53 275.58
  L 275.33 272.69
  L 275.19 266.91
  L 276.33 262.76
  L 276.50 262.44
  L 276.57 261.97
  L 276.05 261.44
  L 275.35 261.69
  L 274.21 263.86
  L 273.95 265.76
  L 273.99 268.22
  L 273.91 276.31
  L 273.04 282.51
  L 269.79 298.60
  L 268.45 305.62
  Z
  M 638.25 391.99
  L 644.92 383.03
  L 649.91 376.63
  L 653.83 371.52
  L 659.16 364.19
  L 661.75 359.52
  L 667.30 350.33
  L 672.51 342.37
  L 676.91 333.69
  L 676.98 333.54
  L 678.82 329.01
  L 679.54 325.69
  L 679.57 323.52
  L 678.94 323.16
  L 678.80 323.28
  L 672.45 332.83
  L 671.99 333.66
  L 670.27 336.67
  L 663.31 346.90
  L 658.80 354.50
  L 655.43 361.00
  L 652.73 364.99
  L 641.24 379.09
  L 630.85 393.59
  L 629.63 396.37
  L 629.56 399.52
  L 630.67 400.26
  L 630.73 400.24
  L 633.31 399.08
  L 635.32 397.40
  L 635.32 397.40
  L 636.71 395.26
  L 638.25 391.99
  Z
  M 482.18 386.08
  L 481.75 385.69
  L 480.09 383.36
  L 479.08 380.37
  L 479.04 380.26
  L 478.23 380.05
  L 475.33 382.17
  L 475.26 382.23
  L 475.36 383.02
  L 476.63 383.83
  L 477.02 384.13
  L 477.36 384.51
  L 482.26 389.95
  L 487.65 393.71
  L 493.22 395.93
  L 499.80 397.06
  L 507.08 397.02
  L 515.54 395.91
  L 517.15 395.07
  L 517.98 393.45
  L 521.59 376.98
  L 524.58 363.83
  L 526.36 356.73
  L 527.27 354.00
  L 529.14 347.59
  L 529.45 342.67
  L 529.00 342.06
  L 528.25 342.18
  L 528.02 342.55
  L 524.84 350.11
  L 522.80 354.52
  L 520.47 362.10
  L 518.08 372.36
  L 517.03 377.14
  L 516.17 383.91
  L 516.15 384.15
  L 515.08 390.24
  L 514.27 391.84
  L 513.12 392.69
  L 504.30 394.06
  L 496.01 393.24
  L 496.01 393.24
  L 488.88 390.58
  L 482.18 386.08
  Z
  M 440.78 410.17
  L 440.27 412.25
  L 440.47 413.97
  L 441.51 415.54
  L 443.44 416.92
  L 446.55 418.71
  L 455.00 423.04
  L 455.58 423.26
  L 469.22 428.22
  L 478.63 431.08
  L 487.36 432.92
  L 495.77 433.77
  L 496.76 433.81
  L 502.32 433.24
  L 507.45 431.23
  L 507.51 430.99
  L 507.41 430.91
  L 497.50 427.88
  L 487.78 424.12
  L 481.43 422.16
  L 476.13 420.42
  L 470.99 417.78
  L 440.08 399.69
  L 428.90 392.45
  L 427.62 391.45
  L 419.03 383.83
  L 416.52 380.35
  L 415.21 377.14
  L 415.09 376.88
  L 414.47 376.60
  L 413.89 376.96
  L 411.21 381.62
  L 411.24 382.25
  L 418.01 391.53
  L 418.19 391.67
  L 418.70 391.20
  L 418.63 390.51
  L 419.31 388.90
  L 420.16 388.53
  L 420.95 389.00
  L 421.08 389.32
  L 420.98 391.24
  L 419.96 392.59
  L 419.77 392.86
  L 419.78 393.19
  L 423.16 406.00
  L 423.31 407.31
  L 424.51 413.77
  L 425.39 415.45
  L 426.62 416.32
  L 427.91 416.22
  L 429.50 415.22
  L 433.44 412.39
  L 437.69 410.38
  L 440.27 409.59
  L 440.40 409.58
  L 440.78 410.17
  Z
  M 619.44 490.72
  L 617.21 489.86
  L 613.29 486.68
  L 609.34 481.47
  L 605.92 475.96
  L 605.92 475.96
  L 602.86 469.75
  L 600.41 463.19
  L 598.22 454.79
  L 597.76 448.74
  L 598.97 434.49
  L 599.74 430.82
  L 601.32 427.23
  L 603.80 423.46
  L 606.90 419.91
  L 615.57 412.86
  L 620.46 410.01
  L 625.03 408.00
  L 643.65 401.59
  L 643.91 400.85
  L 643.82 400.75
  L 641.67 399.85
  L 638.76 399.81
  L 629.17 402.10
  L 628.37 402.34
  L 617.57 406.67
  L 607.91 413.04
  L 600.41 420.42
  L 597.86 424.06
  L 595.91 427.96
  L 594.74 431.77
  L 594.29 435.76
  L 593.80 442.20
  L 593.27 447.87
  L 593.44 453.52
  L 594.29 459.40
  L 595.78 465.17
  L 598.03 471.28
  L 600.85 477.16
  L 608.33 488.65
  L 613.08 492.97
  L 620.69 496.92
  L 623.66 498.30
  L 625.63 498.84
  L 627.00 498.45
  L 627.79 497.37
  L 627.94 495.88
  L 627.47 494.29
  L 626.38 492.87
  L 623.71 489.73
  L 622.94 486.23
  L 622.76 471.41
  L 623.02 470.54
  L 625.66 467.14
  L 628.78 464.41
  L 632.57 462.24
  L 640.58 460.49
  L 648.34 458.78
  L 655.58 455.97
  L 660.79 452.66
  L 664.00 448.95
  L 667.05 443.88
  L 670.21 438.95
  L 672.81 433.77
  L 676.18 423.32
  L 677.55 412.00
  L 677.46 399.28
  L 676.38 387.58
  L 676.23 383.68
  L 676.15 380.19
  L 676.09 380.02
  L 675.48 380.07
  L 674.40 384.12
  L 672.79 403.08
  L 671.42 415.69
  L 671.13 417.69
  L 669.90 423.49
  L 667.93 428.88
  L 664.87 434.96
  L 658.07 444.12
  L 653.31 450.05
  L 650.66 452.48
  L 650.12 452.76
  L 645.41 454.68
  L 641.76 455.57
  L 633.52 457.75
  L 625.96 461.75
  L 621.30 466.34
  L 620.03 468.76
  L 619.44 471.38
  L 619.42 472.06
  L 620.03 490.24
  L 620.03 490.32
  L 619.44 490.72
  Z
  M 454.32 440.38
  L 447.29 438.46
  L 438.86 434.08
  L 437.68 433.16
  L 435.52 431.92
  L 433.56 432.60
  L 433.27 432.98
  L 433.37 433.46
  L 435.88 436.56
  L 439.89 439.59
  L 445.06 442.27
  L 450.53 444.21
  L 457.58 446.61
  L 458.55 446.68
  L 459.67 445.52
  L 459.12 444.00
  L 454.83 440.58
  L 454.32 440.38
  Z"
/>
<path fill="none" stroke-width="1.00" stroke="#000000" d="
  M 404.13 0.00
  L 404.50 0.00
  L 407.17 0.71
  L 407.32 0.79
  L 407.23 1.46
  L 405.32 2.34
  L 389.89 9.93
  L 379.44 16.61
  L 373.86 20.69
  L 363.65 28.43
  L 356.46 35.32
  L 345.33 49.15
  L 337.51 59.13
  L 331.19 68.88
  L 330.06 70.85
  L 329.45 71.48
  L 329.37 71.52
  L 329.30 71.55
  L 328.79 71.18
  L 328.94 67.58
  L 329.77 64.24
  L 329.77 64.24
  L 332.60 59.34
  L 339.08 51.22
  L 348.33 38.80
  L 356.13 29.78
  L 366.19 21.32
  L 376.70 13.47
  L 387.05 6.79
  L 398.44 1.48
  L 404.13 0.00
  Z"
/>
<path fill="none" stroke-width="1.00" stroke="#000000" d="
  M 688.38 0.00
  L 691.42 0.00
  L 698.36 6.52
  L 702.71 11.81
  L 705.45 16.41
  L 708.99 24.03
  L 712.74 34.64
  L 716.18 42.76
  L 719.10 49.38
  L 719.78 54.69
  L 720.00 58.37
  L 720.00 62.54
  L 719.30 65.58
  L 719.25 65.69
  L 718.79 65.64
  L 711.87 51.71
  L 703.70 37.49
  L 697.08 26.28
  L 693.38 21.33
  L 689.81 16.53
  L 689.59 16.11
  L 684.37 7.14
  L 679.23 1.59
  L 679.10 1.45
  L 679.45 0.50
  L 682.33 0.39
  L 685.14 2.11
  L 688.45 6.56
  L 693.01 14.31
  L 695.89 18.02
  L 696.98 19.25
  L 697.37 19.47
  L 698.03 19.20
  L 698.06 18.49
  L 690.53 5.75
  L 687.70 2.66
  L 686.90 1.33
  L 688.38 0.00
  Z
  M 700.14 15.11
  L 700.28 15.32
  L 700.44 15.34
  L 700.62 15.05
  L 700.60 15.01
  L 697.78 10.30
  L 697.47 10.04
  L 697.10 10.17
  L 696.93 10.42
  L 697.05 10.78
  L 700.05 14.90
  L 700.14 15.11
  Z
  M 710.05 37.81
  L 702.31 20.42
  L 702.28 20.41
  L 702.23 20.43
  L 701.72 21.38
  L 701.84 23.41
  L 703.76 29.33
  L 704.40 30.77
  L 707.51 36.16
  L 708.94 37.60
  L 709.99 37.86
  L 709.99 37.86
  L 709.99 37.86
  L 710.04 37.84
  L 710.05 37.81
  L 710.05 37.81
  Z"
/>
<path fill="none" stroke-width="1.00" stroke="#000000" d="
  M 691.42 0.00
  L 720.00 0.00
  L 720.00 58.37
  L 719.78 54.69
  L 719.10 49.38
  L 716.18 42.76
  L 712.74 34.64
  L 708.99 24.03
  L 705.45 16.41
  L 702.71 11.81
  L 698.36 6.52
  L 691.42 0.00
  Z"
/>
<path fill="none" stroke-width="1.00" stroke="#000000" d="
  M 700.05 14.90
  L 697.05 10.78
  L 696.93 10.42
  L 697.10 10.17
  L 697.47 10.04
  L 697.78 10.30
  L 700.60 15.01
  L 700.62 15.05
  L 700.44 15.34
  L 700.28 15.32
  L 700.14 15.11
  L 700.05 14.90
  Z"
/>
<path fill="none" stroke-width="1.00" stroke="#000000" d="
  M 710.05 37.81
  L 710.05 37.82
  L 710.04 37.84
  L 709.99 37.86
  L 709.99 37.86
  L 708.94 37.60
  L 707.51 36.16
  L 704.40 30.77
  L 703.76 29.33
  L 701.84 23.41
  L 701.72 21.38
  L 702.23 20.43
  L 702.23 20.43
  L 702.28 20.41
  L 702.29 20.40
  L 702.31 20.42
  L 710.05 37.81
  Z"
/>
<path fill="none" stroke-width="1.00" stroke="#000000" d="
  M 183.49 109.80
  L 187.16 118.21
  L 189.02 128.14
  L 190.00 131.73
  L 192.55 136.88
  L 201.99 153.05
  L 214.39 171.33
  L 225.31 187.18
  L 227.14 189.25
  L 230.24 191.64
  L 231.86 192.84
  L 234.78 195.27
  L 243.38 201.99
  L 257.01 210.91
  L 258.60 211.41
  L 266.16 211.70
  L 266.79 212.41
  L 266.79 212.44
  L 266.49 214.90
  L 265.72 215.50
  L 262.76 215.50
  L 259.69 216.23
  L 248.64 221.32
  L 242.96 225.05
  L 237.65 229.42
  L 237.35 230.57
  L 237.76 231.12
  L 238.28 231.16
  L 240.00 230.84
  L 244.31 229.68
  L 248.01 226.60
  L 250.70 224.47
  L 253.99 222.76
  L 254.32 222.67
  L 255.44 223.04
  L 255.82 224.16
  L 254.96 230.90
  L 254.37 231.45
  L 251.58 232.01
  L 249.73 233.33
  L 249.73 233.33
  L 249.45 233.73
  L 246.12 239.60
  L 243.56 245.32
  L 241.74 250.86
  L 240.69 256.25
  L 239.04 266.04
  L 236.60 275.89
  L 237.14 276.43
  L 237.35 276.29
  L 240.09 272.88
  L 245.35 266.78
  L 250.23 263.11
  L 255.85 260.99
  L 256.60 260.59
  L 262.00 256.36
  L 267.87 253.29
  L 267.87 253.29
  L 274.57 251.30
  L 281.79 250.61
  L 282.30 250.53
  L 282.75 250.27
  L 283.90 249.34
  L 284.62 249.52
  L 284.65 249.64
  L 284.95 251.09
  L 285.26 251.99
  L 285.49 252.42
  L 285.89 252.85
  L 287.70 254.37
  L 287.78 254.45
  L 287.58 255.28
  L 285.19 256.40
  L 284.84 256.70
  L 284.72 257.17
  L 285.14 261.34
  L 285.54 265.95
  L 285.50 269.07
  L 285.77 278.48
  L 286.28 285.50
  L 286.01 290.76
  L 284.76 299.08
  L 280.46 329.28
  L 278.36 341.28
  L 275.95 355.06
  L 274.30 363.68
  L 271.27 375.03
  L 268.83 383.95
  L 265.87 393.30
  L 262.11 405.98
  L 259.60 416.36
  L 254.47 430.29
  L 248.88 445.68
  L 247.48 450.15
  L 238.26 477.93
  L 229.99 497.49
  L 223.76 510.56
  L 217.71 523.95
  L 215.22 528.20
  L 210.65 534.34
  L 210.71 535.32
  L 212.30 536.89
  L 212.49 537.26
  L 212.30 537.64
  L 207.55 543.70
  L 205.40 548.02
  L 203.90 552.74
  L 201.13 563.11
  L 197.04 575.49
  L 197.02 575.54
  L 196.35 578.57
  L 196.43 581.87
  L 196.34 582.30
  L 195.70 582.63
  L 195.12 582.20
  L 193.95 578.41
  L 193.29 573.27
  L 193.56 569.35
  L 194.61 564.40
  L 199.76 546.47
  L 199.77 546.36
  L 199.36 546.17
  L 194.45 549.18
  L 187.06 552.98
  L 177.16 558.08
  L 173.77 561.16
  L 170.08 566.50
  L 166.49 574.71
  L 164.38 577.16
  L 163.90 577.39
  L 163.38 577.27
  L 160.51 575.65
  L 160.13 574.59
  L 162.06 568.43
  L 163.86 562.65
  L 165.69 558.58
  L 174.40 544.21
  L 182.46 533.98
  L 190.53 524.94
  L 202.52 511.64
  L 203.19 510.94
  L 210.26 503.14
  L 215.57 496.45
  L 222.10 486.82
  L 227.95 476.93
  L 233.12 466.79
  L 237.61 456.39
  L 246.65 433.92
  L 251.00 421.30
  L 252.59 415.56
  L 257.29 396.80
  L 260.47 381.34
  L 265.40 356.12
  L 267.38 345.49
  L 269.18 335.85
  L 272.53 314.68
  L 274.78 299.75
  L 276.74 289.77
  L 280.41 276.23
  L 280.98 274.25
  L 282.08 266.82
  L 281.91 256.59
  L 281.76 256.20
  L 281.38 256.03
  L 275.48 256.46
  L 267.50 259.35
  L 260.86 263.80
  L 255.45 266.49
  L 251.01 268.76
  L 240.61 279.87
  L 238.27 283.19
  L 236.90 287.08
  L 236.24 287.77
  L 233.41 288.03
  L 231.02 287.50
  L 230.65 287.22
  L 230.55 286.79
  L 230.61 285.37
  L 231.14 276.80
  L 232.29 270.20
  L 234.25 261.51
  L 234.98 257.22
  L 236.61 249.50
  L 236.61 249.50
  L 239.27 241.58
  L 242.91 233.92
  L 242.61 233.21
  L 242.50 233.19
  L 238.20 233.60
  L 234.78 235.20
  L 234.78 235.20
  L 232.40 237.72
  L 230.76 241.26
  L 229.59 242.29
  L 228.14 241.74
  L 227.82 240.90
  L 228.21 237.05
  L 230.55 232.73
  L 232.23 230.14
  L 233.41 227.99
  L 235.39 224.59
  L 237.36 222.31
  L 242.58 218.26
  L 249.74 214.44
  L 250.00 214.21
  L 249.77 213.95
  L 234.96 204.33
  L 224.97 196.24
  L 219.66 190.54
  L 213.89 182.21
  L 212.94 180.74
  L 207.21 172.59
  L 199.11 160.63
  L 191.76 147.40
  L 185.81 135.48
  L 184.13 130.05
  L 183.73 124.99
  L 182.78 117.48
  L 179.66 110.34
  L 174.76 101.22
  L 173.18 97.97
  L 171.70 92.96
  L 171.75 92.13
  L 172.96 91.01
  L 174.55 91.48
  L 184.72 102.03
  L 190.12 106.29
  L 193.99 107.88
  L 199.37 109.01
  L 206.36 110.69
  L 214.54 114.52
  L 218.36 115.74
  L 223.30 115.80
  L 246.02 117.48
  L 246.15 117.29
  L 246.09 117.24
  L 239.47 113.71
  L 235.13 109.40
  L 233.12 106.60
  L 231.29 104.25
  L 225.37 98.74
  L 217.96 91.79
  L 216.19 89.20
  L 215.41 86.66
  L 215.50 86.21
  L 216.24 85.71
  L 217.04 86.10
  L 220.08 89.23
  L 224.80 92.08
  L 231.14 94.49
  L 237.73 95.93
  L 245.35 96.06
  L 256.45 94.70
  L 261.73 93.95
  L 272.08 91.67
  L 308.81 79.83
  L 311.90 78.53
  L 316.97 76.63
  L 320.60 76.83
  L 322.05 77.69
  L 322.44 78.53
  L 322.01 79.34
  L 322.01 79.34
  L 321.79 79.47
  L 309.59 84.65
  L 297.21 89.26
  L 268.03 98.74
  L 264.25 99.91
  L 250.72 102.53
  L 236.55 102.92
  L 236.16 103.02
  L 236.34 103.38
  L 241.89 108.95
  L 243.28 110.04
  L 246.35 111.45
  L 249.09 112.22
  L 256.01 113.82
  L 258.27 113.84
  L 261.74 113.05
  L 271.65 109.08
  L 275.14 107.56
  L 277.26 107.13
  L 279.20 107.54
  L 279.31 107.61
  L 279.24 108.25
  L 273.76 111.74
  L 268.57 115.07
  L 264.47 117.00
  L 255.41 119.90
  L 255.33 119.92
  L 251.08 121.48
  L 246.19 123.21
  L 242.17 123.63
  L 242.00 123.62
  L 219.72 122.65
  L 214.62 121.93
  L 208.63 119.08
  L 207.68 118.54
  L 202.60 116.62
  L 195.98 115.71
  L 194.93 115.62
  L 194.93 115.62
  L 189.25 113.73
  L 183.85 109.53
  L 183.46 109.66
  L 183.49 109.80
  Z
  M 263.22 386.84
  L 262.12 392.29
  L 262.31 392.45
  L 262.37 392.40
  L 262.76 391.62
  L 262.88 390.94
  L 262.94 390.52
  L 263.14 390.09
  L 265.05 386.51
  L 271.97 361.68
  L 272.70 356.24
  L 273.08 350.97
  L 274.32 344.03
  L 275.05 340.23
  L 280.60 302.74
  L 282.22 293.97
  L 283.66 286.49
  L 284.05 280.73
  L 283.98 280.53
  L 283.34 280.61
  L 280.72 288.40
  L 279.27 295.29
  L 275.61 320.07
  L 270.02 352.51
  L 269.39 358.02
  L 268.36 363.52
  L 263.22 386.84
  Z
  M 216.04 513.77
  L 226.01 492.50
  L 227.77 489.00
  L 227.81 488.89
  L 227.81 488.72
  L 227.73 488.55
  L 227.57 488.67
  L 224.82 492.61
  L 215.06 506.21
  L 207.22 515.64
  L 203.26 520.02
  L 190.76 534.44
  L 187.36 537.89
  L 183.28 542.27
  L 175.45 555.03
  L 175.44 555.09
  L 175.60 555.15
  L 183.12 550.30
  L 185.79 548.83
  L 198.50 541.27
  L 199.16 540.88
  L 202.11 538.76
  L 203.56 536.15
  L 207.10 529.11
  L 212.38 521.20
  L 216.04 513.77
  Z"
/>
<path fill="none" stroke-width="1.00" stroke="#000000" d="
  M 635.57 342.75
  L 635.64 342.67
  L 638.28 341.67
  L 638.75 341.56
  L 639.13 341.27
  L 640.39 340.13
  L 643.67 338.62
  L 646.07 337.69
  L 648.97 336.51
  L 649.56 335.92
  L 649.43 335.10
  L 649.43 335.10
  L 649.23 334.90
  L 643.57 330.76
  L 643.28 330.64
  L 640.74 330.46
  L 638.00 330.67
  L 637.00 330.54
  L 634.66 329.57
  L 627.74 326.14
  L 627.37 325.88
  L 626.78 325.47
  L 621.43 322.34
  L 621.20 322.28
  L 620.56 323.09
  L 621.15 326.39
  L 620.66 330.70
  L 620.64 330.78
  L 618.84 333.81
  L 616.97 336.88
  L 616.79 337.58
  L 613.13 339.55
  L 609.31 340.82
  L 609.31 340.82
  L 602.72 341.35
  L 597.51 340.71
  L 593.81 339.33
  L 590.67 336.67
  L 586.94 331.65
  L 586.64 330.62
  L 586.39 327.51
  L 585.57 324.48
  L 585.46 324.34
  L 585.04 324.60
  L 585.65 334.81
  L 585.60 347.37
  L 584.66 359.97
  L 583.56 366.67
  L 581.76 373.31
  L 581.41 374.35
  L 577.78 383.22
  L 572.28 393.71
  L 569.06 399.62
  L 561.28 413.02
  L 556.03 419.91
  L 545.67 430.81
  L 545.17 431.03
  L 544.71 430.74
  L 543.00 428.61
  L 542.83 428.16
  L 543.08 427.74
  L 545.36 424.55
  L 546.97 419.56
  L 547.82 412.95
  L 547.83 405.71
  L 546.88 389.00
  L 545.61 381.00
  L 544.95 377.67
  L 542.66 367.13
  L 539.52 356.88
  L 539.52 356.88
  L 535.05 345.86
  L 529.53 335.21
  L 526.12 329.47
  L 517.94 314.55
  L 515.70 309.59
  L 511.38 299.78
  L 508.82 292.56
  L 507.16 286.04
  L 505.54 276.02
  L 504.60 263.43
  L 504.42 230.90
  L 504.56 221.75
  L 505.47 213.71
  L 508.03 204.84
  L 507.89 204.39
  L 507.66 204.21
  L 507.58 204.19
  L 507.53 204.24
  L 506.70 206.02
  L 500.93 219.14
  L 497.65 228.92
  L 496.51 233.06
  L 493.85 243.45
  L 492.69 251.54
  L 491.75 263.19
  L 490.11 278.84
  L 490.08 285.48
  L 490.21 289.50
  L 489.84 290.09
  L 489.15 290.05
  L 488.91 289.72
  L 486.51 283.39
  L 482.92 272.92
  L 482.01 268.31
  L 480.80 257.33
  L 480.32 256.59
  L 478.05 255.44
  L 477.44 254.93
  L 472.93 248.50
  L 470.42 243.68
  L 470.15 243.25
  L 470.06 243.74
  L 470.68 258.69
  L 471.09 263.14
  L 471.17 263.67
  L 472.42 266.82
  L 473.65 269.82
  L 476.51 281.43
  L 476.30 281.76
  L 476.27 281.76
  L 475.98 281.76
  L 475.69 281.61
  L 474.37 279.73
  L 473.20 279.37
  L 470.77 279.91
  L 468.80 279.52
  L 467.52 278.49
  L 466.56 276.81
  L 465.66 276.17
  L 463.11 275.58
  L 461.07 274.14
  L 460.59 273.88
  L 460.08 274.01
  L 459.22 274.46
  L 455.40 275.50
  L 450.99 275.29
  L 442.65 272.87
  L 439.31 271.11
  L 436.52 268.98
  L 436.31 259.67
  L 436.52 256.11
  L 436.56 251.00
  L 435.70 248.41
  L 434.29 246.34
  L 434.29 246.34
  L 434.29 246.34
  L 432.51 244.93
  L 430.28 243.95
  L 417.26 240.70
  L 416.32 240.97
  L 416.00 241.90
  L 416.11 242.23
  L 421.67 253.75
  L 425.44 263.51
  L 423.54 264.56
  L 421.56 264.91
  L 420.18 263.44
  L 408.41 238.53
  L 408.32 238.34
  L 408.31 235.31
  L 408.51 234.98
  L 408.89 234.81
  L 412.21 235.18
  L 412.27 235.21
  L 418.57 237.79
  L 425.00 239.12
  L 429.82 239.31
  L 430.21 239.17
  L 430.23 238.75
  L 428.96 234.36
  L 424.29 216.16
  L 421.09 200.19
  L 419.81 191.49
  L 420.28 183.29
  L 420.24 182.88
  L 419.87 183.06
  L 415.66 187.72
  L 410.78 195.02
  L 409.40 197.21
  L 406.80 201.89
  L 404.51 207.44
  L 400.81 221.50
  L 399.66 231.11
  L 399.46 244.52
  L 399.47 249.77
  L 400.49 260.63
  L 404.12 275.91
  L 404.13 275.96
  L 408.17 286.84
  L 415.70 300.56
  L 418.09 304.63
  L 421.49 312.00
  L 424.74 322.43
  L 425.77 326.02
  L 425.63 326.68
  L 425.01 326.95
  L 424.76 326.88
  L 423.61 325.89
  L 418.83 320.16
  L 410.28 312.25
  L 397.52 301.04
  L 385.53 288.84
  L 382.26 284.56
  L 378.60 278.28
  L 375.25 272.53
  L 372.30 267.38
  L 370.31 262.27
  L 368.68 258.16
  L 366.87 253.15
  L 363.16 235.12
  L 361.75 223.74
  L 361.90 210.95
  L 362.83 198.25
  L 362.83 198.25
  L 365.77 178.76
  L 368.33 168.30
  L 371.47 159.66
  L 377.78 147.85
  L 386.07 136.31
  L 394.35 123.97
  L 395.19 123.11
  L 395.75 122.99
  L 396.53 123.33
  L 396.76 124.27
  L 392.81 132.35
  L 387.83 139.58
  L 387.81 139.60
  L 383.04 146.14
  L 379.01 153.05
  L 379.01 153.05
  L 379.01 153.05
  L 375.32 161.31
  L 372.56 170.05
  L 369.59 183.59
  L 367.58 197.24
  L 367.58 197.24
  L 366.57 209.90
  L 366.38 222.66
  L 366.80 228.73
  L 367.87 235.21
  L 368.98 240.75
  L 373.04 257.64
  L 375.44 263.76
  L 378.34 269.11
  L 382.67 276.58
  L 387.30 283.94
  L 404.35 301.11
  L 419.29 314.20
  L 419.63 314.35
  L 419.69 313.98
  L 418.52 310.72
  L 411.31 301.18
  L 405.89 292.59
  L 402.02 284.55
  L 399.52 276.75
  L 398.45 272.38
  L 395.92 261.15
  L 394.99 252.63
  L 395.05 227.75
  L 395.76 221.14
  L 397.13 214.54
  L 399.15 207.93
  L 401.82 201.32
  L 407.34 192.28
  L 417.51 180.53
  L 419.08 178.83
  L 420.53 175.52
  L 421.65 168.96
  L 422.19 165.69
  L 428.90 148.77
  L 432.18 142.31
  L 435.42 137.19
  L 448.56 119.40
  L 449.09 119.07
  L 450.03 119.40
  L 450.14 120.39
  L 444.34 131.34
  L 437.88 141.50
  L 433.34 149.77
  L 429.06 161.69
  L 427.56 166.27
  L 426.60 170.07
  L 426.42 173.37
  L 426.59 173.82
  L 427.01 174.02
  L 427.71 174.13
  L 428.10 174.34
  L 427.93 174.74
  L 426.04 178.40
  L 425.11 183.95
  L 425.18 191.19
  L 426.20 198.66
  L 427.91 207.06
  L 429.44 214.84
  L 433.30 230.47
  L 435.67 239.41
  L 436.38 239.60
  L 436.39 239.59
  L 436.62 238.50
  L 435.89 222.59
  L 436.01 211.22
  L 437.29 204.92
  L 442.60 189.14
  L 443.29 187.69
  L 445.71 185.77
  L 446.06 185.45
  L 446.15 184.99
  L 446.08 182.71
  L 446.42 175.33
  L 447.64 167.59
  L 449.80 159.34
  L 453.01 150.17
  L 453.54 148.78
  L 462.80 125.89
  L 470.87 109.64
  L 473.91 105.08
  L 477.14 102.06
  L 480.33 100.35
  L 486.98 96.76
  L 486.99 96.76
  L 487.26 96.80
  L 487.43 97.03
  L 487.46 97.11
  L 487.40 97.19
  L 485.79 98.38
  L 482.32 101.14
  L 480.08 103.75
  L 479.93 103.97
  L 479.80 104.17
  L 473.89 114.27
  L 468.52 125.05
  L 457.14 153.36
  L 455.03 159.00
  L 452.96 165.73
  L 451.62 172.98
  L 451.02 180.74
  L 451.15 189.01
  L 451.21 189.90
  L 451.21 189.90
  L 452.02 197.61
  L 453.44 205.29
  L 458.08 220.51
  L 458.54 221.10
  L 459.28 221.23
  L 465.70 220.44
  L 466.17 220.25
  L 466.45 219.79
  L 473.80 193.19
  L 474.25 192.70
  L 477.44 191.53
  L 477.84 191.26
  L 478.04 190.86
  L 482.04 176.57
  L 485.02 168.55
  L 498.10 141.62
  L 499.73 139.48
  L 500.30 139.18
  L 500.04 139.77
  L 497.51 144.19
  L 496.04 148.02
  L 491.87 162.21
  L 486.33 178.31
  L 482.48 192.16
  L 481.05 204.44
  L 481.21 220.99
  L 481.60 222.15
  L 482.54 222.94
  L 485.77 224.79
  L 488.42 227.16
  L 488.42 227.16
  L 488.42 227.16
  L 490.43 229.97
  L 491.88 233.27
  L 492.06 233.56
  L 492.22 233.25
  L 492.76 230.89
  L 495.11 223.06
  L 497.19 218.67
  L 502.36 207.47
  L 503.81 204.10
  L 508.66 194.57
  L 512.66 186.91
  L 521.23 170.03
  L 530.50 155.76
  L 553.29 126.24
  L 553.39 126.16
  L 553.93 126.40
  L 554.03 127.29
  L 553.81 128.16
  L 544.91 143.89
  L 535.76 157.10
  L 534.47 158.50
  L 532.29 161.16
  L 532.27 161.27
  L 532.59 161.37
  L 534.44 159.48
  L 535.14 159.18
  L 536.04 160.17
  L 535.78 161.86
  L 530.99 168.05
  L 527.09 173.01
  L 521.93 181.50
  L 518.50 189.11
  L 517.39 192.50
  L 511.37 215.03
  L 510.60 221.26
  L 510.20 239.53
  L 510.47 261.74
  L 511.47 275.24
  L 513.82 288.03
  L 516.76 297.05
  L 522.09 309.20
  L 523.77 312.84
  L 528.85 322.25
  L 536.22 335.08
  L 542.06 347.31
  L 546.49 359.21
  L 549.65 371.03
  L 551.51 382.12
  L 552.13 390.89
  L 552.14 403.05
  L 552.10 406.75
  L 551.15 416.04
  L 548.47 424.31
  L 548.59 424.87
  L 548.61 424.88
  L 548.64 424.89
  L 548.88 424.87
  L 556.78 412.72
  L 557.23 412.08
  L 559.72 407.36
  L 561.21 404.22
  L 562.62 400.38
  L 562.83 399.76
  L 564.81 396.54
  L 566.59 393.79
  L 569.01 389.01
  L 572.19 382.32
  L 575.15 374.71
  L 576.64 371.31
  L 578.01 366.54
  L 579.04 359.02
  L 580.07 336.21
  L 579.61 323.52
  L 579.36 310.47
  L 579.14 297.12
  L 579.14 297.12
  L 578.19 286.16
  L 576.53 275.25
  L 575.58 262.86
  L 574.59 245.56
  L 572.56 224.31
  L 571.75 209.66
  L 571.90 205.52
  L 573.08 193.36
  L 575.77 177.73
  L 577.01 171.09
  L 579.58 160.66
  L 582.22 149.99
  L 582.66 149.51
  L 583.29 149.70
  L 583.44 150.07
  L 583.04 158.73
  L 580.07 181.44
  L 578.72 187.42
  L 577.28 194.39
  L 576.72 207.22
  L 577.00 216.00
  L 577.93 224.81
  L 579.95 245.14
  L 580.84 259.92
  L 582.05 273.75
  L 584.47 291.48
  L 585.20 311.95
  L 585.33 312.36
  L 585.73 312.48
  L 589.86 312.34
  L 602.69 312.29
  L 610.97 313.81
  L 612.45 314.33
  L 618.45 316.14
  L 618.83 316.11
  L 619.00 315.76
  L 619.34 309.61
  L 618.78 303.62
  L 618.78 303.62
  L 617.52 298.42
  L 615.54 293.35
  L 615.18 292.96
  L 614.65 292.99
  L 613.66 293.38
  L 610.89 294.23
  L 610.35 294.28
  L 597.98 294.27
  L 595.33 293.51
  L 593.36 291.94
  L 591.97 289.73
  L 591.09 286.78
  L 590.86 283.57
  L 591.28 280.19
  L 592.35 277.13
  L 593.84 274.90
  L 595.79 273.41
  L 596.71 273.32
  L 600.85 273.57
  L 604.48 272.47
  L 604.93 272.02
  L 604.80 271.41
  L 599.73 261.17
  L 594.05 246.25
  L 590.49 236.53
  L 586.90 225.83
  L 584.43 218.99
  L 581.83 211.66
  L 579.25 201.24
  L 578.08 192.89
  L 578.63 190.30
  L 580.56 187.34
  L 581.36 187.18
  L 582.18 187.77
  L 583.06 189.74
  L 585.72 204.76
  L 589.32 216.54
  L 592.80 226.47
  L 595.68 234.77
  L 603.94 256.54
  L 607.37 264.31
  L 611.37 270.99
  L 612.24 271.37
  L 616.37 271.18
  L 620.06 271.76
  L 624.37 273.56
  L 629.02 276.95
  L 633.90 281.59
  L 634.80 284.17
  L 634.33 285.14
  L 633.12 285.80
  L 631.82 285.37
  L 631.74 285.29
  L 625.59 279.61
  L 620.12 276.46
  L 614.45 275.09
  L 613.10 275.40
  L 613.17 276.78
  L 616.37 284.68
  L 616.43 284.81
  L 617.22 285.40
  L 618.18 285.20
  L 622.23 283.25
  L 627.00 283.01
  L 628.01 283.64
  L 628.22 284.81
  L 628.17 284.96
  L 625.98 287.02
  L 620.82 289.39
  L 619.88 289.77
  L 619.09 290.58
  L 619.12 291.71
  L 619.14 291.74
  L 621.17 296.68
  L 622.49 301.76
  L 622.49 301.76
  L 622.49 301.76
  L 623.12 307.70
  L 622.82 313.82
  L 623.20 314.72
  L 624.16 314.85
  L 624.56 314.55
  L 628.58 308.24
  L 629.84 306.08
  L 634.13 297.52
  L 636.85 288.63
  L 636.85 288.63
  L 638.03 277.44
  L 636.92 265.75
  L 633.33 248.95
  L 629.62 235.93
  L 623.95 220.51
  L 615.99 202.57
  L 613.90 196.71
  L 612.68 192.90
  L 613.09 192.16
  L 613.18 192.15
  L 615.98 192.07
  L 616.49 192.19
  L 616.85 192.61
  L 621.19 201.60
  L 628.90 218.22
  L 633.98 231.30
  L 636.70 239.99
  L 637.51 243.41
  L 642.63 267.59
  L 643.69 276.67
  L 643.99 285.36
  L 643.76 291.25
  L 643.07 294.39
  L 641.70 296.78
  L 639.30 299.42
  L 635.90 303.45
  L 634.05 306.57
  L 628.70 314.58
  L 626.36 316.72
  L 623.74 318.03
  L 623.41 318.24
  L 623.72 318.48
  L 636.01 323.76
  L 646.18 329.51
  L 653.68 333.97
  L 654.39 334.41
  L 656.00 336.04
  L 656.65 336.80
  L 656.78 337.12
  L 656.53 337.37
  L 653.92 339.11
  L 651.69 340.63
  L 646.85 342.84
  L 643.09 343.73
  L 639.65 343.65
  L 635.57 342.75
  Z
  M 442.43 202.93
  L 440.71 207.99
  L 439.40 225.57
  L 439.96 241.33
  L 440.10 241.76
  L 440.44 242.03
  L 443.46 243.52
  L 457.30 251.01
  L 459.78 252.73
  L 462.46 255.41
  L 465.25 259.25
  L 465.85 259.79
  L 465.96 259.78
  L 466.41 258.94
  L 463.09 251.72
  L 459.18 242.90
  L 458.74 241.65
  L 454.48 228.29
  L 448.05 204.03
  L 447.19 199.18
  L 446.83 192.68
  L 446.79 191.34
  L 446.32 191.12
  L 446.22 191.28
  L 442.43 202.93
  Z
  M 476.88 202.97
  L 476.79 199.22
  L 475.60 202.78
  L 471.86 218.41
  L 472.18 220.13
  L 473.68 221.02
  L 473.95 221.03
  L 476.01 221.00
  L 476.53 220.82
  L 476.69 220.29
  L 476.60 209.55
  L 476.88 202.97
  Z
  M 465.32 229.49
  L 465.35 229.53
  L 465.58 229.48
  L 466.04 227.46
  L 465.51 225.82
  L 463.37 225.20
  L 463.19 225.28
  L 463.22 225.47
  L 465.32 229.49
  Z
  M 470.50 237.11
  L 479.24 251.03
  L 479.35 251.14
  L 479.83 250.86
  L 479.57 242.12
  L 478.73 235.32
  L 478.51 233.93
  L 477.64 229.80
  L 476.17 227.62
  L 474.42 226.85
  L 471.84 226.77
  L 471.44 226.94
  L 471.26 227.32
  L 470.06 235.00
  L 470.50 237.11
  Z
  M 459.31 227.79
  L 461.95 237.44
  L 465.08 246.26
  L 465.55 247.06
  L 465.59 246.14
  L 465.57 245.96
  L 464.10 236.12
  L 462.72 232.35
  L 460.94 229.32
  L 459.58 227.65
  L 459.31 227.47
  L 459.31 227.79
  Z
  M 485.09 249.75
  L 485.28 250.00
  L 485.67 249.87
  L 486.95 247.58
  L 486.98 247.50
  L 486.98 247.45
  L 487.83 235.64
  L 487.78 235.44
  L 483.01 228.63
  L 482.48 228.67
  L 482.45 228.84
  L 485.09 249.75
  Z
  M 447.82 251.67
  L 445.75 250.93
  L 445.22 251.00
  L 444.81 251.27
  L 443.20 253.54
  L 442.05 256.98
  L 441.56 261.12
  L 441.67 265.76
  L 441.82 266.21
  L 442.16 266.50
  L 446.77 268.52
  L 451.03 269.72
  L 454.23 269.92
  L 456.99 269.19
  L 456.99 269.19
  L 459.54 267.28
  L 461.55 264.21
  L 461.65 263.80
  L 461.56 263.36
  L 458.47 258.48
  L 456.24 256.32
  L 451.24 253.47
  L 447.82 251.67
  Z
  M 487.73 254.85
  L 485.55 254.92
  L 485.32 255.17
  L 485.32 255.36
  L 486.11 268.65
  L 487.18 274.14
  L 487.30 274.13
  L 488.03 268.59
  L 487.98 255.27
  L 487.97 255.08
  L 487.73 254.85
  Z
  M 596.23 286.63
  L 596.60 287.98
  L 598.34 288.98
  L 609.24 289.59
  L 609.27 289.59
  L 611.25 288.57
  L 611.37 286.34
  L 606.66 277.08
  L 605.60 276.06
  L 604.14 275.92
  L 598.29 277.34
  L 597.09 278.09
  L 596.58 279.41
  L 596.23 286.63
  Z
  M 606.83 319.10
  L 601.44 318.22
  L 596.09 318.09
  L 596.09 318.09
  L 591.90 318.51
  L 591.65 318.59
  L 591.15 319.22
  L 591.36 320.01
  L 594.35 323.37
  L 594.58 323.80
  L 594.59 324.29
  L 594.53 329.64
  L 596.47 334.31
  L 597.19 334.85
  L 601.25 335.72
  L 604.78 335.90
  L 607.82 335.40
  L 610.38 334.23
  L 612.59 332.26
  L 614.32 329.54
  L 615.59 326.09
  L 616.42 321.90
  L 616.35 321.50
  L 615.97 321.35
  L 609.41 319.86
  L 606.83 319.10
  Z"
/>
<path fill="none" stroke-width="1.00" stroke="#000000" d="
  M 442.43 202.93
  L 446.22 191.28
  L 446.32 191.12
  L 446.79 191.34
  L 446.83 192.68
  L 447.19 199.18
  L 448.05 204.03
  L 454.48 228.29
  L 458.74 241.65
  L 459.18 242.90
  L 463.09 251.72
  L 466.41 258.94
  L 465.96 259.78
  L 465.85 259.79
  L 465.25 259.25
  L 462.46 255.41
  L 459.78 252.73
  L 457.30 251.01
  L 443.46 243.52
  L 440.44 242.03
  L 440.10 241.76
  L 439.96 241.33
  L 439.40 225.57
  L 440.71 207.99
  L 442.43 202.93
  Z"
/>
<path fill="none" stroke-width="1.00" stroke="#000000" d="
  M 476.88 202.97
  L 476.60 209.55
  L 476.69 220.29
  L 476.53 220.82
  L 476.01 221.00
  L 473.95 221.03
  L 473.68 221.02
  L 472.18 220.13
  L 471.86 218.41
  L 475.60 202.78
  L 476.79 199.22
  L 476.88 202.97
  Z"
/>
<path fill="none" stroke-width="1.00" stroke="#000000" d="
  M 670.45 302.88
  L 670.64 310.61
  L 669.55 315.68
  L 667.18 321.96
  L 665.30 327.15
  L 663.95 332.72
  L 662.69 336.45
  L 660.91 339.05
  L 660.42 339.34
  L 659.88 339.15
  L 658.81 338.35
  L 658.54 337.94
  L 658.75 337.50
  L 659.92 335.94
  L 660.30 334.49
  L 659.83 332.72
  L 658.01 330.52
  L 657.38 329.49
  L 657.68 327.92
  L 659.28 323.43
  L 659.25 318.89
  L 658.00 315.48
  L 649.02 299.15
  L 648.37 296.16
  L 648.56 295.45
  L 648.70 295.20
  L 649.54 294.76
  L 650.40 295.16
  L 656.98 304.64
  L 662.64 315.96
  L 662.88 316.25
  L 663.09 315.94
  L 664.05 311.81
  L 664.53 306.75
  L 664.59 290.01
  L 663.24 274.21
  L 659.97 259.48
  L 658.49 253.84
  L 654.44 240.10
  L 650.88 229.29
  L 647.90 217.75
  L 648.13 216.60
  L 649.13 216.01
  L 649.13 216.01
  L 649.30 216.00
  L 652.60 216.02
  L 652.68 216.02
  L 653.28 216.89
  L 652.64 219.53
  L 652.60 219.98
  L 652.70 220.41
  L 660.56 242.15
  L 666.05 260.16
  L 668.44 269.92
  L 669.81 278.56
  L 670.78 297.39
  L 670.80 297.77
  L 671.31 299.64
  L 672.39 301.33
  L 676.84 305.22
  L 679.26 307.13
  L 682.84 310.82
  L 686.02 315.05
  L 691.41 325.36
  L 695.23 337.71
  L 696.91 350.40
  L 696.94 350.49
  L 697.23 350.44
  L 701.87 338.97
  L 703.79 333.49
  L 704.73 327.20
  L 704.65 320.00
  L 703.56 311.75
  L 698.41 283.81
  L 693.87 264.36
  L 689.88 248.67
  L 684.13 222.79
  L 683.55 214.52
  L 683.90 213.75
  L 685.19 213.45
  L 686.02 214.49
  L 688.33 226.06
  L 699.44 265.14
  L 705.18 288.38
  L 710.31 315.24
  L 711.05 321.76
  L 711.10 328.45
  L 710.10 335.58
  L 707.66 343.00
  L 703.75 350.61
  L 698.55 358.06
  L 696.28 362.12
  L 694.17 365.58
  L 691.20 368.72
  L 688.34 370.41
  L 686.10 370.49
  L 684.78 369.69
  L 684.63 368.91
  L 686.58 366.21
  L 688.17 364.13
  L 690.23 358.76
  L 690.58 350.42
  L 689.90 342.40
  L 688.06 334.05
  L 685.14 326.01
  L 681.02 317.94
  L 675.87 310.13
  L 673.60 306.83
  L 671.11 302.66
  L 670.96 302.52
  L 670.45 302.88
  Z"
/>
<path fill="none" stroke-width="1.00" stroke="#000000" d="
  M 465.32 229.49
  L 463.22 225.47
  L 463.19 225.28
  L 463.37 225.20
  L 465.51 225.82
  L 466.04 227.46
  L 465.58 229.48
  L 465.35 229.53
  L 465.32 229.49
  Z"
/>
<path fill="none" stroke-width="1.00" stroke="#000000" d="
  M 470.50 237.11
  L 470.06 235.00
  L 471.26 227.32
  L 471.44 226.94
  L 471.84 226.77
  L 474.42 226.85
  L 476.17 227.62
  L 477.64 229.80
  L 478.51 233.93
  L 478.73 235.32
  L 479.57 242.12
  L 479.83 250.86
  L 479.35 251.14
  L 479.24 251.03
  L 470.50 237.11
  Z"
/>
<path fill="none" stroke-width="1.00" stroke="#000000" d="
  M 465.08 246.26
  L 461.95 237.44
  L 459.31 227.79
  L 459.31 227.47
  L 459.58 227.65
  L 460.94 229.32
  L 462.72 232.35
  L 464.10 236.12
  L 465.57 245.96
  L 465.59 246.14
  L 465.55 247.06
  L 465.08 246.26
  Z"
/>
<path fill="none" stroke-width="1.00" stroke="#000000" d="
  M 485.09 249.75
  L 482.45 228.84
  L 482.60 228.54
  L 483.01 228.63
  L 487.78 235.44
  L 487.81 235.51
  L 487.83 235.64
  L 486.98 247.45
  L 486.95 247.58
  L 485.67 249.87
  L 485.09 249.75
  Z"
/>
<path fill="none" stroke-width="1.00" stroke="#000000" d="
  M 436.52 268.98
  L 433.13 268.60
  L 430.11 267.50
  L 430.11 267.50
  L 427.61 265.82
  L 425.44 263.51
  L 421.67 253.75
  L 416.11 242.23
  L 416.00 241.90
  L 416.32 240.97
  L 417.26 240.70
  L 430.28 243.95
  L 432.51 244.93
  L 434.29 246.34
  L 435.70 248.41
  L 436.56 251.00
  L 436.52 256.11
  L 436.31 259.67
  L 436.52 268.98
  Z"
/>
<path fill="none" stroke-width="1.00" stroke="#000000" d="
  M 447.82 251.67
  L 451.24 253.47
  L 456.24 256.32
  L 458.47 258.48
  L 461.56 263.36
  L 461.65 263.80
  L 461.55 264.21
  L 459.54 267.28
  L 456.99 269.19
  L 456.99 269.19
  L 456.99 269.19
  L 454.23 269.92
  L 451.03 269.72
  L 446.77 268.52
  L 442.16 266.50
  L 441.82 266.21
  L 441.67 265.76
  L 441.56 261.12
  L 442.05 256.98
  L 443.20 253.54
  L 444.81 251.27
  L 445.22 251.00
  L 445.75 250.93
  L 447.82 251.67
  Z"
/>
<path fill="none" stroke-width="1.00" stroke="#000000" d="
  M 487.73 254.85
  L 487.96 255.01
  L 487.97 255.08
  L 487.98 255.27
  L 488.03 268.59
  L 487.30 274.13
  L 487.30 274.13
  L 487.30 274.13
  L 487.18 274.14
  L 486.11 268.65
  L 485.32 255.36
  L 485.32 255.17
  L 485.55 254.92
  L 487.73 254.85
  Z"
/>
<path fill="none" stroke-width="1.00" stroke="#000000" d="
  M 143.28 720.00
  L 86.10 720.00
  L 81.18 717.13
  L 77.70 713.32
  L 76.46 710.99
  L 74.01 704.18
  L 72.32 697.01
  L 71.38 689.46
  L 71.18 681.54
  L 71.62 677.67
  L 72.75 674.16
  L 75.46 669.19
  L 78.65 665.34
  L 81.51 663.61
  L 85.75 662.56
  L 86.35 661.89
  L 86.46 655.94
  L 86.98 644.07
  L 88.24 629.42
  L 88.12 629.00
  L 87.70 629.08
  L 78.44 634.55
  L 74.70 636.48
  L 69.55 639.28
  L 64.84 641.87
  L 58.01 643.97
  L 48.33 647.10
  L 41.10 650.45
  L 36.64 652.05
  L 36.47 652.08
  L 34.66 652.35
  L 24.18 654.41
  L 16.85 657.62
  L 1.52 665.94
  L 1.50 665.95
  L 0.78 665.62
  L 0.00 663.35
  L 0.00 661.00
  L 0.50 659.82
  L 0.78 659.41
  L 1.17 659.16
  L 6.73 656.54
  L 12.93 652.89
  L 16.66 650.91
  L 21.19 649.30
  L 33.18 647.04
  L 36.29 646.59
  L 41.67 644.83
  L 48.40 641.76
  L 54.31 639.84
  L 63.11 637.24
  L 67.58 635.01
  L 89.11 622.98
  L 89.48 622.70
  L 89.78 622.29
  L 90.67 620.02
  L 92.88 609.35
  L 94.57 605.07
  L 96.58 601.64
  L 97.58 600.15
  L 100.12 596.74
  L 102.59 594.91
  L 105.42 593.93
  L 108.27 593.57
  L 108.27 593.57
  L 113.63 594.57
  L 118.23 597.78
  L 119.94 599.12
  L 124.21 601.59
  L 124.63 601.63
  L 124.82 601.25
  L 125.48 596.27
  L 125.70 595.75
  L 126.17 595.48
  L 130.78 593.52
  L 135.32 590.06
  L 138.71 587.51
  L 142.28 585.68
  L 145.21 585.08
  L 147.11 585.64
  L 148.22 587.05
  L 148.73 589.50
  L 149.54 604.47
  L 150.13 604.89
  L 150.22 604.85
  L 158.12 600.95
  L 168.55 596.71
  L 178.29 592.48
  L 187.44 588.46
  L 194.39 585.44
  L 204.44 581.21
  L 212.52 578.84
  L 216.59 576.93
  L 221.93 574.62
  L 227.36 573.37
  L 234.05 570.51
  L 236.72 567.64
  L 241.43 563.06
  L 244.92 559.93
  L 261.75 540.34
  L 268.64 530.99
  L 273.45 524.22
  L 277.48 519.53
  L 278.66 518.34
  L 282.57 514.10
  L 284.96 510.27
  L 285.27 509.56
  L 286.87 503.84
  L 288.48 499.38
  L 290.91 495.59
  L 290.91 495.59
  L 292.06 494.32
  L 298.13 487.10
  L 302.48 479.40
  L 306.04 467.72
  L 307.17 463.33
  L 310.35 453.86
  L 314.05 442.25
  L 319.21 417.92
  L 319.73 410.77
  L 320.06 398.96
  L 321.97 387.74
  L 323.76 381.17
  L 326.96 368.65
  L 330.81 352.16
  L 336.91 332.55
  L 337.53 331.12
  L 338.39 330.06
  L 338.46 329.10
  L 336.91 327.02
  L 330.16 316.94
  L 328.41 312.75
  L 327.68 309.00
  L 327.40 299.65
  L 328.12 291.08
  L 329.78 282.99
  L 332.53 273.02
  L 333.04 272.08
  L 334.75 271.33
  L 336.02 271.76
  L 336.50 273.02
  L 336.46 273.29
  L 333.92 287.02
  L 332.98 301.25
  L 333.21 307.11
  L 334.13 311.46
  L 335.85 315.33
  L 338.63 319.53
  L 342.63 325.45
  L 347.13 333.42
  L 348.26 335.49
  L 350.97 339.46
  L 355.21 344.28
  L 355.59 344.67
  L 358.71 347.27
  L 362.28 347.74
  L 382.74 346.70
  L 387.96 347.31
  L 388.49 347.80
  L 390.15 353.25
  L 390.79 353.94
  L 395.88 356.95
  L 397.19 358.56
  L 397.63 360.35
  L 397.29 361.56
  L 397.05 361.89
  L 396.65 362.12
  L 394.54 362.53
  L 392.75 362.25
  L 384.46 360.11
  L 384.46 360.11
  L 378.03 359.77
  L 371.44 360.53
  L 371.14 361.20
  L 371.24 361.32
  L 375.90 365.52
  L 382.79 373.65
  L 384.79 376.22
  L 387.95 380.44
  L 389.79 383.83
  L 392.66 393.60
  L 392.72 393.94
  L 393.19 394.13
  L 393.28 394.01
  L 395.16 389.86
  L 399.03 380.64
  L 400.58 373.78
  L 400.84 362.98
  L 399.77 352.41
  L 399.77 352.41
  L 398.14 344.84
  L 395.81 337.39
  L 391.59 328.56
  L 384.24 317.32
  L 381.67 313.59
  L 375.77 303.15
  L 371.40 291.38
  L 368.35 277.94
  L 366.02 260.21
  L 366.15 259.67
  L 366.97 259.29
  L 367.65 259.87
  L 373.05 279.09
  L 377.68 295.20
  L 382.12 304.11
  L 389.29 315.19
  L 396.50 326.35
  L 400.95 335.34
  L 403.79 344.13
  L 405.59 353.71
  L 406.43 364.54
  L 406.34 376.88
  L 405.34 381.59
  L 402.53 388.19
  L 401.27 390.93
  L 399.12 395.13
  L 396.61 398.49
  L 391.46 402.59
  L 390.53 403.23
  L 388.60 404.43
  L 386.94 404.74
  L 386.30 404.63
  L 384.84 403.42
  L 384.74 401.54
  L 384.82 401.36
  L 385.06 400.86
  L 386.51 396.14
  L 385.46 389.03
  L 382.19 382.52
  L 374.18 372.49
  L 364.89 363.12
  L 363.62 362.46
  L 362.99 362.44
  L 359.67 363.16
  L 356.78 364.56
  L 356.78 364.56
  L 354.51 366.42
  L 352.60 368.85
  L 352.44 369.28
  L 352.47 369.75
  L 353.94 375.09
  L 358.06 389.27
  L 361.78 399.23
  L 369.83 417.46
  L 372.65 422.22
  L 377.18 427.80
  L 381.68 433.33
  L 387.03 440.61
  L 401.98 461.74
  L 405.16 465.37
  L 408.12 468.64
  L 413.58 476.01
  L 424.57 491.42
  L 427.48 494.64
  L 431.53 497.42
  L 436.50 499.65
  L 443.52 501.91
  L 445.60 502.54
  L 446.03 502.59
  L 446.54 502.45
  L 458.94 496.52
  L 469.25 492.63
  L 481.98 487.74
  L 485.15 486.54
  L 491.13 485.57
  L 495.19 484.75
  L 500.57 482.86
  L 502.47 482.14
  L 510.26 480.06
  L 521.59 477.15
  L 530.83 473.42
  L 539.93 469.60
  L 552.24 464.57
  L 567.90 455.91
  L 568.17 455.57
  L 567.89 455.25
  L 565.95 453.31
  L 565.95 449.74
  L 566.00 445.68
  L 565.49 444.58
  L 565.37 444.25
  L 565.49 443.66
  L 567.87 438.99
  L 569.25 428.41
  L 568.38 416.85
  L 568.43 416.07
  L 569.38 414.60
  L 570.98 414.23
  L 571.67 414.86
  L 572.61 419.24
  L 574.01 422.99
  L 582.20 441.57
  L 582.35 442.06
  L 582.48 443.17
  L 582.50 443.61
  L 582.57 443.94
  L 583.33 444.62
  L 584.33 444.41
  L 588.42 440.45
  L 590.57 437.55
  L 591.17 437.07
  L 592.41 437.32
  L 592.74 438.55
  L 591.33 441.94
  L 589.31 444.77
  L 589.31 444.77
  L 584.51 448.25
  L 584.00 448.68
  L 583.82 449.31
  L 583.71 454.37
  L 583.34 455.14
  L 581.70 455.90
  L 579.93 455.51
  L 577.88 453.99
  L 577.55 453.71
  L 576.83 453.54
  L 576.28 454.03
  L 576.23 454.30
  L 575.22 457.04
  L 572.55 457.79
  L 572.06 457.84
  L 571.63 458.04
  L 556.77 466.37
  L 543.65 471.95
  L 524.90 479.93
  L 518.39 482.47
  L 510.43 484.80
  L 505.03 486.65
  L 498.18 488.81
  L 487.68 491.61
  L 473.90 497.30
  L 470.65 498.74
  L 461.52 502.12
  L 457.19 503.91
  L 450.57 507.70
  L 448.91 508.53
  L 447.44 508.47
  L 446.33 506.75
  L 445.71 506.14
  L 442.94 505.54
  L 436.81 504.01
  L 432.40 501.96
  L 429.71 499.95
  L 428.05 498.91
  L 427.23 498.96
  L 426.21 500.16
  L 426.13 500.31
  L 424.91 500.41
  L 411.19 486.01
  L 406.17 480.35
  L 402.35 475.13
  L 399.34 470.16
  L 394.86 461.54
  L 391.02 454.75
  L 385.00 446.45
  L 381.33 441.55
  L 373.67 431.75
  L 368.88 425.50
  L 365.58 419.97
  L 364.60 417.88
  L 362.02 412.06
  L 356.27 398.71
  L 352.88 389.10
  L 350.28 379.99
  L 347.51 369.10
  L 346.15 361.92
  L 345.69 355.17
  L 346.64 345.12
  L 346.47 344.05
  L 339.51 331.22
  L 339.30 331.00
  L 339.16 331.27
  L 328.06 392.64
  L 328.59 393.30
  L 328.67 393.30
  L 331.18 393.04
  L 331.43 393.09
  L 331.43 393.86
  L 329.89 394.72
  L 328.84 395.91
  L 328.77 397.50
  L 329.30 401.87
  L 328.52 407.80
  L 327.73 414.30
  L 327.41 420.56
  L 326.49 426.00
  L 320.34 454.89
  L 319.15 459.36
  L 317.06 464.48
  L 312.00 475.88
  L 310.23 480.26
  L 308.94 482.14
  L 306.88 483.16
  L 306.03 483.68
  L 304.22 486.65
  L 303.14 488.60
  L 300.31 492.43
  L 294.98 500.10
  L 292.69 505.96
  L 291.20 511.24
  L 288.10 516.89
  L 282.90 523.16
  L 279.35 527.99
  L 273.89 535.96
  L 265.65 546.18
  L 262.03 550.56
  L 253.13 560.88
  L 244.37 569.35
  L 235.89 576.07
  L 230.88 578.43
  L 219.88 582.22
  L 210.63 585.50
  L 194.16 592.13
  L 185.58 595.89
  L 178.75 599.00
  L 170.07 602.82
  L 155.84 607.85
  L 150.21 611.07
  L 149.88 611.45
  L 149.73 611.89
  L 143.85 642.82
  L 142.69 647.86
  L 141.89 653.94
  L 141.67 656.44
  L 141.67 656.45
  L 142.22 657.11
  L 142.69 657.15
  L 148.91 657.97
  L 152.51 659.70
  L 154.64 662.49
  L 156.08 667.04
  L 156.09 667.11
  L 158.88 683.56
  L 159.42 695.41
  L 158.95 700.42
  L 157.91 705.18
  L 156.38 709.25
  L 154.22 712.96
  L 151.94 715.61
  L 149.30 717.68
  L 149.30 717.68
  L 149.30 717.68
  L 146.46 719.10
  L 143.28 720.00
  Z
  M 349.68 352.59
  L 349.69 352.68
  L 350.46 352.95
  L 352.66 351.31
  L 352.78 350.65
  L 350.20 346.69
  L 349.42 346.64
  L 349.30 346.99
  L 349.68 352.59
  Z
  M 381.1276 353.8651
  L 377.2719 353.3902
  L 373.3924 353.5949
  L 377.2481 354.0698
  L 381.1276 353.8651
  Z
  M 571.65 452.75
  L 571.65 452.78
  L 572.07 453.15
  L 572.68 452.93
  L 572.83 452.80
  L 572.91 452.71
  L 573.08 452.12
  L 572.77 450.84
  L 572.29 450.27
  L 571.91 450.11
  L 571.76 450.49
  L 571.65 452.75
  Z
  M 405.1803 467.9016
  L 404.8077 467.8183
  L 404.5882 467.9576
  L 404.5049 468.3303
  L 410.2597 477.3984
  L 410.6323 477.4817
  L 410.8518 477.3424
  L 410.9351 476.9697
  L 405.1803 467.9016
  Z
  M 132.87 604.45
  L 130.53 605.71
  L 126.37 606.67
  L 122.21 607.63
  L 122.09 607.68
  L 120.32 607.41
  L 116.49 603.36
  L 111.94 598.67
  L 107.79 596.77
  L 107.73 596.76
  L 106.26 596.72
  L 103.19 598.01
  L 100.31 601.27
  L 97.95 606.26
  L 96.61 611.73
  L 96.04 615.54
  L 94.10 624.17
  L 93.97 624.67
  L 92.04 636.69
  L 90.84 645.33
  L 90.21 651.90
  L 90.38 660.80
  L 90.36 671.99
  L 90.54 676.57
  L 91.97 681.74
  L 93.69 685.17
  L 95.87 687.35
  L 99.09 688.59
  L 104.07 688.73
  L 110.17 688.47
  L 122.41 687.46
  L 130.22 686.16
  L 132.41 685.02
  L 133.39 682.76
  L 135.67 654.48
  L 139.07 635.50
  L 140.24 630.05
  L 143.28 615.08
  L 144.26 607.66
  L 144.58 597.60
  L 144.74 590.17
  L 144.10 589.74
  L 143.93 589.87
  L 140.74 593.55
  L 137.15 596.72
  L 137.15 596.72
  L 129.48 601.22
  L 129.41 601.85
  L 129.60 601.92
  L 131.75 602.50
  L 132.97 603.39
  L 133.02 603.44
  L 132.87 604.45
  Z
  M 115.19 716.91
  L 129.62 716.49
  L 139.24 715.97
  L 142.43 715.29
  L 145.92 713.18
  L 149.07 710.01
  L 151.62 706.12
  L 153.01 701.81
  L 153.55 696.09
  L 153.11 684.16
  L 153.11 684.16
  L 152.05 675.94
  L 150.38 667.78
  L 149.52 665.56
  L 148.16 663.94
  L 148.16 663.94
  L 145.99 662.83
  L 143.18 662.52
  L 142.19 662.80
  L 141.27 664.51
  L 139.94 675.94
  L 139.91 686.47
  L 139.83 686.94
  L 139.52 687.30
  L 137.41 689.50
  L 136.83 692.08
  L 135.78 700.46
  L 134.82 702.62
  L 133.37 703.73
  L 133.26 703.75
  L 121.15 705.34
  L 108.23 705.87
  L 102.85 705.21
  L 98.76 703.70
  L 94.90 701.32
  L 92.24 698.31
  L 91.40 695.72
  L 91.19 692.12
  L 90.36 686.04
  L 90.25 685.77
  L 87.20 681.12
  L 87.04 680.74
  L 86.42 669.12
  L 86.42 669.08
  L 85.58 668.46
  L 83.91 669.26
  L 82.32 670.82
  L 79.08 676.26
  L 78.22 679.55
  L 77.92 683.87
  L 78.74 694.62
  L 80.93 704.05
  L 82.44 707.81
  L 84.50 710.78
  L 86.87 712.86
  L 89.87 714.58
  L 93.96 715.74
  L 99.88 716.28
  L 102.00 716.35
  L 111.74 716.72
  L 115.19 716.91
  Z
  M 111.36 701.75
  L 129.52 699.76
  L 129.93 699.66
  L 130.98 698.81
  L 131.59 697.37
  L 131.51 693.55
  L 131.26 693.18
  L 130.79 693.07
  L 125.40 693.84
  L 119.08 694.60
  L 102.52 694.49
  L 101.50 694.43
  L 96.54 692.61
  L 95.26 691.96
  L 94.54 692.33
  L 94.54 692.47
  L 95.32 695.25
  L 97.58 698.20
  L 101.39 700.46
  L 106.15 701.66
  L 111.36 701.75
  Z"
/>
<path fill="none" stroke-width="1.00" stroke="#000000" d="
  M 268.45 305.62
  L 269.79 298.60
  L 273.04 282.51
  L 273.91 276.31
  L 273.99 268.22
  L 273.95 265.76
  L 274.21 263.86
  L 275.35 261.69
  L 276.05 261.44
  L 276.57 261.97
  L 276.57 261.97
  L 276.50 262.44
  L 276.33 262.76
  L 275.19 266.91
  L 275.33 272.69
  L 275.53 275.58
  L 274.94 282.89
  L 267.91 318.53
  L 266.42 320.68
  L 266.07 320.95
  L 266.12 320.51
  L 267.63 311.67
  L 268.45 305.62
  Z"
/>
<path fill="none" stroke-width="1.00" stroke="#000000" d="
  M 596.23 286.63
  L 596.58 279.41
  L 597.09 278.09
  L 598.29 277.34
  L 604.14 275.92
  L 605.60 276.06
  L 606.66 277.08
  L 611.37 286.34
  L 611.61 287.48
  L 611.25 288.58
  L 610.38 289.35
  L 609.24 289.59
  L 598.34 288.98
  L 596.80 288.24
  L 596.23 286.63
  Z"
/>
<path fill="none" stroke-width="1.00" stroke="#000000" d="
  M 263.22 386.84
  L 268.36 363.52
  L 269.39 358.02
  L 270.02 352.51
  L 275.61 320.07
  L 279.27 295.29
  L 280.72 288.40
  L 283.34 280.61
  L 283.98 280.53
  L 284.05 280.73
  L 283.66 286.49
  L 282.22 293.97
  L 280.60 302.74
  L 275.05 340.23
  L 274.32 344.03
  L 273.08 350.97
  L 272.70 356.24
  L 271.97 361.68
  L 265.05 386.51
  L 263.14 390.09
  L 262.94 390.52
  L 262.88 390.94
  L 262.76 391.62
  L 262.37 392.40
  L 262.31 392.45
  L 262.12 392.29
  L 263.22 386.84
  Z"
/>
<path fill="none" stroke-width="1.00" stroke="#000000" d="
  M 606.83 319.10
  L 609.41 319.86
  L 615.97 321.35
  L 616.35 321.50
  L 616.42 321.90
  L 615.59 326.09
  L 614.32 329.54
  L 612.59 332.26
  L 610.38 334.23
  L 607.82 335.40
  L 604.78 335.90
  L 601.25 335.72
  L 597.19 334.85
  L 596.47 334.31
  L 594.53 329.64
  L 594.59 324.29
  L 594.59 323.80
  L 594.35 323.37
  L 591.36 320.01
  L 591.15 319.22
  L 591.65 318.59
  L 591.65 318.59
  L 591.90 318.51
  L 596.09 318.09
  L 596.09 318.09
  L 601.44 318.22
  L 606.83 319.10
  Z"
/>
<path fill="none" stroke-width="1.00" stroke="#000000" d="
  M 635.57 342.75
  L 626.92 342.05
  L 620.00 340.51
  L 616.79 337.58
  L 616.97 336.88
  L 618.84 333.81
  L 620.64 330.78
  L 620.66 330.70
  L 621.15 326.39
  L 620.56 323.09
  L 621.20 322.28
  L 621.43 322.34
  L 626.78 325.47
  L 627.37 325.88
  L 627.74 326.14
  L 634.66 329.57
  L 637.00 330.54
  L 638.00 330.67
  L 640.74 330.46
  L 643.28 330.64
  L 643.57 330.76
  L 649.23 334.90
  L 649.43 335.10
  L 649.56 335.92
  L 648.97 336.51
  L 646.07 337.69
  L 643.67 338.62
  L 640.39 340.13
  L 639.13 341.27
  L 638.75 341.56
  L 638.28 341.67
  L 635.64 342.67
  L 635.57 342.75
  Z"
/>
<path fill="none" stroke-width="1.00" stroke="#000000" d="
  M 636.71 395.26
  L 635.32 397.40
  L 635.32 397.40
  L 633.31 399.08
  L 630.73 400.24
  L 630.67 400.26
  L 629.56 399.52
  L 629.63 396.37
  L 630.85 393.59
  L 641.24 379.09
  L 652.73 364.99
  L 655.43 361.00
  L 658.80 354.50
  L 663.31 346.90
  L 670.27 336.67
  L 671.99 333.66
  L 672.45 332.83
  L 678.80 323.28
  L 678.94 323.16
  L 679.57 323.52
  L 679.54 325.69
  L 678.82 329.01
  L 676.98 333.54
  L 676.91 333.69
  L 672.51 342.37
  L 667.30 350.33
  L 661.75 359.52
  L 659.16 364.19
  L 653.83 371.52
  L 649.91 376.63
  L 644.92 383.03
  L 638.25 391.99
  L 636.71 395.26
  Z"
/>
<path fill="none" stroke-width="1.00" stroke="#000000" d="
  M 479.08 380.37
  L 480.09 383.36
  L 481.75 385.69
  L 482.18 386.08
  L 488.88 390.58
  L 496.01 393.24
  L 496.01 393.24
  L 504.30 394.06
  L 513.12 392.69
  L 514.29 391.80
  L 515.11 390.15
  L 516.15 384.15
  L 516.17 383.91
  L 517.03 377.14
  L 518.08 372.36
  L 520.47 362.10
  L 522.80 354.52
  L 524.84 350.11
  L 528.02 342.55
  L 528.25 342.18
  L 529.00 342.06
  L 529.45 342.67
  L 529.14 347.59
  L 527.27 354.00
  L 526.36 356.73
  L 524.58 363.83
  L 521.59 376.98
  L 517.98 393.45
  L 517.15 395.07
  L 515.54 395.91
  L 507.08 397.02
  L 499.80 397.06
  L 493.22 395.93
  L 487.65 393.71
  L 482.26 389.95
  L 477.36 384.51
  L 477.02 384.13
  L 476.63 383.83
  L 475.36 383.02
  L 475.26 382.23
  L 475.33 382.17
  L 478.23 380.05
  L 479.04 380.26
  L 479.08 380.37
  Z"
/>
<path fill="none" stroke-width="1.00" stroke="#000000" d="
  M 349.68 352.59
  L 349.30 346.99
  L 349.30 346.91
  L 349.67 346.48
  L 350.20 346.69
  L 352.78 350.65
  L 352.66 351.31
  L 350.46 352.95
  L 349.68 352.59
  Z"
/>
<path fill="none" stroke-width="1.00" stroke="#000000" d="
  M 381.1276 353.8651
  L 377.2481 354.0698
  L 373.3924 353.5949
  L 377.2719 353.3902
  L 381.1276 353.8651
  Z"
/>
<path fill="none" stroke-width="1.00" stroke="#000000" d="
  M 440.27 409.59
  L 437.69 410.38
  L 433.44 412.39
  L 429.50 415.22
  L 427.91 416.22
  L 426.62 416.32
  L 425.38 415.44
  L 424.51 413.75
  L 423.31 407.31
  L 423.16 406.00
  L 419.78 393.19
  L 419.77 392.86
  L 419.96 392.59
  L 420.98 391.24
  L 421.08 389.32
  L 420.95 389.00
  L 420.16 388.53
  L 419.31 388.90
  L 418.63 390.51
  L 418.70 391.20
  L 418.19 391.67
  L 418.01 391.53
  L 411.24 382.25
  L 411.21 381.62
  L 413.89 376.96
  L 414.47 376.60
  L 415.09 376.88
  L 415.21 377.14
  L 416.52 380.35
  L 419.03 383.83
  L 427.62 391.45
  L 428.90 392.45
  L 440.08 399.69
  L 470.99 417.78
  L 476.13 420.42
  L 481.43 422.16
  L 487.78 424.12
  L 497.50 427.88
  L 507.41 430.91
  L 507.51 430.99
  L 507.45 431.23
  L 502.32 433.24
  L 496.76 433.81
  L 495.77 433.77
  L 487.36 432.92
  L 478.63 431.08
  L 469.22 428.22
  L 455.58 423.26
  L 455.00 423.04
  L 446.55 418.71
  L 443.44 416.92
  L 441.51 415.54
  L 440.47 413.97
  L 440.27 412.25
  L 440.78 410.17
  L 440.40 409.58
  L 440.27 409.59
  Z
  M 428.44 410.66
  L 434.07 407.32
  L 438.85 405.65
  L 439.38 405.55
  L 439.67 405.42
  L 439.92 404.83
  L 439.54 404.30
  L 432.16 400.31
  L 427.21 395.92
  L 425.39 394.07
  L 425.02 393.85
  L 425.06 394.28
  L 427.00 402.06
  L 427.86 410.36
  L 428.02 410.78
  L 428.44 410.66
  Z
  M 445.84 409.12
  L 444.19 411.63
  L 444.17 411.67
  L 444.44 412.47
  L 447.32 413.95
  L 451.43 416.77
  L 455.34 419.07
  L 461.38 421.20
  L 465.28 422.50
  L 466.34 422.76
  L 465.51 422.05
  L 448.45 410.80
  L 446.59 409.05
  L 446.20 408.85
  L 445.84 409.12
  Z"
/>
<path fill="none" stroke-width="1.00" stroke="#000000" d="
  M 619.44 490.72
  L 620.03 490.32
  L 620.03 490.24
  L 619.42 472.06
  L 619.44 471.38
  L 620.03 468.76
  L 621.30 466.34
  L 625.96 461.75
  L 633.52 457.75
  L 641.76 455.57
  L 645.41 454.68
  L 650.12 452.76
  L 650.66 452.48
  L 653.31 450.05
  L 658.07 444.12
  L 664.87 434.96
  L 667.93 428.88
  L 669.90 423.49
  L 671.13 417.69
  L 671.42 415.69
  L 672.79 403.08
  L 674.40 384.12
  L 675.48 380.07
  L 676.09 380.02
  L 676.15 380.19
  L 676.23 383.68
  L 676.38 387.58
  L 677.46 399.28
  L 677.55 412.00
  L 676.18 423.32
  L 672.81 433.77
  L 670.21 438.95
  L 667.05 443.88
  L 664.00 448.95
  L 660.79 452.66
  L 655.58 455.97
  L 648.34 458.78
  L 640.58 460.49
  L 632.57 462.24
  L 628.78 464.41
  L 625.66 467.14
  L 623.02 470.54
  L 622.76 471.41
  L 622.94 486.23
  L 623.71 489.73
  L 626.38 492.87
  L 627.47 494.29
  L 627.94 495.88
  L 627.79 497.37
  L 627.00 498.45
  L 625.63 498.84
  L 623.66 498.30
  L 620.69 496.92
  L 613.08 492.97
  L 608.33 488.65
  L 600.85 477.16
  L 598.03 471.28
  L 595.78 465.17
  L 594.29 459.40
  L 593.44 453.52
  L 593.27 447.87
  L 593.80 442.20
  L 594.29 435.76
  L 594.74 431.77
  L 595.91 427.96
  L 597.86 424.06
  L 600.41 420.42
  L 607.91 413.04
  L 617.57 406.67
  L 628.37 402.34
  L 629.17 402.10
  L 638.76 399.81
  L 641.67 399.85
  L 643.82 400.75
  L 643.91 400.85
  L 643.65 401.59
  L 625.03 408.00
  L 620.46 410.01
  L 615.57 412.86
  L 606.90 419.91
  L 603.80 423.46
  L 601.32 427.23
  L 599.74 430.82
  L 598.97 434.49
  L 597.76 448.74
  L 598.22 454.79
  L 600.41 463.19
  L 602.86 469.75
  L 605.92 475.96
  L 605.92 475.96
  L 609.34 481.47
  L 613.29 486.68
  L 617.21 489.86
  L 619.44 490.72
  Z"
/>
<path fill="none" stroke-width="1.00" stroke="#000000" d="
  M 439.38 405.55
  L 438.85 405.65
  L 434.07 407.32
  L 428.44 410.66
  L 428.02 410.78
  L 427.86 410.36
  L 427.00 402.06
  L 425.06 394.28
  L 425.02 393.85
  L 425.39 394.07
  L 427.21 395.92
  L 432.16 400.31
  L 439.54 404.30
  L 439.92 404.83
  L 439.67 405.42
  L 439.67 405.42
  L 439.38 405.55
  Z"
/>
<path fill="none" stroke-width="1.00" stroke="#000000" d="
  M 444.19 411.63
  L 445.84 409.12
  L 446.20 408.85
  L 446.59 409.05
  L 448.45 410.80
  L 465.51 422.05
  L 466.34 422.76
  L 465.28 422.50
  L 461.38 421.20
  L 455.34 419.07
  L 451.43 416.77
  L 447.32 413.95
  L 444.44 412.47
  L 444.17 411.67
  L 444.19 411.63
  Z"
/>
<path fill="none" stroke-width="1.00" stroke="#000000" d="
  M 438.86 434.08
  L 447.29 438.46
  L 454.32 440.38
  L 454.83 440.58
  L 459.12 444.00
  L 459.67 445.52
  L 458.55 446.68
  L 458.55 446.68
  L 457.58 446.61
  L 450.53 444.21
  L 445.06 442.27
  L 439.89 439.59
  L 435.88 436.56
  L 433.37 433.46
  L 433.27 432.98
  L 433.56 432.60
  L 435.52 431.92
  L 437.68 433.16
  L 438.86 434.08
  Z"
/>
<path fill="none" stroke-width="1.00" stroke="#000000" d="
  M 571.65 452.75
  L 571.76 450.49
  L 571.91 450.11
  L 572.29 450.27
  L 572.77 450.84
  L 573.08 452.12
  L 572.91 452.71
  L 572.83 452.80
  L 572.68 452.93
  L 572.07 453.15
  L 571.65 452.78
  L 571.65 452.75
  Z"
/>
<path fill="none" stroke-width="1.00" stroke="#000000" d="
  M 410.9351 476.9697
  L 410.8518 477.3424
  L 410.6323 477.4817
  L 410.2597 477.3984
  L 404.5049 468.3303
  L 404.5882 467.9576
  L 404.8077 467.8183
  L 405.1803 467.9016
  L 410.9351 476.9697
  Z"
/>
<path fill="none" stroke-width="1.00" stroke="#000000" d="
  M 720.00 691.62
  L 720.00 697.74
  L 719.86 697.77
  L 719.71 698.18
  L 719.70 698.30
  L 718.79 698.80
  L 708.25 694.22
  L 700.78 690.85
  L 696.39 688.68
  L 690.50 684.74
  L 688.23 683.22
  L 682.65 681.11
  L 676.76 679.22
  L 667.69 676.46
  L 660.94 675.36
  L 651.11 674.61
  L 650.28 673.71
  L 650.52 671.98
  L 651.27 670.86
  L 651.27 670.86
  L 653.69 670.38
  L 654.05 670.33
  L 653.87 670.02
  L 651.83 668.41
  L 650.37 667.99
  L 642.26 666.01
  L 636.07 663.30
  L 635.98 663.26
  L 635.32 663.71
  L 635.24 664.46
  L 632.82 676.07
  L 631.54 682.96
  L 631.27 692.53
  L 630.99 702.04
  L 629.66 708.71
  L 627.90 712.72
  L 625.49 716.15
  L 625.49 716.15
  L 620.95 720.00
  L 616.95 720.00
  L 615.06 719.12
  L 614.86 718.74
  L 615.15 718.43
  L 619.13 715.82
  L 622.15 712.77
  L 624.72 708.53
  L 626.42 703.23
  L 627.23 696.73
  L 627.31 687.92
  L 627.19 687.51
  L 626.85 687.77
  L 624.38 690.74
  L 621.97 693.19
  L 620.87 694.33
  L 618.71 697.39
  L 616.61 701.76
  L 615.94 703.27
  L 611.93 708.49
  L 606.42 712.97
  L 603.46 714.14
  L 599.74 714.89
  L 590.08 715.00
  L 588.29 714.93
  L 583.10 714.11
  L 576.42 711.83
  L 573.96 710.90
  L 571.99 709.89
  L 570.56 708.49
  L 570.56 708.49
  L 569.64 706.59
  L 569.32 704.27
  L 569.65 695.26
  L 570.78 686.75
  L 570.28 681.99
  L 568.97 675.26
  L 568.39 671.54
  L 568.14 671.09
  L 567.62 671.06
  L 562.29 672.13
  L 557.46 672.39
  L 556.78 672.60
  L 556.55 673.28
  L 556.52 698.00
  L 556.95 703.27
  L 558.37 709.99
  L 558.78 711.74
  L 559.61 714.29
  L 560.70 715.89
  L 564.37 717.81
  L 566.24 718.53
  L 566.37 718.63
  L 566.17 719.17
  L 561.72 720.00
  L 558.64 720.00
  L 556.26 719.37
  L 555.82 719.14
  L 555.52 718.72
  L 553.55 712.30
  L 552.59 704.25
  L 552.62 671.74
  L 552.90 670.02
  L 553.66 668.84
  L 553.66 668.84
  L 556.50 668.09
  L 561.22 667.97
  L 567.72 667.08
  L 568.22 666.49
  L 568.54 651.69
  L 567.98 638.40
  L 567.69 635.01
  L 567.69 633.75
  L 568.74 630.15
  L 568.81 628.99
  L 568.13 628.05
  L 557.54 621.56
  L 550.37 617.87
  L 542.51 613.33
  L 534.85 607.33
  L 527.31 599.75
  L 520.17 590.86
  L 515.92 584.28
  L 510.73 576.23
  L 506.38 570.70
  L 505.07 568.20
  L 500.99 551.76
  L 500.85 551.22
  L 500.22 546.30
  L 500.51 540.22
  L 500.48 540.01
  L 499.69 539.85
  L 497.62 542.12
  L 492.57 547.31
  L 488.05 550.38
  L 483.47 553.28
  L 479.37 556.08
  L 473.89 559.00
  L 470.17 560.92
  L 464.48 563.21
  L 455.15 564.63
  L 444.93 565.12
  L 434.50 564.66
  L 423.57 563.25
  L 417.07 562.26
  L 407.82 560.76
  L 401.02 559.03
  L 393.64 557.14
  L 384.25 554.52
  L 373.81 550.02
  L 366.22 545.86
  L 360.91 542.13
  L 353.71 537.58
  L 341.23 530.03
  L 334.22 524.04
  L 327.51 516.46
  L 324.20 512.19
  L 312.24 496.05
  L 310.93 493.71
  L 310.30 491.29
  L 310.30 491.29
  L 310.27 489.45
  L 310.47 488.89
  L 311.52 488.37
  L 312.49 489.02
  L 315.14 493.25
  L 319.45 498.58
  L 321.79 501.41
  L 323.33 503.41
  L 334.18 516.72
  L 342.71 524.80
  L 349.29 529.09
  L 359.72 534.75
  L 365.15 538.56
  L 371.03 542.69
  L 379.66 546.73
  L 383.30 548.30
  L 395.14 551.97
  L 401.49 553.63
  L 411.15 555.90
  L 416.81 556.82
  L 433.66 559.27
  L 446.64 560.04
  L 453.98 559.71
  L 460.25 558.62
  L 469.64 555.38
  L 477.59 550.82
  L 487.53 543.91
  L 493.06 539.62
  L 495.71 537.63
  L 498.72 535.30
  L 500.38 532.99
  L 500.95 531.10
  L 503.18 521.31
  L 505.94 513.50
  L 508.06 506.33
  L 508.38 503.62
  L 508.97 499.41
  L 509.95 496.38
  L 514.37 488.77
  L 516.80 486.25
  L 519.07 484.90
  L 520.49 485.07
  L 521.12 486.35
  L 520.98 486.94
  L 519.29 490.26
  L 516.05 497.08
  L 514.87 501.98
  L 513.60 510.58
  L 512.12 515.41
  L 509.14 524.13
  L 507.65 531.89
  L 506.96 540.31
  L 507.02 549.90
  L 507.85 561.90
  L 508.90 566.36
  L 510.44 569.08
  L 513.03 572.19
  L 516.32 576.19
  L 518.54 579.40
  L 524.46 587.71
  L 529.39 593.53
  L 541.74 605.33
  L 547.09 609.17
  L 552.41 612.06
  L 559.09 615.37
  L 568.44 620.90
  L 568.88 621.03
  L 569.29 620.79
  L 571.07 618.38
  L 573.44 615.45
  L 575.37 614.50
  L 577.86 614.50
  L 580.88 615.84
  L 583.93 618.38
  L 586.71 621.74
  L 595.88 633.16
  L 596.71 633.82
  L 597.80 634.19
  L 606.52 635.25
  L 611.79 636.55
  L 615.74 637.97
  L 620.62 639.23
  L 623.25 640.13
  L 626.31 641.97
  L 632.81 647.96
  L 633.72 649.13
  L 634.79 651.78
  L 635.23 655.56
  L 635.38 657.50
  L 635.55 657.96
  L 635.90 658.26
  L 644.19 661.76
  L 651.74 663.57
  L 663.63 667.51
  L 671.30 669.55
  L 681.64 672.09
  L 690.81 675.84
  L 701.77 681.84
  L 720.00 691.62
  Z
  M 606.87 647.72
  L 603.67 647.69
  L 603.67 647.69
  L 599.89 646.76
  L 596.22 644.84
  L 593.18 641.26
  L 589.45 635.45
  L 585.43 630.66
  L 582.56 627.00
  L 577.94 621.69
  L 577.78 621.56
  L 576.87 621.33
  L 576.08 621.85
  L 576.02 621.97
  L 575.39 623.23
  L 573.67 627.34
  L 573.71 630.35
  L 573.32 631.11
  L 573.28 631.12
  L 571.20 631.57
  L 570.26 632.82
  L 571.69 663.77
  L 572.14 670.76
  L 574.32 681.38
  L 574.90 682.06
  L 583.73 684.98
  L 592.53 688.04
  L 596.69 689.30
  L 607.24 689.66
  L 617.86 689.28
  L 618.30 689.18
  L 618.71 688.91
  L 624.35 682.05
  L 627.38 675.89
  L 629.19 669.29
  L 629.89 662.13
  L 629.48 654.11
  L 628.67 651.82
  L 626.16 650.06
  L 625.45 649.46
  L 621.89 645.75
  L 617.20 644.20
  L 612.43 642.87
  L 607.07 641.13
  L 601.72 640.25
  L 601.39 640.30
  L 601.61 640.54
  L 607.67 644.61
  L 608.18 645.15
  L 608.23 646.80
  L 606.87 647.72
  Z
  M 590.16 693.18
  L 581.87 690.18
  L 577.12 689.22
  L 575.39 689.69
  L 574.56 691.27
  L 574.56 691.27
  L 574.55 691.43
  L 574.52 704.60
  L 575.57 705.99
  L 579.77 707.37
  L 585.37 709.11
  L 589.67 709.72
  L 593.30 709.73
  L 598.94 709.43
  L 602.57 708.32
  L 606.40 705.54
  L 610.14 701.27
  L 613.49 695.97
  L 613.54 695.85
  L 613.02 695.19
  L 609.01 695.27
  L 597.75 695.06
  L 593.51 694.33
  L 590.16 693.18
  Z"
/>
<path fill="none" stroke-width="1.00" stroke="#000000" d="
  M 720.00 599.70
  L 720.00 604.99
  L 719.27 609.82
  L 719.12 610.17
  L 718.88 609.87
  L 713.02 594.18
  L 707.77 572.72
  L 706.56 567.20
  L 702.70 550.87
  L 699.34 534.61
  L 697.20 519.20
  L 696.28 504.53
  L 696.52 490.26
  L 696.50 489.35
  L 695.40 486.26
  L 695.81 485.39
  L 695.96 485.38
  L 699.15 485.52
  L 699.38 485.58
  L 699.53 486.57
  L 698.47 488.03
  L 698.37 490.87
  L 698.41 491.23
  L 699.31 499.98
  L 701.11 516.18
  L 702.91 527.48
  L 709.91 558.83
  L 712.24 568.76
  L 720.00 599.70
  Z"
/>
<path fill="none" stroke-width="1.00" stroke="#000000" d="
  M 227.77 489.00
  L 226.01 492.50
  L 216.04 513.77
  L 212.38 521.20
  L 207.10 529.11
  L 203.56 536.15
  L 202.11 538.76
  L 199.16 540.88
  L 198.50 541.27
  L 185.79 548.83
  L 183.12 550.30
  L 175.60 555.15
  L 175.44 555.09
  L 175.45 555.03
  L 183.28 542.27
  L 187.36 537.89
  L 190.76 534.44
  L 203.26 520.02
  L 207.22 515.64
  L 215.06 506.21
  L 224.82 492.61
  L 227.57 488.67
  L 227.73 488.55
  L 227.81 488.72
  L 227.81 488.89
  L 227.77 489.00
  Z"
/>
<path fill="none" stroke-width="1.00" stroke="#000000" d="
  M 132.97 603.39
  L 131.75 602.50
  L 129.60 601.92
  L 129.41 601.85
  L 129.48 601.22
  L 137.15 596.72
  L 137.15 596.72
  L 140.74 593.55
  L 143.93 589.87
  L 144.10 589.74
  L 144.74 590.17
  L 144.58 597.60
  L 144.26 607.66
  L 143.28 615.08
  L 140.24 630.05
  L 139.07 635.50
  L 135.67 654.48
  L 133.39 682.76
  L 132.41 685.02
  L 130.22 686.16
  L 122.41 687.46
  L 110.17 688.47
  L 104.07 688.73
  L 99.09 688.59
  L 95.87 687.35
  L 93.69 685.17
  L 91.97 681.74
  L 90.54 676.57
  L 90.36 671.99
  L 90.38 660.80
  L 90.21 651.90
  L 90.84 645.33
  L 92.04 636.69
  L 93.97 624.67
  L 94.10 624.17
  L 96.04 615.54
  L 96.61 611.73
  L 97.95 606.26
  L 100.31 601.27
  L 103.19 598.01
  L 106.26 596.72
  L 107.73 596.76
  L 107.79 596.77
  L 111.94 598.67
  L 116.49 603.36
  L 120.32 607.41
  L 122.09 607.68
  L 122.21 607.63
  L 126.37 606.67
  L 130.53 605.71
  L 132.87 604.45
  L 133.02 603.44
  L 132.97 603.39
  Z
  M 125.0465 661.9836
  L 124.0281 661.0858
  L 105.0057 662.2826
  L 104.1079 663.3010
  L 104.2535 665.6164
  L 105.2719 666.5142
  L 124.2943 665.3174
  L 125.1921 664.2990
  L 125.0465 661.9836
  Z"
/>
<path fill="none" stroke-width="1.00" stroke="#000000" d="
  M 606.87 647.72
  L 608.23 646.80
  L 608.18 645.15
  L 607.67 644.61
  L 601.61 640.54
  L 601.39 640.30
  L 601.72 640.25
  L 607.07 641.13
  L 612.43 642.87
  L 617.20 644.20
  L 621.89 645.75
  L 625.45 649.46
  L 626.16 650.06
  L 628.67 651.82
  L 629.48 654.11
  L 629.89 662.13
  L 629.19 669.29
  L 627.38 675.89
  L 624.35 682.05
  L 618.71 688.91
  L 618.30 689.18
  L 617.86 689.28
  L 607.24 689.66
  L 596.69 689.30
  L 592.53 688.04
  L 583.73 684.98
  L 574.90 682.06
  L 574.32 681.38
  L 572.14 670.76
  L 571.69 663.77
  L 570.26 632.82
  L 571.20 631.57
  L 573.28 631.12
  L 573.32 631.11
  L 573.71 630.35
  L 573.67 627.34
  L 575.39 623.23
  L 576.02 621.97
  L 576.08 621.85
  L 576.87 621.33
  L 577.78 621.56
  L 577.94 621.69
  L 582.56 627.00
  L 585.43 630.66
  L 589.45 635.45
  L 593.18 641.26
  L 596.22 644.84
  L 599.89 646.76
  L 603.67 647.69
  L 603.67 647.69
  L 606.87 647.72
  Z"
/>
<path fill="none" stroke-width="1.00" stroke="#000000" d="
  M 86.10 720.00
  L 0.00 720.00
  L 0.00 663.35
  L 0.78 665.62
  L 1.50 665.95
  L 1.52 665.94
  L 16.85 657.62
  L 24.18 654.41
  L 34.66 652.35
  L 36.47 652.08
  L 36.64 652.05
  L 41.10 650.45
  L 48.33 647.10
  L 58.01 643.97
  L 64.84 641.87
  L 69.55 639.28
  L 74.70 636.48
  L 78.44 634.55
  L 87.70 629.08
  L 88.12 629.00
  L 88.24 629.42
  L 86.98 644.07
  L 86.46 655.94
  L 86.35 661.89
  L 85.75 662.56
  L 81.51 663.61
  L 78.65 665.34
  L 75.46 669.19
  L 72.75 674.16
  L 71.62 677.67
  L 71.18 681.54
  L 71.38 689.46
  L 72.32 697.01
  L 74.01 704.18
  L 76.46 710.99
  L 77.70 713.32
  L 77.70 713.32
  L 81.18 717.13
  L 86.10 720.00
  Z"
/>
<path fill="none" stroke-width="1.00" stroke="#000000" d="
  M 125.1921 664.2990
  L 124.2943 665.3174
  L 105.2719 666.5142
  L 104.2535 665.6164
  L 104.1079 663.3010
  L 105.0057 662.2826
  L 124.0281 661.0858
  L 125.0465 661.9836
  L 125.1921 664.2990
  Z"
/>
<path fill="none" stroke-width="1.00" stroke="#000000" d="
  M 115.19 716.91
  L 111.74 716.72
  L 102.00 716.35
  L 99.88 716.28
  L 93.96 715.74
  L 89.87 714.58
  L 86.87 712.86
  L 84.50 710.78
  L 82.44 707.81
  L 80.93 704.05
  L 78.74 694.62
  L 77.92 683.87
  L 78.22 679.55
  L 79.08 676.26
  L 82.34 670.81
  L 83.91 669.25
  L 85.58 668.46
  L 86.42 669.08
  L 86.42 669.12
  L 87.04 680.74
  L 87.20 681.12
  L 90.25 685.77
  L 90.36 686.04
  L 91.19 692.12
  L 91.40 695.72
  L 92.24 698.31
  L 94.90 701.32
  L 98.76 703.70
  L 102.85 705.21
  L 108.23 705.87
  L 121.15 705.34
  L 133.26 703.75
  L 133.37 703.73
  L 134.86 702.55
  L 135.84 700.26
  L 136.83 692.08
  L 137.41 689.50
  L 139.52 687.30
  L 139.83 686.94
  L 139.91 686.47
  L 139.94 675.94
  L 141.27 664.51
  L 142.19 662.80
  L 143.18 662.52
  L 145.99 662.83
  L 148.16 663.94
  L 148.16 663.94
  L 149.52 665.56
  L 150.38 667.78
  L 152.05 675.94
  L 153.11 684.16
  L 153.11 684.16
  L 153.55 696.09
  L 153.01 701.81
  L 151.62 706.12
  L 149.07 710.01
  L 145.92 713.18
  L 142.43 715.29
  L 139.24 715.97
  L 129.62 716.49
  L 115.19 716.91
  Z"
/>
<path fill="none" stroke-width="1.00" stroke="#000000" d="
  M 720.00 697.74
  L 720.00 720.00
  L 620.95 720.00
  L 625.49 716.15
  L 627.90 712.72
  L 629.66 708.71
  L 630.99 702.04
  L 631.27 692.53
  L 631.54 682.96
  L 632.82 676.07
  L 635.24 664.46
  L 635.32 663.71
  L 635.98 663.26
  L 636.07 663.30
  L 642.26 666.01
  L 650.37 667.99
  L 651.83 668.41
  L 653.87 670.02
  L 654.05 670.33
  L 653.69 670.38
  L 651.27 670.86
  L 651.27 670.86
  L 650.52 671.98
  L 650.28 673.71
  L 651.11 674.61
  L 660.94 675.36
  L 667.69 676.46
  L 676.76 679.22
  L 682.65 681.11
  L 688.23 683.22
  L 690.50 684.74
  L 696.39 688.68
  L 700.78 690.85
  L 708.25 694.22
  L 718.79 698.80
  L 719.70 698.30
  L 719.71 698.18
  L 719.86 697.77
  L 720.00 697.74
  Z"
/>
<path fill="none" stroke-width="1.00" stroke="#000000" d="
  M 616.95 720.00
  L 561.72 720.00
  L 566.17 719.17
  L 566.37 718.63
  L 566.24 718.53
  L 564.37 717.81
  L 560.70 715.89
  L 559.61 714.29
  L 558.78 711.74
  L 558.37 709.99
  L 556.95 703.27
  L 556.52 698.00
  L 556.55 673.28
  L 556.78 672.60
  L 557.46 672.39
  L 562.29 672.13
  L 567.62 671.06
  L 568.14 671.09
  L 568.39 671.54
  L 568.97 675.26
  L 570.28 681.99
  L 570.78 686.75
  L 569.65 695.26
  L 569.32 704.27
  L 569.64 706.59
  L 570.56 708.49
  L 570.56 708.49
  L 571.99 709.89
  L 573.96 710.90
  L 576.42 711.83
  L 583.10 714.11
  L 588.29 714.93
  L 590.08 715.00
  L 599.74 714.89
  L 603.46 714.14
  L 606.42 712.97
  L 611.93 708.49
  L 615.94 703.27
  L 616.61 701.76
  L 618.71 697.39
  L 620.87 694.33
  L 621.97 693.19
  L 624.38 690.74
  L 626.85 687.77
  L 627.19 687.51
  L 627.31 687.92
  L 627.23 696.73
  L 626.42 703.23
  L 624.72 708.53
  L 622.15 712.77
  L 619.13 715.82
  L 615.15 718.43
  L 614.86 718.74
  L 615.06 719.12
  L 616.95 720.00
  Z"
/>
<path fill="none" stroke-width="1.00" stroke="#000000" d="
  M 590.16 693.18
  L 593.51 694.33
  L 597.75 695.06
  L 609.01 695.27
  L 613.02 695.19
  L 613.54 695.85
  L 613.49 695.97
  L 610.14 701.27
  L 606.40 705.54
  L 602.57 708.32
  L 598.94 709.43
  L 593.30 709.73
  L 589.67 709.72
  L 585.37 709.11
  L 579.77 707.37
  L 575.57 705.99
  L 574.52 704.60
  L 574.55 691.43
  L 574.56 691.27
  L 575.39 689.69
  L 577.12 689.22
  L 581.87 690.18
  L 590.16 693.18
  Z"
/>
<path fill="none" stroke-width="1.00" stroke="#000000" d="
  M 111.36 701.75
  L 106.15 701.66
  L 101.39 700.46
  L 97.58 698.20
  L 95.32 695.25
  L 94.54 692.47
  L 94.54 692.33
  L 95.26 691.96
  L 96.54 692.61
  L 101.50 694.43
  L 102.52 694.49
  L 119.08 694.60
  L 125.40 693.84
  L 130.79 693.07
  L 131.26 693.18
  L 131.51 693.55
  L 131.59 697.37
  L 130.98 698.81
  L 129.93 699.66
  L 129.52 699.76
  L 111.36 701.75
  Z"
/>
<path fill="none" stroke-width="1.00" stroke="#000000" d="
  M 395.65 720.00
  L 388.88 720.00
  L 383.98 719.24
  L 382.91 718.48
  L 384.05 717.82
  L 394.78 715.26
  L 399.48 713.95
  L 404.44 711.80
  L 414.67 705.14
  L 422.09 700.42
  L 425.10 699.34
  L 426.11 699.57
  L 426.47 700.55
  L 426.30 700.98
  L 423.64 704.42
  L 420.56 707.34
  L 420.56 707.34
  L 419.72 707.99
  L 411.05 713.92
  L 402.54 718.78
  L 395.65 720.00
  Z"
/>
</svg>
