<?xml version="1.0" encoding="UTF-8" standalone="no"?>
<!DOCTYPE svg PUBLIC "-//W3C//DTD SVG 1.1//EN" "http://www.w3.org/Graphics/SVG/1.1/DTD/svg11.dtd">
<svg xmlns="http://www.w3.org/2000/svg" version="1.1" viewBox="0.00 0.00 720.00 720.00">
<path fill="none" stroke-width="1.00" stroke="#000000" d="
  M 0.00 0.00
  L 386.62 0.00
  L 381.97 1.34
  L 378.26 3.44
  L 374.18 6.83
  L 366.92 12.94
  L 359.37 19.33
  L 351.56 28.59
  L 347.64 33.64
  L 343.79 39.25
  L 340.91 43.60
  L 339.33 47.19
  L 337.68 51.68
  L 334.29 56.33
  L 334.27 56.35
  L 333.97 57.19
  L 334.36 58.00
  L 335.18 58.39
  L 336.70 57.71
  L 344.89 49.01
  L 350.44 41.68
  L 357.48 32.46
  L 366.67 22.18
  L 371.46 17.66
  L 375.37 15.10
  L 395.45 5.63
  L 400.62 3.54
  L 407.27 1.74
  L 407.56 0.81
  L 407.33 0.65
  L 404.14 0.25
  L 399.01 0.71
  L 397.15 0.93
  L 396.70 0.97
  L 388.66 0.20
  L 387.62 0.00
  L 685.30 0.00
  L 684.49 0.63
  L 684.49 0.63
  L 684.65 1.55
  L 685.68 2.80
  L 687.20 4.82
  L 691.47 13.41
  L 695.67 20.02
  L 695.92 20.37
  L 705.09 34.99
  L 710.59 44.25
  L 716.09 54.09
  L 718.44 60.29
  L 719.44 60.50
  L 719.58 60.22
  L 720.00 58.04
  L 720.00 581.07
  L 717.01 571.25
  L 711.25 551.46
  L 706.81 531.10
  L 703.68 510.19
  L 701.87 488.72
  L 701.17 487.01
  L 700.74 486.79
  L 700.36 486.80
  L 700.20 487.14
  L 699.61 503.45
  L 700.59 518.49
  L 705.21 546.77
  L 708.24 559.98
  L 711.73 572.46
  L 714.64 580.53
  L 718.70 592.30
  L 718.99 592.92
  L 719.20 592.27
  L 720.00 586.24
  L 720.00 694.11
  L 719.60 693.02
  L 719.35 692.61
  L 718.95 692.38
  L 709.05 688.14
  L 703.25 685.48
  L 695.17 681.37
  L 689.90 678.78
  L 684.25 676.75
  L 678.22 675.26
  L 671.81 674.33
  L 670.39 674.09
  L 666.51 672.32
  L 665.14 671.55
  L 655.85 667.85
  L 642.06 664.50
  L 641.20 664.32
  L 636.44 662.70
  L 632.62 661.31
  L 631.67 660.70
  L 631.21 659.67
  L 629.96 655.07
  L 627.62 651.31
  L 624.04 648.31
  L 619.44 646.40
  L 607.17 642.38
  L 599.86 639.84
  L 594.45 637.04
  L 590.40 633.33
  L 581.49 618.98
  L 580.20 617.21
  L 578.63 616.02
  L 576.98 615.54
  L 572.19 615.59
  L 568.43 617.12
  L 568.43 617.12
  L 566.08 619.54
  L 564.45 622.99
  L 564.35 623.30
  L 564.04 626.20
  L 565.06 627.23
  L 567.05 629.39
  L 567.23 630.24
  L 568.03 644.73
  L 569.73 668.14
  L 569.66 668.45
  L 569.36 668.48
  L 564.04 667.86
  L 558.78 668.37
  L 558.46 668.45
  L 556.57 669.67
  L 555.23 671.75
  L 554.22 674.90
  L 553.79 678.43
  L 553.46 697.67
  L 554.70 710.66
  L 555.17 713.87
  L 556.16 717.20
  L 557.82 719.12
  L 560.38 720.00
  L 128.70 720.00
  L 132.31 718.99
  L 132.31 718.99
  L 136.16 717.12
  L 139.72 714.49
  L 140.62 714.10
  L 145.11 714.68
  L 148.88 715.20
  L 152.38 714.30
  L 156.16 711.50
  L 156.42 711.09
  L 156.50 710.63
  L 156.29 671.50
  L 155.72 667.97
  L 154.33 665.74
  L 151.24 664.20
  L 145.89 663.82
  L 143.68 663.78
  L 143.14 663.57
  L 143.06 663.24
  L 147.02 606.87
  L 147.83 606.13
  L 158.21 605.85
  L 171.24 603.99
  L 183.36 600.61
  L 198.04 594.98
  L 207.26 591.70
  L 216.17 588.16
  L 227.28 582.03
  L 232.64 578.93
  L 241.46 572.96
  L 242.46 572.14
  L 251.66 564.27
  L 257.95 557.50
  L 271.54 539.99
  L 282.24 525.09
  L 291.32 511.06
  L 298.95 497.53
  L 301.55 494.31
  L 302.99 492.69
  L 304.94 488.97
  L 305.22 488.61
  L 305.64 488.81
  L 308.78 492.52
  L 312.42 497.96
  L 314.65 501.36
  L 323.06 512.51
  L 331.37 522.49
  L 336.29 527.61
  L 341.53 532.07
  L 344.14 534.12
  L 354.65 541.83
  L 362.84 545.85
  L 388.43 554.38
  L 399.17 557.79
  L 407.61 559.90
  L 421.78 562.09
  L 440.48 563.01
  L 453.42 562.47
  L 462.51 560.54
  L 468.96 557.68
  L 479.83 553.53
  L 491.58 549.06
  L 495.42 546.53
  L 498.02 543.76
  L 498.54 542.27
  L 497.39 541.35
  L 495.93 541.51
  L 491.75 543.54
  L 483.46 546.34
  L 471.23 550.34
  L 461.87 554.85
  L 455.57 556.59
  L 437.47 557.39
  L 421.88 556.70
  L 406.49 554.05
  L 403.57 553.43
  L 392.20 550.66
  L 376.47 546.05
  L 366.55 543.08
  L 361.29 541.26
  L 356.79 539.08
  L 344.98 531.18
  L 336.08 523.42
  L 330.23 517.09
  L 322.34 507.43
  L 318.30 502.41
  L 314.32 497.18
  L 306.66 487.54
  L 306.31 486.88
  L 306.39 486.13
  L 316.57 458.51
  L 317.56 454.93
  L 318.86 450.44
  L 320.89 447.32
  L 322.95 443.90
  L 331.22 408.51
  L 335.12 393.24
  L 337.35 381.74
  L 337.91 373.98
  L 337.55 371.64
  L 336.72 370.24
  L 336.42 370.14
  L 336.28 370.42
  L 334.70 383.00
  L 334.51 383.38
  L 333.85 383.50
  L 333.45 382.96
  L 333.59 377.92
  L 334.65 372.79
  L 336.21 366.01
  L 337.84 350.48
  L 337.25 349.78
  L 337.25 349.78
  L 336.81 349.85
  L 336.59 349.99
  L 336.33 350.56
  L 335.80 353.98
  L 334.27 362.43
  L 328.67 386.88
  L 327.55 390.72
  L 326.24 395.27
  L 326.54 396.21
  L 327.96 398.72
  L 327.93 399.49
  L 325.43 412.03
  L 322.02 424.57
  L 317.69 437.11
  L 312.46 449.65
  L 311.15 454.00
  L 310.47 456.63
  L 310.74 457.43
  L 311.75 458.16
  L 312.45 459.07
  L 312.37 460.21
  L 308.16 471.09
  L 304.42 479.19
  L 296.94 492.90
  L 288.63 506.72
  L 285.64 512.26
  L 280.92 520.44
  L 274.62 528.48
  L 266.15 539.39
  L 260.29 547.88
  L 260.24 547.96
  L 254.31 555.98
  L 244.74 566.28
  L 242.54 568.55
  L 237.88 572.17
  L 230.87 575.58
  L 225.81 577.92
  L 223.37 579.22
  L 209.60 585.92
  L 204.17 587.70
  L 199.01 588.71
  L 195.66 589.02
  L 193.00 589.40
  L 191.03 590.04
  L 176.57 594.59
  L 168.07 597.48
  L 158.22 602.09
  L 155.22 603.39
  L 152.40 603.99
  L 147.46 603.49
  L 146.81 602.79
  L 145.03 597.76
  L 143.61 595.91
  L 141.95 594.69
  L 138.13 593.88
  L 133.28 594.99
  L 127.71 598.00
  L 122.09 602.42
  L 120.14 603.72
  L 117.74 604.10
  L 108.84 602.28
  L 100.01 602.50
  L 97.20 603.20
  L 94.89 604.42
  L 92.29 607.03
  L 90.56 610.33
  L 89.51 614.49
  L 89.19 619.42
  L 89.08 619.85
  L 88.73 620.14
  L 84.70 622.31
  L 80.91 624.37
  L 77.94 625.35
  L 72.56 626.74
  L 67.50 628.80
  L 61.09 632.74
  L 54.30 637.44
  L 46.24 641.56
  L 40.64 644.06
  L 26.77 650.19
  L 22.98 651.92
  L 12.65 656.17
  L 7.83 657.27
  L 4.54 657.22
  L 1.20 656.53
  L 0.73 656.55
  L 0.50 656.96
  L 0.00 659.49
  L 0.00 0.00
  Z
  M 252.66 223.29
  L 253.61 222.62
  L 256.70 221.62
  L 261.18 221.63
  L 265.41 221.68
  L 266.00 221.16
  L 267.45 218.79
  L 268.88 218.24
  L 270.73 218.31
  L 271.35 218.11
  L 271.55 217.73
  L 271.70 216.81
  L 271.63 216.29
  L 271.18 216.00
  L 264.15 214.79
  L 258.44 215.33
  L 256.54 215.61
  L 255.04 215.23
  L 249.58 212.54
  L 241.19 208.15
  L 235.67 203.64
  L 229.88 194.50
  L 225.84 187.82
  L 220.14 180.13
  L 215.43 173.80
  L 211.00 166.64
  L 201.22 146.79
  L 196.03 135.72
  L 185.79 115.66
  L 185.14 115.24
  L 184.13 115.52
  L 184.37 116.65
  L 186.50 122.12
  L 186.46 122.42
  L 185.63 122.39
  L 180.14 109.84
  L 180.47 109.37
  L 180.63 109.43
  L 180.69 109.47
  L 186.94 113.05
  L 193.75 115.79
  L 208.95 120.65
  L 213.71 122.34
  L 220.51 124.70
  L 225.25 125.76
  L 244.51 126.58
  L 248.99 125.69
  L 254.38 122.64
  L 258.00 120.45
  L 258.66 120.31
  L 259.65 120.74
  L 259.73 120.78
  L 260.15 120.50
  L 260.19 119.95
  L 260.30 119.53
  L 260.60 119.18
  L 265.04 116.38
  L 270.60 114.13
  L 271.44 113.54
  L 271.48 113.44
  L 271.53 113.25
  L 270.66 112.39
  L 264.59 113.53
  L 256.67 116.15
  L 253.28 116.94
  L 248.68 116.82
  L 246.56 116.67
  L 245.07 116.43
  L 242.74 115.25
  L 240.60 112.88
  L 239.26 110.95
  L 233.76 104.78
  L 227.03 99.53
  L 226.69 98.82
  L 227.17 98.19
  L 227.64 98.17
  L 234.56 99.69
  L 245.72 100.48
  L 253.92 99.68
  L 262.92 97.59
  L 273.07 94.12
  L 284.30 89.28
  L 288.30 87.02
  L 294.34 83.98
  L 302.13 80.82
  L 311.12 75.08
  L 314.26 72.58
  L 324.92 63.86
  L 325.49 63.14
  L 325.52 62.29
  L 324.60 61.87
  L 323.92 62.11
  L 317.05 67.97
  L 309.70 73.04
  L 309.70 73.04
  L 302.74 76.89
  L 294.58 79.98
  L 284.78 84.78
  L 278.67 87.97
  L 269.63 91.53
  L 257.58 95.25
  L 249.11 96.23
  L 238.47 95.09
  L 234.66 94.78
  L 229.54 94.24
  L 224.25 91.65
  L 220.23 89.42
  L 219.44 89.53
  L 219.16 90.27
  L 219.35 90.66
  L 221.60 94.45
  L 221.93 95.70
  L 223.91 101.07
  L 227.16 105.00
  L 233.31 110.41
  L 238.66 116.39
  L 242.06 119.40
  L 247.08 120.82
  L 247.40 120.96
  L 247.33 121.30
  L 246.94 121.70
  L 246.23 121.80
  L 231.24 120.39
  L 223.96 119.41
  L 214.80 116.67
  L 209.33 114.91
  L 202.97 112.95
  L 190.78 109.50
  L 189.62 109.21
  L 185.23 107.53
  L 179.97 104.53
  L 178.20 103.45
  L 177.80 103.11
  L 177.53 102.69
  L 176.68 98.35
  L 177.94 94.27
  L 177.99 93.98
  L 177.22 93.77
  L 176.25 95.14
  L 175.24 97.87
  L 175.05 100.81
  L 175.56 104.13
  L 176.84 107.95
  L 178.47 111.94
  L 182.76 122.05
  L 186.65 129.80
  L 190.51 136.23
  L 193.38 141.82
  L 197.56 151.75
  L 201.75 160.87
  L 208.32 173.19
  L 215.91 183.54
  L 222.06 191.62
  L 227.34 200.92
  L 228.29 202.61
  L 231.78 207.18
  L 236.52 211.26
  L 242.62 214.87
  L 250.29 218.15
  L 250.57 219.22
  L 250.40 219.37
  L 244.56 223.41
  L 240.07 227.75
  L 235.45 234.52
  L 234.75 235.81
  L 230.82 244.12
  L 229.91 247.60
  L 229.72 250.50
  L 230.35 251.17
  L 233.29 250.70
  L 234.88 249.22
  L 236.32 246.42
  L 237.76 243.56
  L 239.36 241.84
  L 246.70 236.20
  L 247.22 235.94
  L 247.12 236.51
  L 244.66 240.32
  L 243.22 242.32
  L 237.43 253.38
  L 233.18 263.44
  L 230.72 272.49
  L 229.94 281.49
  L 230.12 282.13
  L 231.22 282.74
  L 232.30 282.08
  L 235.37 277.24
  L 239.01 272.96
  L 239.01 272.96
  L 240.04 271.95
  L 244.67 268.35
  L 250.59 265.12
  L 260.41 261.25
  L 260.41 261.25
  L 268.89 258.91
  L 277.64 257.39
  L 281.74 256.45
  L 282.27 256.10
  L 282.56 254.85
  L 281.63 253.97
  L 275.90 252.89
  L 270.94 252.90
  L 268.49 253.32
  L 257.41 256.56
  L 245.83 261.53
  L 241.96 263.99
  L 238.41 267.51
  L 235.02 272.42
  L 234.66 272.80
  L 234.60 272.28
  L 236.15 266.68
  L 242.07 254.84
  L 245.60 248.03
  L 250.82 239.75
  L 253.29 235.96
  L 256.89 231.82
  L 260.58 227.60
  L 261.71 224.46
  L 261.58 224.03
  L 261.21 223.80
  L 256.31 223.12
  L 252.75 223.48
  L 252.52 223.47
  L 252.66 223.29
  Z
  M 553.17 408.39
  L 553.97 396.21
  L 553.65 384.82
  L 552.22 374.90
  L 549.67 366.25
  L 542.02 347.73
  L 520.02 307.35
  L 516.20 299.86
  L 513.58 292.97
  L 509.00 275.06
  L 505.93 256.15
  L 505.57 244.59
  L 505.54 238.17
  L 505.61 228.86
  L 506.46 221.90
  L 510.02 212.20
  L 512.79 205.27
  L 518.91 186.92
  L 523.58 175.28
  L 524.78 172.38
  L 527.77 165.60
  L 530.66 160.90
  L 537.44 153.17
  L 545.45 146.25
  L 552.83 139.96
  L 568.43 124.75
  L 568.71 124.29
  L 568.64 123.74
  L 567.49 120.99
  L 567.12 120.57
  L 566.63 120.83
  L 562.02 125.08
  L 558.12 127.78
  L 553.12 131.53
  L 546.73 137.77
  L 539.52 144.37
  L 534.05 149.85
  L 529.37 155.86
  L 523.97 165.51
  L 516.99 182.38
  L 510.66 200.40
  L 504.93 214.83
  L 502.88 219.55
  L 502.56 219.91
  L 502.21 219.58
  L 500.64 216.46
  L 495.27 207.23
  L 492.50 204.48
  L 489.76 203.02
  L 483.13 200.28
  L 479.35 198.18
  L 478.98 197.24
  L 481.09 187.96
  L 482.81 180.10
  L 484.79 173.78
  L 485.12 172.92
  L 487.22 165.85
  L 489.27 160.25
  L 493.31 153.16
  L 497.28 146.19
  L 501.39 139.28
  L 506.72 131.21
  L 510.99 123.45
  L 511.48 122.92
  L 512.95 121.47
  L 512.85 120.76
  L 512.17 120.54
  L 511.80 120.77
  L 507.60 126.26
  L 502.70 131.92
  L 497.62 137.79
  L 493.50 145.05
  L 489.85 151.41
  L 485.76 158.72
  L 483.59 164.99
  L 483.35 166.16
  L 481.16 173.51
  L 479.06 180.35
  L 475.84 194.72
  L 474.16 197.77
  L 473.11 198.52
  L 472.06 199.72
  L 472.06 201.32
  L 473.35 206.30
  L 473.47 211.18
  L 473.47 211.18
  L 472.67 215.18
  L 471.05 219.10
  L 467.68 225.56
  L 465.39 232.36
  L 463.90 239.17
  L 463.15 246.19
  L 463.02 246.50
  L 462.70 246.40
  L 460.20 244.05
  L 458.87 241.54
  L 457.98 238.27
  L 455.41 229.91
  L 452.95 222.06
  L 451.37 211.06
  L 451.36 195.58
  L 453.38 177.85
  L 455.07 165.31
  L 456.06 158.89
  L 457.85 151.88
  L 464.52 133.84
  L 468.52 125.58
  L 474.89 114.97
  L 476.92 111.71
  L 482.84 103.37
  L 489.19 94.40
  L 489.28 94.04
  L 489.01 93.77
  L 487.68 93.51
  L 486.16 94.46
  L 483.53 97.37
  L 477.94 103.74
  L 474.14 108.90
  L 462.84 127.34
  L 459.11 136.10
  L 454.14 149.80
  L 451.41 160.51
  L 449.44 175.87
  L 449.10 179.11
  L 448.69 181.25
  L 447.72 183.23
  L 445.34 185.77
  L 443.11 189.30
  L 439.03 198.22
  L 436.19 207.44
  L 436.19 207.44
  L 436.19 207.44
  L 434.73 215.74
  L 434.23 224.27
  L 434.18 224.43
  L 433.68 224.36
  L 430.51 214.27
  L 428.23 204.17
  L 426.84 194.07
  L 426.34 183.97
  L 426.34 183.97
  L 426.34 183.97
  L 427.14 169.77
  L 429.70 155.57
  L 433.59 143.94
  L 440.53 129.85
  L 446.50 121.05
  L 455.17 107.89
  L 454.93 107.45
  L 454.80 107.48
  L 451.54 110.27
  L 450.67 111.24
  L 443.27 119.46
  L 438.18 126.73
  L 437.19 128.47
  L 434.73 132.84
  L 430.81 139.98
  L 428.46 145.42
  L 425.51 155.06
  L 422.79 168.97
  L 421.88 172.03
  L 421.26 173.13
  L 415.27 182.24
  L 409.74 192.63
  L 404.12 208.15
  L 403.78 209.19
  L 398.23 226.87
  L 396.57 234.92
  L 395.59 248.97
  L 396.25 256.88
  L 398.00 264.46
  L 401.22 273.55
  L 409.83 294.66
  L 414.93 308.35
  L 418.88 319.24
  L 418.89 319.39
  L 418.77 319.49
  L 418.51 319.52
  L 418.21 319.25
  L 412.11 310.85
  L 408.87 307.76
  L 405.14 305.12
  L 405.01 305.05
  L 397.65 299.33
  L 392.56 295.13
  L 386.23 290.19
  L 380.84 285.06
  L 376.83 280.19
  L 374.15 275.58
  L 369.98 265.14
  L 367.32 256.52
  L 366.08 249.86
  L 365.42 240.75
  L 365.29 238.17
  L 364.19 224.35
  L 363.66 214.34
  L 363.84 204.43
  L 364.70 194.88
  L 366.29 185.39
  L 369.75 172.25
  L 373.93 160.13
  L 382.70 138.96
  L 386.06 132.82
  L 388.87 128.87
  L 388.93 128.73
  L 388.87 128.59
  L 388.64 128.35
  L 388.63 128.34
  L 388.12 128.34
  L 384.07 133.28
  L 380.02 139.73
  L 372.00 154.67
  L 366.48 166.66
  L 362.47 177.84
  L 359.92 188.53
  L 357.90 206.28
  L 358.20 223.00
  L 359.66 242.97
  L 361.07 255.27
  L 363.91 266.10
  L 368.55 277.89
  L 372.32 287.83
  L 375.91 297.42
  L 380.14 306.22
  L 384.59 315.56
  L 387.55 321.96
  L 393.39 334.75
  L 396.23 343.97
  L 396.24 344.02
  L 397.05 352.49
  L 396.28 358.94
  L 394.22 365.65
  L 390.76 372.87
  L 385.57 381.31
  L 385.27 381.55
  L 385.00 381.27
  L 381.20 374.45
  L 376.57 368.36
  L 376.57 368.36
  L 371.29 363.18
  L 365.23 358.69
  L 364.99 358.40
  L 365.30 358.17
  L 373.41 356.11
  L 384.32 354.59
  L 390.38 353.85
  L 391.56 353.30
  L 391.97 351.55
  L 391.57 350.59
  L 390.61 350.17
  L 387.05 349.88
  L 381.49 349.26
  L 368.72 347.61
  L 356.29 347.84
  L 353.94 347.62
  L 352.22 346.53
  L 345.97 340.21
  L 341.16 333.98
  L 337.45 327.48
  L 334.83 320.53
  L 333.26 311.79
  L 333.37 302.25
  L 336.57 275.96
  L 336.50 275.43
  L 335.98 275.60
  L 334.70 277.70
  L 331.21 291.26
  L 329.23 303.06
  L 329.08 313.97
  L 331.17 324.13
  L 331.17 324.13
  L 335.08 332.83
  L 340.89 340.90
  L 348.07 348.59
  L 348.29 349.04
  L 347.98 349.45
  L 344.33 352.87
  L 341.89 358.10
  L 342.11 359.02
  L 342.99 359.37
  L 343.34 359.26
  L 345.27 358.46
  L 347.75 357.91
  L 348.31 357.99
  L 348.07 358.51
  L 346.51 360.72
  L 345.77 362.75
  L 345.67 365.07
  L 346.28 368.16
  L 347.07 372.60
  L 348.73 385.50
  L 350.25 390.40
  L 352.25 394.30
  L 354.71 399.06
  L 356.28 403.17
  L 364.74 423.43
  L 368.59 430.57
  L 372.58 436.51
  L 378.82 444.95
  L 392.88 464.63
  L 397.54 469.62
  L 403.78 475.05
  L 406.91 478.71
  L 412.10 485.50
  L 418.38 490.41
  L 420.80 491.67
  L 428.18 495.37
  L 433.64 498.77
  L 434.08 499.00
  L 434.55 499.10
  L 436.44 499.70
  L 437.75 501.24
  L 438.64 502.17
  L 439.89 502.42
  L 450.35 501.30
  L 455.31 500.44
  L 461.73 498.62
  L 466.83 497.12
  L 477.17 493.97
  L 487.51 490.81
  L 497.80 487.55
  L 507.77 483.37
  L 519.84 479.01
  L 520.53 479.14
  L 520.82 479.78
  L 520.76 480.04
  L 519.59 481.86
  L 514.01 489.53
  L 509.90 497.02
  L 507.36 504.17
  L 506.29 511.06
  L 505.41 515.79
  L 504.05 520.50
  L 502.63 539.62
  L 502.57 561.95
  L 503.31 565.75
  L 503.67 567.03
  L 503.28 567.84
  L 501.84 569.22
  L 501.82 570.50
  L 502.54 571.91
  L 506.71 578.27
  L 510.23 585.06
  L 513.55 590.39
  L 523.73 601.64
  L 532.03 608.92
  L 533.26 609.83
  L 537.98 612.69
  L 544.76 615.85
  L 547.91 617.24
  L 555.02 621.71
  L 558.15 623.09
  L 561.70 621.68
  L 562.46 620.71
  L 561.88 619.62
  L 553.69 613.17
  L 544.51 607.73
  L 536.28 602.82
  L 531.04 598.32
  L 525.06 592.12
  L 519.89 586.72
  L 516.46 582.46
  L 508.97 570.64
  L 507.51 567.48
  L 507.31 566.50
  L 507.04 564.51
  L 506.32 551.21
  L 507.37 533.99
  L 508.16 524.00
  L 509.14 521.65
  L 509.69 521.33
  L 510.77 519.98
  L 513.61 506.49
  L 513.75 505.99
  L 515.56 500.34
  L 517.62 496.86
  L 520.72 494.20
  L 521.38 493.47
  L 522.39 490.62
  L 523.72 485.65
  L 525.81 481.10
  L 525.81 481.10
  L 528.48 477.22
  L 531.80 475.38
  L 538.47 473.74
  L 538.86 473.66
  L 546.83 471.51
  L 562.18 465.03
  L 573.96 458.92
  L 582.30 452.69
  L 591.08 443.61
  L 591.18 443.36
  L 590.97 443.19
  L 587.94 443.12
  L 586.46 444.26
  L 583.07 448.07
  L 579.83 450.78
  L 579.71 450.84
  L 578.99 450.39
  L 577.02 435.75
  L 571.24 418.37
  L 568.29 412.12
  L 565.08 406.92
  L 564.44 404.71
  L 564.89 401.93
  L 569.04 393.23
  L 570.67 390.20
  L 573.03 385.36
  L 575.91 380.16
  L 580.71 370.56
  L 583.17 362.72
  L 585.09 354.34
  L 587.66 339.81
  L 589.32 325.08
  L 589.35 324.95
  L 590.12 324.72
  L 592.47 326.66
  L 596.48 329.50
  L 599.76 330.36
  L 612.60 330.34
  L 620.11 330.05
  L 630.97 329.65
  L 634.96 330.20
  L 638.60 331.06
  L 641.92 331.23
  L 648.07 329.88
  L 655.85 325.98
  L 658.38 324.58
  L 658.72 323.81
  L 658.41 322.98
  L 657.80 322.08
  L 657.20 321.18
  L 656.88 319.39
  L 656.38 317.21
  L 654.89 315.75
  L 654.46 315.56
  L 653.95 315.51
  L 647.99 314.83
  L 644.71 313.41
  L 644.34 313.21
  L 639.39 310.93
  L 637.10 309.96
  L 636.74 309.09
  L 640.71 300.01
  L 645.04 289.91
  L 647.46 281.50
  L 647.88 266.51
  L 646.50 254.00
  L 644.12 243.97
  L 640.97 233.70
  L 637.04 223.19
  L 632.34 212.44
  L 624.33 192.41
  L 622.72 188.00
  L 622.35 187.55
  L 622.04 187.63
  L 621.84 188.19
  L 623.56 194.30
  L 629.24 212.78
  L 636.45 234.05
  L 641.50 252.74
  L 643.20 264.97
  L 643.12 278.88
  L 641.80 285.32
  L 638.76 292.93
  L 632.47 306.98
  L 631.48 308.13
  L 629.95 308.10
  L 619.80 304.58
  L 619.33 304.29
  L 619.05 303.85
  L 618.25 300.54
  L 617.37 297.05
  L 616.29 293.61
  L 615.77 289.73
  L 615.55 288.23
  L 614.19 285.26
  L 613.66 284.33
  L 613.59 283.58
  L 614.10 283.02
  L 614.16 282.99
  L 616.40 282.22
  L 623.55 280.57
  L 626.72 280.86
  L 628.36 281.97
  L 630.07 284.26
  L 630.42 284.57
  L 630.69 284.18
  L 631.33 280.51
  L 630.79 277.71
  L 627.77 272.87
  L 623.89 269.26
  L 619.79 267.12
  L 615.04 265.93
  L 609.82 266.13
  L 607.13 266.40
  L 606.37 265.93
  L 596.15 242.91
  L 592.40 231.55
  L 591.91 229.76
  L 588.47 219.99
  L 583.61 206.48
  L 583.18 200.60
  L 584.08 192.23
  L 584.91 185.12
  L 585.35 180.24
  L 585.97 176.00
  L 585.85 174.55
  L 585.67 174.33
  L 584.68 174.72
  L 582.07 188.59
  L 579.41 206.67
  L 578.50 227.61
  L 579.48 239.14
  L 580.05 244.08
  L 582.03 256.31
  L 586.50 281.51
  L 586.49 288.32
  L 586.31 291.85
  L 586.56 301.00
  L 586.43 301.45
  L 586.04 301.67
  L 580.34 303.38
  L 576.43 305.04
  L 575.71 305.37
  L 573.71 306.71
  L 573.42 308.93
  L 573.49 309.27
  L 574.42 310.20
  L 575.73 310.05
  L 580.66 307.66
  L 585.75 306.47
  L 586.17 306.55
  L 586.37 306.93
  L 586.50 308.78
  L 585.14 313.16
  L 584.55 314.46
  L 584.42 314.97
  L 584.44 315.45
  L 584.56 316.12
  L 585.72 323.56
  L 585.81 329.20
  L 584.70 337.10
  L 582.34 347.40
  L 580.47 355.31
  L 575.80 372.25
  L 573.63 375.98
  L 573.26 376.35
  L 572.68 376.18
  L 572.69 376.00
  L 573.15 373.30
  L 572.88 370.89
  L 572.69 370.57
  L 572.04 370.43
  L 571.61 370.94
  L 571.36 373.59
  L 570.60 378.13
  L 570.24 378.96
  L 568.15 384.05
  L 566.25 388.72
  L 564.21 392.20
  L 563.94 392.57
  L 559.40 399.00
  L 553.50 408.50
  L 553.21 408.84
  L 553.17 408.39
  Z
  M 665.39 315.68
  L 662.45 307.76
  L 660.35 302.86
  L 657.23 297.50
  L 652.10 291.11
  L 650.97 289.78
  L 649.58 288.80
  L 649.36 288.82
  L 649.01 289.78
  L 656.34 302.31
  L 659.11 308.80
  L 661.29 315.46
  L 662.15 321.79
  L 661.53 326.51
  L 659.68 331.83
  L 659.66 332.23
  L 660.02 332.40
  L 665.24 332.86
  L 665.64 332.78
  L 665.88 332.46
  L 670.13 321.78
  L 670.40 321.10
  L 671.82 314.52
  L 671.91 313.83
  L 673.13 308.73
  L 674.53 301.75
  L 674.45 278.10
  L 673.08 252.78
  L 671.25 241.75
  L 671.02 240.89
  L 668.63 232.45
  L 663.13 214.97
  L 661.60 211.32
  L 660.49 208.80
  L 660.26 208.51
  L 659.89 208.47
  L 659.61 208.52
  L 659.32 208.70
  L 659.38 209.04
  L 659.43 209.13
  L 661.80 214.41
  L 665.92 232.63
  L 667.99 244.50
  L 669.12 260.63
  L 669.13 283.16
  L 669.01 296.01
  L 668.16 304.76
  L 665.57 315.67
  L 665.48 315.81
  L 665.39 315.68
  Z
  M 687.74 365.96
  L 688.10 355.03
  L 687.47 344.21
  L 687.47 344.21
  L 684.66 328.24
  L 680.73 317.66
  L 678.10 311.27
  L 676.81 309.54
  L 674.82 309.06
  L 674.75 309.07
  L 674.36 309.72
  L 675.99 314.82
  L 678.92 324.41
  L 680.53 331.58
  L 681.98 342.52
  L 682.83 358.43
  L 682.56 363.09
  L 681.66 367.27
  L 678.26 374.34
  L 677.90 375.59
  L 678.19 377.83
  L 679.01 378.91
  L 680.16 378.88
  L 681.72 377.96
  L 684.10 375.86
  L 685.37 374.49
  L 686.61 372.38
  L 688.16 369.83
  L 688.33 369.73
  L 688.72 370.18
  L 686.78 375.39
  L 686.52 375.85
  L 686.18 376.15
  L 685.56 376.97
  L 685.98 378.06
  L 687.08 378.21
  L 691.16 375.00
  L 694.63 371.31
  L 697.68 366.82
  L 700.05 361.79
  L 706.52 339.56
  L 707.83 329.82
  L 707.27 303.99
  L 705.99 289.06
  L 704.61 279.04
  L 702.77 270.38
  L 696.98 252.27
  L 694.79 248.70
  L 694.60 248.61
  L 694.32 249.11
  L 694.66 249.57
  L 696.29 252.24
  L 696.57 253.04
  L 700.02 266.78
  L 701.69 278.25
  L 702.50 296.66
  L 702.50 320.52
  L 702.51 324.08
  L 702.33 332.41
  L 701.24 338.25
  L 696.63 352.75
  L 693.46 359.83
  L 688.20 366.18
  L 687.83 366.38
  L 687.74 365.96
  Z
  M 276.99 318.10
  L 274.96 331.15
  L 273.04 343.50
  L 266.25 371.89
  L 265.46 375.77
  L 262.71 386.26
  L 262.36 387.05
  L 253.11 410.07
  L 248.66 422.93
  L 242.37 441.24
  L 237.54 454.75
  L 232.13 468.01
  L 232.13 468.01
  L 232.13 468.01
  L 224.29 484.71
  L 215.49 500.98
  L 212.30 509.99
  L 210.60 515.58
  L 209.06 519.62
  L 204.00 533.81
  L 201.40 544.77
  L 200.18 548.92
  L 197.59 554.33
  L 194.76 561.05
  L 193.91 565.43
  L 192.14 577.20
  L 192.21 581.97
  L 192.90 586.23
  L 193.02 586.72
  L 193.13 586.88
  L 193.59 586.63
  L 193.64 581.90
  L 194.58 576.51
  L 195.71 571.57
  L 197.80 563.05
  L 200.16 556.89
  L 203.72 548.48
  L 206.02 541.04
  L 209.15 531.18
  L 211.75 525.30
  L 217.10 511.99
  L 220.20 504.20
  L 225.41 494.56
  L 229.90 486.35
  L 238.03 469.05
  L 245.49 450.82
  L 252.60 430.93
  L 260.24 406.94
  L 264.26 395.74
  L 265.23 393.41
  L 268.37 385.28
  L 269.84 378.74
  L 271.02 372.82
  L 276.39 349.86
  L 278.62 335.69
  L 281.31 315.89
  L 282.50 305.44
  L 283.24 293.85
  L 283.89 280.82
  L 284.63 264.00
  L 284.35 261.95
  L 284.20 261.74
  L 283.48 262.06
  L 281.81 279.00
  L 280.64 293.32
  L 280.05 300.48
  L 276.99 318.10
  Z
  M 616.7846 288.0792
  L 617.8430 285.9531
  L 617.3954 283.6208
  L 616.3370 285.7469
  L 616.7846 288.0792
  Z
  M 622.76 304.22
  L 623.68 303.93
  L 623.83 303.64
  L 623.80 303.55
  L 619.51 291.13
  L 618.92 291.32
  L 622.45 303.97
  L 622.48 304.07
  L 622.52 304.15
  L 622.76 304.22
  Z
  M 606.40 472.80
  L 603.14 465.14
  L 601.10 459.27
  L 600.36 457.07
  L 598.54 451.04
  L 598.19 446.74
  L 599.18 432.60
  L 599.39 430.71
  L 601.49 425.49
  L 606.24 419.60
  L 607.90 417.76
  L 612.02 413.70
  L 616.60 410.41
  L 621.94 407.78
  L 627.79 406.01
  L 634.43 404.09
  L 637.91 402.31
  L 638.46 401.66
  L 638.04 400.90
  L 636.24 400.95
  L 633.67 401.67
  L 627.43 402.27
  L 627.09 402.13
  L 627.12 401.77
  L 633.13 391.83
  L 635.73 387.96
  L 642.09 379.23
  L 642.14 379.17
  L 653.66 364.76
  L 654.92 362.69
  L 656.08 360.81
  L 670.10 343.25
  L 676.18 333.75
  L 678.34 330.04
  L 678.51 329.62
  L 678.19 328.38
  L 676.99 327.91
  L 673.72 328.24
  L 673.27 328.40
  L 672.96 328.81
  L 669.93 335.30
  L 666.57 340.32
  L 650.99 359.99
  L 649.43 362.35
  L 647.65 364.98
  L 635.03 381.62
  L 625.63 396.74
  L 622.84 401.14
  L 619.75 403.78
  L 614.82 406.08
  L 610.20 408.42
  L 604.11 414.30
  L 598.87 420.44
  L 595.70 425.44
  L 594.56 429.27
  L 594.10 438.36
  L 593.49 445.49
  L 593.96 452.73
  L 596.82 462.39
  L 598.09 466.14
  L 601.55 473.62
  L 604.40 478.31
  L 609.03 486.20
  L 610.22 487.44
  L 611.81 487.85
  L 612.26 487.65
  L 615.31 484.18
  L 615.45 483.85
  L 615.22 483.57
  L 612.61 481.50
  L 611.14 479.04
  L 611.14 479.04
  L 610.79 476.83
  L 611.15 474.38
  L 612.96 471.00
  L 615.32 469.44
  L 619.27 468.25
  L 627.45 466.52
  L 632.98 465.66
  L 638.74 464.49
  L 655.82 458.33
  L 659.43 456.76
  L 662.56 454.66
  L 664.91 452.25
  L 666.65 449.39
  L 667.33 447.52
  L 670.22 438.02
  L 671.92 432.98
  L 674.34 423.70
  L 675.68 413.27
  L 677.11 388.36
  L 676.67 387.58
  L 675.78 387.64
  L 675.47 388.10
  L 675.01 393.04
  L 674.90 395.64
  L 672.58 411.80
  L 671.25 418.98
  L 669.19 427.22
  L 665.63 438.22
  L 663.21 445.47
  L 662.01 448.00
  L 660.18 450.21
  L 657.85 451.98
  L 655.11 453.20
  L 653.08 453.85
  L 636.42 459.73
  L 629.69 461.37
  L 623.16 462.45
  L 615.67 464.34
  L 612.60 465.53
  L 610.40 467.05
  L 608.69 469.22
  L 607.02 472.78
  L 606.72 473.14
  L 606.40 472.80
  Z
  M 716.74 372.37
  L 716.00 372.39
  L 715.79 373.11
  L 718.22 379.74
  L 718.91 380.15
  L 719.44 379.55
  L 719.44 379.53
  L 719.46 374.60
  L 719.19 374.08
  L 716.74 372.37
  Z"
/>
<path fill="none" stroke-width="1.00" stroke="#000000" d="
  M 386.62 0.00
  L 387.62 0.00
  L 388.66 0.20
  L 396.70 0.97
  L 397.15 0.93
  L 399.01 0.71
  L 404.14 0.25
  L 407.33 0.65
  L 407.56 0.81
  L 407.27 1.74
  L 400.62 3.54
  L 395.45 5.63
  L 375.37 15.10
  L 371.46 17.66
  L 366.67 22.18
  L 357.48 32.46
  L 350.44 41.68
  L 344.89 49.01
  L 336.70 57.71
  L 335.18 58.39
  L 334.36 58.00
  L 333.97 57.19
  L 334.27 56.35
  L 334.29 56.33
  L 337.68 51.68
  L 339.33 47.19
  L 340.91 43.60
  L 343.79 39.25
  L 347.64 33.64
  L 351.56 28.59
  L 359.37 19.33
  L 366.92 12.94
  L 374.18 6.83
  L 378.26 3.44
  L 381.97 1.34
  L 386.62 0.00
  Z
  M 390.59 3.31
  L 388.46 2.91
  L 385.22 3.78
  L 381.46 5.86
  L 378.34 8.42
  L 378.40 8.61
  L 378.46 8.60
  L 390.56 3.78
  L 390.63 3.74
  L 390.59 3.31
  Z"
/>
<path fill="none" stroke-width="1.00" stroke="#000000" d="
  M 685.30 0.00
  L 686.28 0.00
  L 688.50 0.89
  L 690.51 2.62
  L 695.09 9.32
  L 695.41 9.87
  L 700.31 17.08
  L 703.28 21.52
  L 706.42 27.65
  L 711.03 35.95
  L 716.35 43.77
  L 720.00 50.51
  L 720.00 58.04
  L 719.58 60.22
  L 719.44 60.50
  L 718.44 60.29
  L 716.09 54.09
  L 710.59 44.25
  L 705.09 34.99
  L 695.92 20.37
  L 695.67 20.02
  L 691.47 13.41
  L 687.20 4.82
  L 685.68 2.80
  L 684.65 1.55
  L 684.49 0.63
  L 684.49 0.63
  L 685.30 0.00
  Z"
/>
<path fill="none" stroke-width="1.00" stroke="#000000" d="
  M 686.28 0.00
  L 720.00 0.00
  L 720.00 50.51
  L 716.35 43.77
  L 711.03 35.95
  L 706.42 27.65
  L 703.28 21.52
  L 700.31 17.08
  L 695.41 9.87
  L 695.09 9.32
  L 690.51 2.62
  L 688.50 0.89
  L 686.28 0.00
  Z"
/>
<path fill="none" stroke-width="1.00" stroke="#000000" d="
  M 378.34 8.42
  L 381.46 5.86
  L 385.22 3.78
  L 388.46 2.91
  L 390.59 3.31
  L 390.63 3.74
  L 390.56 3.78
  L 378.46 8.60
  L 378.40 8.61
  L 378.34 8.42
  Z"
/>
<path fill="none" stroke-width="1.00" stroke="#000000" d="
  M 252.75 223.48
  L 256.31 223.12
  L 261.21 223.80
  L 261.58 224.03
  L 261.71 224.46
  L 260.58 227.60
  L 256.89 231.82
  L 253.29 235.96
  L 250.82 239.75
  L 245.60 248.03
  L 242.07 254.84
  L 236.15 266.68
  L 234.60 272.28
  L 234.66 272.80
  L 235.02 272.42
  L 238.41 267.51
  L 241.96 263.99
  L 245.83 261.53
  L 257.41 256.56
  L 268.49 253.32
  L 270.94 252.90
  L 275.90 252.89
  L 281.63 253.97
  L 282.56 254.85
  L 282.27 256.10
  L 281.74 256.45
  L 277.64 257.39
  L 268.89 258.91
  L 260.41 261.25
  L 250.59 265.12
  L 244.67 268.35
  L 240.04 271.95
  L 239.01 272.96
  L 239.01 272.96
  L 235.37 277.24
  L 232.30 282.08
  L 231.22 282.74
  L 230.12 282.13
  L 229.94 281.49
  L 230.72 272.49
  L 233.18 263.44
  L 237.43 253.38
  L 243.22 242.32
  L 244.66 240.32
  L 247.12 236.51
  L 247.22 235.94
  L 246.70 236.20
  L 239.36 241.84
  L 237.76 243.56
  L 236.32 246.42
  L 234.88 249.22
  L 233.29 250.70
  L 230.35 251.17
  L 229.72 250.50
  L 229.91 247.60
  L 230.82 244.12
  L 234.75 235.81
  L 235.45 234.52
  L 240.07 227.75
  L 244.56 223.41
  L 250.40 219.37
  L 250.57 219.22
  L 250.29 218.15
  L 242.62 214.87
  L 236.52 211.26
  L 231.78 207.18
  L 228.29 202.61
  L 227.34 200.92
  L 222.06 191.62
  L 215.91 183.54
  L 208.32 173.19
  L 201.75 160.87
  L 197.56 151.75
  L 193.38 141.82
  L 190.51 136.23
  L 186.65 129.80
  L 182.76 122.05
  L 178.47 111.94
  L 176.84 107.95
  L 175.56 104.13
  L 175.05 100.81
  L 175.24 97.87
  L 176.25 95.14
  L 177.22 93.77
  L 177.99 93.98
  L 177.94 94.27
  L 176.68 98.35
  L 177.53 102.69
  L 177.80 103.11
  L 178.20 103.45
  L 179.97 104.53
  L 185.23 107.53
  L 189.62 109.21
  L 190.78 109.50
  L 202.97 112.95
  L 209.33 114.91
  L 214.80 116.67
  L 223.96 119.41
  L 231.24 120.39
  L 246.23 121.80
  L 246.94 121.70
  L 247.33 121.30
  L 247.40 120.96
  L 247.08 120.82
  L 242.06 119.40
  L 238.66 116.39
  L 233.31 110.41
  L 227.16 105.00
  L 223.91 101.07
  L 221.93 95.70
  L 221.60 94.45
  L 219.35 90.66
  L 219.16 90.27
  L 219.44 89.53
  L 220.23 89.42
  L 224.25 91.65
  L 229.54 94.24
  L 234.66 94.78
  L 238.47 95.09
  L 249.11 96.23
  L 257.58 95.25
  L 269.63 91.53
  L 278.67 87.97
  L 284.78 84.78
  L 294.58 79.98
  L 302.74 76.89
  L 309.70 73.04
  L 309.70 73.04
  L 317.05 67.97
  L 323.92 62.11
  L 324.60 61.87
  L 325.52 62.29
  L 325.49 63.14
  L 324.92 63.86
  L 314.26 72.58
  L 311.12 75.08
  L 302.13 80.82
  L 294.34 83.98
  L 288.30 87.02
  L 284.30 89.28
  L 273.07 94.12
  L 262.92 97.59
  L 253.92 99.68
  L 245.72 100.48
  L 234.56 99.69
  L 227.64 98.17
  L 227.17 98.19
  L 226.69 98.82
  L 227.03 99.53
  L 233.76 104.78
  L 239.26 110.95
  L 239.26 110.95
  L 240.60 112.88
  L 242.74 115.25
  L 245.07 116.43
  L 246.56 116.67
  L 248.68 116.82
  L 253.28 116.94
  L 256.67 116.15
  L 264.59 113.53
  L 270.66 112.39
  L 271.53 113.25
  L 271.48 113.44
  L 271.44 113.54
  L 270.60 114.13
  L 265.04 116.38
  L 260.60 119.18
  L 260.30 119.53
  L 260.19 119.95
  L 260.15 120.50
  L 259.73 120.78
  L 259.65 120.74
  L 258.66 120.31
  L 258.00 120.45
  L 254.38 122.64
  L 248.99 125.69
  L 244.51 126.58
  L 225.25 125.76
  L 220.51 124.70
  L 213.71 122.34
  L 208.95 120.65
  L 193.75 115.79
  L 186.94 113.05
  L 180.69 109.47
  L 180.63 109.43
  L 180.47 109.37
  L 180.14 109.84
  L 185.63 122.39
  L 186.46 122.42
  L 186.50 122.12
  L 184.37 116.65
  L 184.13 115.52
  L 185.14 115.24
  L 185.79 115.66
  L 196.03 135.72
  L 201.22 146.79
  L 211.00 166.64
  L 215.43 173.80
  L 220.14 180.13
  L 225.84 187.82
  L 229.88 194.50
  L 235.67 203.64
  L 241.19 208.15
  L 249.58 212.54
  L 255.04 215.23
  L 256.54 215.61
  L 258.44 215.33
  L 264.15 214.79
  L 271.18 216.00
  L 271.63 216.29
  L 271.70 216.81
  L 271.55 217.73
  L 271.28 218.17
  L 270.73 218.31
  L 268.88 218.24
  L 267.45 218.79
  L 267.45 218.79
  L 266.00 221.16
  L 265.41 221.68
  L 261.18 221.63
  L 256.70 221.62
  L 253.61 222.62
  L 252.66 223.29
  L 252.52 223.47
  L 252.75 223.48
  Z"
/>
<path fill="none" stroke-width="1.00" stroke="#000000" d="
  M 553.50 408.50
  L 559.40 399.00
  L 563.94 392.57
  L 564.21 392.20
  L 566.25 388.72
  L 568.15 384.05
  L 570.24 378.96
  L 570.60 378.13
  L 571.36 373.59
  L 571.61 370.94
  L 572.04 370.43
  L 572.69 370.57
  L 572.88 370.89
  L 573.15 373.30
  L 572.69 376.00
  L 572.68 376.18
  L 573.26 376.35
  L 573.63 375.98
  L 575.80 372.25
  L 580.47 355.31
  L 582.34 347.40
  L 584.70 337.10
  L 585.81 329.20
  L 585.72 323.56
  L 584.56 316.12
  L 584.44 315.45
  L 584.42 314.97
  L 584.55 314.46
  L 585.14 313.16
  L 586.50 308.78
  L 586.37 306.93
  L 586.17 306.55
  L 585.75 306.47
  L 580.66 307.66
  L 575.73 310.05
  L 574.42 310.20
  L 573.49 309.27
  L 573.49 309.27
  L 573.42 308.93
  L 573.71 306.71
  L 575.71 305.37
  L 576.43 305.04
  L 580.34 303.38
  L 586.04 301.67
  L 586.43 301.45
  L 586.56 301.00
  L 586.31 291.85
  L 586.49 288.32
  L 586.50 281.51
  L 582.03 256.31
  L 580.05 244.08
  L 579.48 239.14
  L 578.50 227.61
  L 579.41 206.67
  L 582.07 188.59
  L 584.68 174.72
  L 585.67 174.33
  L 585.85 174.55
  L 585.97 176.00
  L 585.35 180.24
  L 584.91 185.12
  L 584.08 192.23
  L 583.18 200.60
  L 583.61 206.48
  L 588.47 219.99
  L 591.91 229.76
  L 592.40 231.55
  L 596.15 242.91
  L 606.37 265.93
  L 607.13 266.40
  L 609.82 266.13
  L 615.04 265.93
  L 619.79 267.12
  L 623.89 269.26
  L 627.77 272.87
  L 630.79 277.71
  L 631.33 280.51
  L 630.69 284.18
  L 630.42 284.57
  L 630.07 284.26
  L 628.36 281.97
  L 626.72 280.86
  L 623.55 280.57
  L 616.40 282.22
  L 614.16 282.99
  L 614.10 283.02
  L 613.59 283.58
  L 613.66 284.33
  L 614.19 285.26
  L 615.55 288.23
  L 615.77 289.73
  L 616.29 293.61
  L 617.37 297.05
  L 618.25 300.54
  L 619.05 303.85
  L 619.33 304.29
  L 619.80 304.58
  L 629.95 308.10
  L 631.48 308.13
  L 632.47 306.98
  L 638.76 292.93
  L 641.80 285.32
  L 643.12 278.88
  L 643.20 264.97
  L 641.50 252.74
  L 636.45 234.05
  L 629.24 212.78
  L 623.56 194.30
  L 621.84 188.19
  L 622.04 187.63
  L 622.35 187.55
  L 622.72 188.00
  L 624.33 192.41
  L 632.34 212.44
  L 637.04 223.19
  L 640.97 233.70
  L 644.12 243.97
  L 646.50 254.00
  L 647.88 266.51
  L 647.46 281.50
  L 645.04 289.91
  L 640.71 300.01
  L 636.74 309.09
  L 637.10 309.96
  L 639.39 310.93
  L 644.34 313.21
  L 644.71 313.41
  L 647.99 314.83
  L 653.95 315.51
  L 654.46 315.56
  L 654.89 315.75
  L 656.38 317.21
  L 656.88 319.39
  L 657.20 321.18
  L 657.80 322.08
  L 658.41 322.98
  L 658.72 323.81
  L 658.38 324.58
  L 655.85 325.98
  L 648.07 329.88
  L 641.92 331.23
  L 638.60 331.06
  L 634.96 330.20
  L 630.97 329.65
  L 620.11 330.05
  L 612.60 330.34
  L 599.76 330.36
  L 596.48 329.50
  L 592.47 326.66
  L 590.12 324.72
  L 589.35 324.95
  L 589.32 325.08
  L 587.66 339.81
  L 585.09 354.34
  L 585.09 354.34
  L 583.17 362.72
  L 580.71 370.56
  L 575.91 380.16
  L 573.03 385.36
  L 570.67 390.20
  L 569.04 393.23
  L 564.89 401.93
  L 564.44 404.71
  L 565.08 406.92
  L 568.29 412.12
  L 571.24 418.37
  L 577.02 435.75
  L 578.99 450.39
  L 579.71 450.84
  L 579.83 450.78
  L 583.07 448.07
  L 586.46 444.26
  L 587.94 443.12
  L 590.97 443.19
  L 591.18 443.36
  L 591.08 443.61
  L 582.30 452.69
  L 573.96 458.92
  L 562.18 465.03
  L 546.83 471.51
  L 538.86 473.66
  L 538.47 473.74
  L 531.74 475.40
  L 528.48 477.22
  L 525.81 481.10
  L 525.81 481.10
  L 523.72 485.65
  L 522.39 490.62
  L 521.38 493.47
  L 520.72 494.20
  L 517.62 496.86
  L 515.56 500.34
  L 513.75 505.99
  L 513.61 506.49
  L 510.77 519.98
  L 509.69 521.33
  L 509.14 521.65
  L 508.16 524.00
  L 507.37 533.99
  L 506.32 551.21
  L 507.04 564.51
  L 507.31 566.50
  L 507.51 567.48
  L 508.97 570.64
  L 516.46 582.46
  L 519.89 586.72
  L 525.06 592.12
  L 531.04 598.32
  L 536.28 602.82
  L 544.51 607.73
  L 553.69 613.17
  L 561.88 619.62
  L 562.46 620.71
  L 561.70 621.68
  L 558.15 623.09
  L 555.02 621.71
  L 547.91 617.24
  L 544.76 615.85
  L 537.98 612.69
  L 533.26 609.83
  L 532.03 608.92
  L 523.73 601.64
  L 513.55 590.39
  L 510.23 585.06
  L 506.71 578.27
  L 502.54 571.91
  L 501.82 570.50
  L 501.84 569.22
  L 503.28 567.84
  L 503.67 567.03
  L 503.31 565.75
  L 502.57 561.95
  L 502.63 539.62
  L 504.05 520.50
  L 505.41 515.79
  L 506.29 511.06
  L 507.36 504.17
  L 509.90 497.02
  L 514.01 489.53
  L 519.59 481.86
  L 520.76 480.04
  L 520.82 479.78
  L 520.53 479.14
  L 519.84 479.01
  L 507.77 483.37
  L 497.80 487.55
  L 487.51 490.81
  L 477.17 493.97
  L 466.83 497.12
  L 461.73 498.62
  L 455.31 500.44
  L 450.35 501.30
  L 439.89 502.42
  L 438.64 502.17
  L 437.75 501.24
  L 436.44 499.70
  L 434.55 499.10
  L 434.08 499.00
  L 433.64 498.77
  L 428.18 495.37
  L 420.80 491.67
  L 418.38 490.41
  L 418.38 490.41
  L 412.10 485.50
  L 406.91 478.71
  L 403.78 475.05
  L 397.54 469.62
  L 392.88 464.63
  L 378.82 444.95
  L 372.58 436.51
  L 368.59 430.57
  L 364.74 423.43
  L 356.28 403.17
  L 354.71 399.06
  L 352.25 394.30
  L 350.25 390.40
  L 348.73 385.50
  L 347.07 372.60
  L 346.28 368.16
  L 345.67 365.07
  L 345.77 362.75
  L 346.51 360.72
  L 348.07 358.51
  L 348.31 357.99
  L 347.75 357.91
  L 345.27 358.46
  L 343.34 359.26
  L 342.99 359.37
  L 342.11 359.02
  L 341.89 358.10
  L 344.33 352.87
  L 347.98 349.45
  L 348.29 349.04
  L 348.07 348.59
  L 340.89 340.90
  L 335.08 332.83
  L 331.17 324.13
  L 331.17 324.13
  L 329.08 313.97
  L 329.23 303.06
  L 331.21 291.26
  L 334.70 277.70
  L 335.98 275.60
  L 336.50 275.43
  L 336.57 275.96
  L 333.37 302.25
  L 333.26 311.79
  L 334.83 320.53
  L 337.45 327.48
  L 341.16 333.98
  L 345.97 340.21
  L 352.22 346.53
  L 353.94 347.62
  L 356.29 347.84
  L 368.72 347.61
  L 381.49 349.26
  L 387.05 349.88
  L 390.61 350.17
  L 391.57 350.59
  L 391.97 351.55
  L 391.56 353.30
  L 390.38 353.85
  L 384.32 354.59
  L 373.41 356.11
  L 365.30 358.17
  L 364.99 358.40
  L 365.23 358.69
  L 371.29 363.18
  L 376.57 368.36
  L 376.57 368.36
  L 381.20 374.45
  L 385.00 381.27
  L 385.27 381.55
  L 385.57 381.31
  L 390.76 372.87
  L 394.22 365.65
  L 396.28 358.94
  L 397.05 352.49
  L 396.24 344.02
  L 396.23 343.97
  L 393.39 334.75
  L 387.55 321.96
  L 384.59 315.56
  L 380.14 306.22
  L 375.91 297.42
  L 372.32 287.83
  L 368.55 277.89
  L 363.91 266.10
  L 361.07 255.27
  L 359.66 242.97
  L 358.20 223.00
  L 357.90 206.28
  L 359.92 188.53
  L 362.47 177.84
  L 366.48 166.66
  L 372.00 154.67
  L 380.02 139.73
  L 384.07 133.28
  L 388.12 128.34
  L 388.63 128.34
  L 388.64 128.35
  L 388.87 128.59
  L 388.93 128.73
  L 388.87 128.87
  L 386.06 132.82
  L 382.70 138.96
  L 373.93 160.13
  L 369.75 172.25
  L 366.29 185.39
  L 364.70 194.88
  L 363.84 204.43
  L 363.66 214.34
  L 364.19 224.35
  L 365.29 238.17
  L 365.42 240.75
  L 366.08 249.86
  L 367.32 256.52
  L 369.98 265.14
  L 374.15 275.58
  L 376.83 280.19
  L 380.84 285.06
  L 386.23 290.19
  L 392.56 295.13
  L 397.65 299.33
  L 405.01 305.05
  L 405.14 305.12
  L 408.87 307.76
  L 412.11 310.85
  L 418.21 319.25
  L 418.51 319.52
  L 418.77 319.49
  L 418.89 319.39
  L 418.88 319.24
  L 414.93 308.35
  L 409.83 294.66
  L 401.22 273.55
  L 398.00 264.46
  L 396.25 256.88
  L 395.59 248.97
  L 396.57 234.92
  L 398.23 226.87
  L 403.78 209.19
  L 404.12 208.15
  L 409.74 192.63
  L 415.27 182.24
  L 421.26 173.13
  L 421.88 172.03
  L 422.79 168.97
  L 425.51 155.06
  L 428.46 145.42
  L 430.81 139.98
  L 434.73 132.84
  L 437.19 128.47
  L 438.18 126.73
  L 443.27 119.46
  L 450.67 111.24
  L 451.54 110.27
  L 454.80 107.48
  L 454.93 107.45
  L 455.17 107.89
  L 446.50 121.05
  L 440.53 129.85
  L 433.59 143.94
  L 429.70 155.57
  L 427.14 169.77
  L 426.34 183.97
  L 426.34 183.97
  L 426.34 183.97
  L 426.84 194.07
  L 428.23 204.17
  L 430.51 214.27
  L 433.68 224.36
  L 434.18 224.43
  L 434.23 224.27
  L 434.73 215.74
  L 436.19 207.44
  L 436.19 207.44
  L 436.19 207.44
  L 439.03 198.22
  L 443.11 189.30
  L 445.34 185.77
  L 447.72 183.23
  L 448.69 181.25
  L 449.10 179.11
  L 449.44 175.87
  L 451.41 160.51
  L 454.14 149.80
  L 459.11 136.10
  L 462.84 127.34
  L 474.14 108.90
  L 477.94 103.74
  L 483.53 97.37
  L 486.16 94.46
  L 487.68 93.51
  L 489.01 93.77
  L 489.28 94.04
  L 489.19 94.40
  L 482.84 103.37
  L 476.92 111.71
  L 474.89 114.97
  L 468.52 125.58
  L 464.52 133.84
  L 457.85 151.88
  L 456.06 158.89
  L 455.07 165.31
  L 453.38 177.85
  L 451.36 195.58
  L 451.37 211.06
  L 452.95 222.06
  L 455.41 229.91
  L 457.98 238.27
  L 458.87 241.54
  L 460.20 244.05
  L 462.70 246.40
  L 463.02 246.50
  L 463.15 246.19
  L 463.90 239.17
  L 465.39 232.36
  L 467.68 225.56
  L 471.05 219.10
  L 472.67 215.18
  L 473.47 211.18
  L 473.47 211.18
  L 473.47 211.18
  L 473.35 206.30
  L 472.06 201.32
  L 472.06 199.72
  L 473.11 198.52
  L 474.16 197.77
  L 475.84 194.72
  L 479.06 180.35
  L 481.16 173.51
  L 483.35 166.16
  L 483.59 164.99
  L 485.76 158.72
  L 489.85 151.41
  L 493.50 145.05
  L 497.62 137.79
  L 502.70 131.92
  L 507.60 126.26
  L 511.80 120.77
  L 512.17 120.54
  L 512.85 120.76
  L 512.95 121.47
  L 511.48 122.92
  L 510.99 123.45
  L 506.72 131.21
  L 501.39 139.28
  L 497.28 146.19
  L 493.31 153.16
  L 489.27 160.25
  L 487.22 165.85
  L 485.12 172.92
  L 484.79 173.78
  L 482.81 180.10
  L 481.09 187.96
  L 478.98 197.24
  L 479.35 198.18
  L 483.13 200.28
  L 489.76 203.02
  L 492.50 204.48
  L 495.27 207.23
  L 500.64 216.46
  L 502.21 219.58
  L 502.56 219.91
  L 502.88 219.55
  L 504.93 214.83
  L 510.66 200.40
  L 516.99 182.38
  L 523.97 165.51
  L 529.37 155.86
  L 534.05 149.85
  L 539.52 144.37
  L 546.73 137.77
  L 553.12 131.53
  L 558.12 127.78
  L 562.02 125.08
  L 566.63 120.83
  L 567.12 120.57
  L 567.49 120.99
  L 568.64 123.74
  L 568.71 124.29
  L 568.43 124.75
  L 552.83 139.96
  L 545.45 146.25
  L 537.44 153.17
  L 530.66 160.90
  L 527.77 165.60
  L 524.78 172.38
  L 523.58 175.28
  L 518.91 186.92
  L 512.79 205.27
  L 510.02 212.20
  L 506.46 221.90
  L 505.61 228.86
  L 505.54 238.17
  L 505.57 244.59
  L 505.93 256.15
  L 509.00 275.06
  L 513.58 292.97
  L 516.20 299.86
  L 520.02 307.35
  L 542.02 347.73
  L 549.67 366.25
  L 552.22 374.90
  L 553.65 384.82
  L 553.97 396.21
  L 553.17 408.39
  L 553.21 408.84
  L 553.50 408.50
  Z
  M 421.88 219.53
  L 427.95 222.67
  L 428.14 222.72
  L 428.70 222.03
  L 427.08 216.59
  L 424.39 206.92
  L 422.56 193.85
  L 422.56 193.85
  L 422.36 185.45
  L 422.92 177.01
  L 422.28 176.59
  L 422.10 176.79
  L 417.88 185.86
  L 413.73 194.80
  L 408.13 210.39
  L 408.11 211.46
  L 408.78 212.30
  L 417.55 217.27
  L 421.88 219.53
  Z
  M 442.02 229.96
  L 449.23 234.40
  L 452.41 236.44
  L 452.79 236.54
  L 452.79 236.16
  L 448.75 222.18
  L 447.64 217.19
  L 447.00 211.20
  L 447.05 194.35
  L 447.13 192.17
  L 446.80 191.98
  L 446.72 192.07
  L 443.25 200.77
  L 440.75 209.68
  L 440.75 209.68
  L 440.75 209.68
  L 439.43 217.08
  L 438.75 224.63
  L 439.30 227.69
  L 442.02 229.96
  Z
  M 494.13 211.58
  L 491.22 208.13
  L 487.28 205.13
  L 482.84 202.89
  L 478.43 201.73
  L 477.99 201.81
  L 477.75 202.19
  L 477.39 204.48
  L 477.68 206.05
  L 484.15 219.66
  L 486.29 222.74
  L 489.44 225.10
  L 492.69 226.14
  L 495.91 225.72
  L 497.85 224.42
  L 498.71 223.22
  L 499.06 221.26
  L 498.60 219.13
  L 495.23 213.23
  L 494.13 211.58
  Z
  M 476.96 214.13
  L 476.73 213.67
  L 476.60 214.16
  L 476.33 220.41
  L 476.86 224.46
  L 478.51 229.56
  L 479.32 231.80
  L 481.93 236.72
  L 484.90 241.89
  L 486.56 246.18
  L 487.66 250.72
  L 487.36 252.71
  L 486.96 253.12
  L 486.87 253.18
  L 485.82 252.78
  L 481.23 241.05
  L 480.49 239.86
  L 479.37 239.00
  L 478.91 238.92
  L 478.87 239.38
  L 480.83 246.41
  L 483.28 252.93
  L 484.66 257.97
  L 485.74 262.01
  L 489.39 271.07
  L 491.18 277.68
  L 491.74 282.12
  L 491.74 282.13
  L 491.75 282.13
  L 492.03 282.14
  L 492.17 282.11
  L 492.24 281.96
  L 492.40 277.91
  L 493.27 267.80
  L 496.43 254.65
  L 500.12 243.39
  L 501.37 238.62
  L 502.12 232.06
  L 502.12 232.06
  L 502.62 227.17
  L 502.60 227.08
  L 502.35 227.09
  L 500.04 230.48
  L 497.15 232.52
  L 497.15 232.52
  L 493.68 233.21
  L 489.64 232.56
  L 488.49 232.12
  L 484.45 228.98
  L 483.37 227.93
  L 480.97 224.92
  L 480.18 223.31
  L 476.96 214.13
  Z
  M 398.29 377.64
  L 397.63 380.34
  L 395.67 383.52
  L 388.18 390.69
  L 387.96 390.87
  L 387.84 391.01
  L 385.83 394.40
  L 384.89 394.89
  L 384.03 394.28
  L 384.03 394.28
  L 383.98 393.64
  L 384.43 387.97
  L 382.75 383.12
  L 379.37 377.69
  L 375.42 372.77
  L 375.42 372.77
  L 375.42 372.77
  L 370.01 367.58
  L 363.81 363.11
  L 359.82 359.93
  L 358.79 359.84
  L 352.85 363.35
  L 352.52 363.66
  L 352.39 364.10
  L 352.47 374.70
  L 354.16 384.89
  L 354.16 384.89
  L 356.70 392.78
  L 371.35 426.49
  L 371.81 427.42
  L 374.00 430.86
  L 377.41 434.91
  L 377.88 435.44
  L 378.16 435.61
  L 378.27 435.30
  L 378.27 435.29
  L 377.64 433.12
  L 375.41 430.51
  L 373.24 427.44
  L 373.34 426.89
  L 373.70 426.53
  L 374.10 426.43
  L 374.44 426.67
  L 387.58 445.34
  L 388.50 446.75
  L 399.80 463.23
  L 413.23 481.30
  L 416.33 484.78
  L 421.70 488.61
  L 430.01 492.43
  L 430.22 492.52
  L 433.78 494.91
  L 437.15 497.00
  L 439.04 497.21
  L 441.49 496.76
  L 454.59 493.73
  L 463.27 491.44
  L 469.13 489.75
  L 470.06 489.84
  L 472.48 490.55
  L 474.55 490.32
  L 474.70 490.26
  L 489.05 484.67
  L 499.02 481.14
  L 506.88 479.00
  L 515.41 476.67
  L 519.38 475.65
  L 523.90 474.45
  L 529.79 472.81
  L 538.08 471.11
  L 546.13 468.74
  L 546.13 468.74
  L 553.57 465.86
  L 560.80 462.38
  L 568.10 459.18
  L 571.26 457.91
  L 571.56 457.12
  L 571.54 457.09
  L 569.53 453.67
  L 568.96 453.65
  L 568.91 453.80
  L 568.28 455.99
  L 567.21 457.48
  L 566.74 457.74
  L 566.22 457.59
  L 565.23 456.52
  L 564.93 454.99
  L 565.44 439.13
  L 565.26 424.86
  L 563.45 413.46
  L 563.06 411.71
  L 562.57 410.83
  L 561.04 408.05
  L 561.86 405.05
  L 562.02 404.60
  L 561.95 404.26
  L 561.90 404.15
  L 561.60 403.89
  L 561.31 404.17
  L 560.47 406.24
  L 560.22 407.09
  L 560.06 408.82
  L 559.85 410.95
  L 559.17 412.28
  L 559.11 412.34
  L 556.42 415.06
  L 549.82 422.21
  L 545.91 428.46
  L 545.70 428.69
  L 544.91 428.21
  L 545.65 422.81
  L 546.26 421.06
  L 547.65 416.63
  L 548.12 412.25
  L 547.88 392.65
  L 546.94 379.93
  L 544.38 369.39
  L 538.89 355.52
  L 531.70 340.27
  L 531.51 340.09
  L 531.28 340.20
  L 528.86 343.37
  L 527.70 346.73
  L 527.64 347.24
  L 526.23 355.06
  L 523.58 361.72
  L 523.50 362.17
  L 523.77 362.53
  L 524.40 363.20
  L 524.71 364.55
  L 524.48 365.31
  L 523.04 368.51
  L 520.06 380.75
  L 518.92 384.91
  L 516.87 393.75
  L 516.69 394.18
  L 516.28 394.35
  L 500.22 395.32
  L 499.17 395.33
  L 494.18 395.04
  L 489.49 394.09
  L 484.10 392.31
  L 480.36 390.41
  L 478.58 388.84
  L 477.55 387.02
  L 477.55 387.02
  L 477.30 384.67
  L 478.02 381.99
  L 478.03 381.96
  L 478.68 381.77
  L 486.11 385.33
  L 493.82 387.67
  L 493.82 387.67
  L 500.19 388.66
  L 506.73 388.87
  L 507.70 388.92
  L 509.93 389.57
  L 511.46 390.11
  L 513.22 389.89
  L 514.29 388.48
  L 514.29 388.48
  L 514.30 388.42
  L 514.40 388.00
  L 517.37 378.67
  L 518.64 373.38
  L 519.65 362.28
  L 521.02 354.77
  L 522.92 348.92
  L 525.17 343.83
  L 527.58 340.09
  L 529.96 337.93
  L 530.20 337.65
  L 530.14 337.29
  L 514.68 306.67
  L 511.26 299.02
  L 508.81 291.95
  L 505.41 278.28
  L 503.40 266.59
  L 502.18 254.75
  L 501.84 253.63
  L 501.44 253.41
  L 501.18 253.77
  L 498.01 266.54
  L 496.40 279.41
  L 496.40 279.41
  L 496.54 295.23
  L 495.91 298.51
  L 495.66 298.77
  L 494.24 299.14
  L 493.06 298.27
  L 491.58 294.28
  L 490.52 288.36
  L 489.51 282.68
  L 487.07 277.25
  L 483.77 269.45
  L 481.11 258.08
  L 479.76 253.34
  L 477.20 247.48
  L 474.79 242.00
  L 473.45 237.63
  L 471.94 229.25
  L 471.35 227.46
  L 470.52 229.15
  L 468.61 237.46
  L 467.72 244.79
  L 467.99 250.27
  L 469.37 253.84
  L 474.50 261.56
  L 474.65 261.90
  L 474.42 263.14
  L 473.30 263.72
  L 451.33 263.23
  L 444.34 261.86
  L 440.87 261.16
  L 437.09 260.40
  L 434.68 259.32
  L 422.88 251.35
  L 414.81 244.81
  L 411.10 240.39
  L 408.63 236.31
  L 407.57 230.61
  L 406.61 224.79
  L 405.07 220.45
  L 404.90 220.21
  L 404.71 220.45
  L 402.95 225.50
  L 401.21 233.81
  L 400.32 244.73
  L 400.22 246.52
  L 400.51 255.76
  L 402.48 264.33
  L 406.99 276.34
  L 407.43 277.44
  L 417.47 302.00
  L 424.00 323.60
  L 424.79 327.58
  L 424.80 334.74
  L 423.77 336.12
  L 422.07 335.87
  L 421.53 335.07
  L 417.96 325.20
  L 413.76 317.86
  L 408.01 311.52
  L 403.21 308.85
  L 398.70 306.59
  L 395.62 304.29
  L 387.71 298.31
  L 381.53 293.86
  L 377.46 289.57
  L 377.14 289.31
  L 377.08 289.72
  L 378.01 293.22
  L 386.35 309.81
  L 387.03 311.31
  L 390.19 318.03
  L 395.85 330.33
  L 399.29 339.75
  L 401.21 350.30
  L 401.32 355.26
  L 400.80 359.73
  L 398.94 366.15
  L 396.12 372.42
  L 392.32 378.55
  L 387.55 384.52
  L 387.04 385.28
  L 387.01 388.38
  L 387.22 388.66
  L 387.54 388.53
  L 393.52 382.02
  L 396.70 377.18
  L 397.03 376.86
  L 397.89 376.88
  L 398.29 377.64
  Z
  M 582.50 225.32
  L 582.44 225.22
  L 582.09 225.35
  L 582.07 231.19
  L 583.39 239.61
  L 584.13 243.77
  L 587.02 257.11
  L 588.37 263.26
  L 590.28 276.38
  L 590.32 276.47
  L 590.39 276.50
  L 590.44 276.51
  L 590.49 276.50
  L 590.58 276.45
  L 590.64 276.24
  L 591.23 272.74
  L 592.93 269.68
  L 595.23 267.69
  L 598.05 266.84
  L 600.00 267.07
  L 602.02 268.00
  L 602.45 268.10
  L 602.62 267.70
  L 602.28 265.75
  L 600.06 263.86
  L 597.88 262.19
  L 595.77 259.32
  L 592.18 250.28
  L 590.97 246.71
  L 588.11 239.82
  L 582.50 225.32
  Z
  M 432.11 233.08
  L 430.45 234.46
  L 430.29 235.39
  L 431.24 237.83
  L 431.15 240.78
  L 431.05 243.75
  L 431.17 244.35
  L 433.17 248.05
  L 433.17 248.05
  L 435.55 249.58
  L 438.75 250.28
  L 443.06 250.28
  L 446.74 249.58
  L 449.54 248.25
  L 451.59 246.12
  L 452.05 245.21
  L 452.05 244.39
  L 451.47 243.80
  L 445.73 240.93
  L 439.27 236.58
  L 438.53 236.35
  L 435.43 235.72
  L 433.23 233.31
  L 432.17 233.03
  L 432.11 233.08
  Z
  M 596.17 271.42
  L 594.40 275.54
  L 594.70 279.78
  L 596.73 282.93
  L 597.05 283.21
  L 599.13 284.01
  L 601.57 283.83
  L 604.51 282.79
  L 607.35 281.03
  L 607.61 280.17
  L 604.84 272.83
  L 603.54 271.10
  L 601.64 269.97
  L 599.50 269.61
  L 597.45 270.21
  L 596.17 271.42
  Z
  M 623.14 275.10
  L 620.71 273.38
  L 617.18 271.79
  L 608.97 269.96
  L 608.56 270.06
  L 608.57 270.47
  L 611.49 278.47
  L 612.38 278.93
  L 622.98 275.80
  L 623.37 275.52
  L 623.14 275.10
  Z
  M 591.82 282.62
  L 591.50 282.34
  L 591.42 282.75
  L 592.03 300.25
  L 592.03 300.28
  L 592.70 300.80
  L 597.84 300.34
  L 602.92 300.52
  L 607.80 301.30
  L 612.61 302.69
  L 613.00 302.76
  L 614.06 302.26
  L 614.29 301.11
  L 609.96 285.56
  L 609.70 285.17
  L 609.23 285.17
  L 607.20 285.86
  L 601.34 287.51
  L 597.21 287.23
  L 594.48 285.68
  L 591.82 282.62
  Z
  M 591.65 312.87
  L 591.52 313.68
  L 590.30 316.79
  L 589.12 319.62
  L 589.09 319.81
  L 589.39 320.56
  L 590.16 320.80
  L 602.96 318.40
  L 605.47 317.31
  L 607.41 315.52
  L 608.61 313.24
  L 608.96 310.67
  L 608.10 307.63
  L 607.24 306.97
  L 600.71 305.90
  L 593.00 305.79
  L 592.25 306.15
  L 591.95 306.92
  L 591.65 312.87
  Z
  M 576.49 452.51
  L 576.43 451.50
  L 575.65 451.08
  L 575.20 451.38
  L 574.53 452.77
  L 574.29 454.43
  L 574.43 454.82
  L 574.82 454.67
  L 575.76 453.72
  L 576.49 452.51
  Z"
/>
<path fill="none" stroke-width="1.00" stroke="#000000" d="
  M 421.88 219.53
  L 417.55 217.27
  L 408.78 212.30
  L 408.11 211.46
  L 408.13 210.39
  L 413.73 194.80
  L 417.88 185.86
  L 422.10 176.79
  L 422.28 176.59
  L 422.92 177.01
  L 422.36 185.45
  L 422.56 193.85
  L 424.39 206.92
  L 427.08 216.59
  L 428.70 222.03
  L 428.14 222.72
  L 427.95 222.67
  L 421.88 219.53
  Z"
/>
<path fill="none" stroke-width="1.00" stroke="#000000" d="
  M 442.02 229.96
  L 439.30 227.69
  L 438.75 224.63
  L 439.43 217.08
  L 440.75 209.68
  L 443.25 200.77
  L 446.72 192.07
  L 446.80 191.98
  L 447.13 192.17
  L 447.05 194.35
  L 447.00 211.20
  L 447.64 217.19
  L 448.75 222.18
  L 452.79 236.16
  L 452.79 236.54
  L 452.41 236.44
  L 449.23 234.40
  L 442.02 229.96
  Z"
/>
<path fill="none" stroke-width="1.00" stroke="#000000" d="
  M 478.43 201.73
  L 482.84 202.89
  L 487.28 205.13
  L 491.22 208.13
  L 494.13 211.58
  L 495.23 213.23
  L 498.60 219.13
  L 499.06 221.26
  L 498.71 223.22
  L 497.85 224.42
  L 495.91 225.72
  L 492.69 226.14
  L 489.44 225.10
  L 486.29 222.74
  L 484.15 219.66
  L 477.68 206.05
  L 477.39 204.48
  L 477.75 202.19
  L 477.99 201.81
  L 478.43 201.73
  Z"
/>
<path fill="none" stroke-width="1.00" stroke="#000000" d="
  M 665.57 315.67
  L 668.16 304.76
  L 669.01 296.01
  L 669.13 283.16
  L 669.12 260.63
  L 667.99 244.50
  L 665.92 232.63
  L 661.80 214.41
  L 659.43 209.13
  L 659.38 209.04
  L 659.32 208.70
  L 659.61 208.52
  L 659.89 208.47
  L 660.26 208.51
  L 660.49 208.80
  L 661.60 211.32
  L 663.13 214.97
  L 668.63 232.45
  L 671.02 240.89
  L 671.25 241.75
  L 673.08 252.78
  L 674.45 278.10
  L 674.53 301.75
  L 673.13 308.73
  L 671.91 313.83
  L 671.82 314.52
  L 670.40 321.10
  L 670.13 321.78
  L 665.88 332.46
  L 665.64 332.78
  L 665.24 332.86
  L 660.02 332.40
  L 659.66 332.23
  L 659.68 331.83
  L 661.53 326.51
  L 662.15 321.79
  L 661.29 315.46
  L 659.11 308.80
  L 656.34 302.31
  L 649.01 289.78
  L 649.36 288.82
  L 649.58 288.80
  L 650.97 289.78
  L 652.10 291.11
  L 657.23 297.50
  L 660.35 302.86
  L 662.45 307.76
  L 665.39 315.68
  L 665.48 315.81
  L 665.57 315.67
  Z"
/>
<path fill="none" stroke-width="1.00" stroke="#000000" d="
  M 476.96 214.13
  L 480.18 223.31
  L 480.97 224.92
  L 483.37 227.93
  L 484.45 228.98
  L 488.49 232.12
  L 489.64 232.56
  L 493.68 233.21
  L 497.15 232.52
  L 497.15 232.52
  L 500.04 230.48
  L 502.35 227.09
  L 502.60 227.08
  L 502.62 227.17
  L 502.12 232.06
  L 501.37 238.62
  L 500.12 243.39
  L 496.43 254.65
  L 493.27 267.80
  L 492.40 277.91
  L 492.24 281.96
  L 492.17 282.11
  L 492.03 282.14
  L 491.75 282.13
  L 491.74 282.13
  L 491.74 282.12
  L 491.18 277.68
  L 489.39 271.07
  L 485.74 262.01
  L 484.66 257.97
  L 483.28 252.93
  L 480.83 246.41
  L 478.87 239.38
  L 478.91 238.92
  L 479.37 239.00
  L 480.49 239.86
  L 481.23 241.05
  L 485.82 252.78
  L 486.87 253.18
  L 486.96 253.12
  L 487.36 252.71
  L 487.66 250.72
  L 486.56 246.18
  L 484.90 241.89
  L 484.90 241.89
  L 481.93 236.72
  L 479.32 231.80
  L 478.51 229.56
  L 476.86 224.46
  L 476.33 220.41
  L 476.60 214.16
  L 476.73 213.67
  L 476.96 214.13
  Z"
/>
<path fill="none" stroke-width="1.00" stroke="#000000" d="
  M 398.29 377.64
  L 397.89 376.88
  L 397.03 376.86
  L 396.70 377.18
  L 393.52 382.02
  L 387.54 388.53
  L 387.22 388.66
  L 387.01 388.38
  L 387.04 385.28
  L 387.55 384.52
  L 392.32 378.55
  L 396.12 372.42
  L 398.94 366.15
  L 400.80 359.73
  L 401.32 355.26
  L 401.21 350.30
  L 399.29 339.75
  L 395.85 330.33
  L 390.19 318.03
  L 387.03 311.31
  L 386.35 309.81
  L 378.01 293.22
  L 377.08 289.72
  L 377.14 289.31
  L 377.46 289.57
  L 381.53 293.86
  L 387.71 298.31
  L 395.62 304.29
  L 398.70 306.59
  L 403.21 308.85
  L 408.01 311.52
  L 413.76 317.86
  L 417.96 325.20
  L 421.53 335.07
  L 422.07 335.87
  L 423.77 336.12
  L 424.80 334.74
  L 424.79 327.58
  L 424.00 323.60
  L 417.47 302.00
  L 407.43 277.44
  L 406.99 276.34
  L 402.48 264.33
  L 400.51 255.76
  L 400.22 246.52
  L 400.32 244.73
  L 401.21 233.81
  L 402.95 225.50
  L 404.71 220.45
  L 404.90 220.21
  L 405.07 220.45
  L 406.61 224.79
  L 407.57 230.61
  L 408.63 236.31
  L 411.10 240.39
  L 414.81 244.81
  L 422.88 251.35
  L 434.68 259.32
  L 437.09 260.40
  L 440.87 261.16
  L 444.34 261.86
  L 451.33 263.23
  L 473.30 263.72
  L 474.42 263.14
  L 474.65 261.90
  L 474.50 261.56
  L 469.37 253.84
  L 467.98 250.24
  L 467.73 244.73
  L 468.62 237.42
  L 470.52 229.15
  L 471.35 227.46
  L 471.94 229.25
  L 473.45 237.63
  L 474.79 242.00
  L 477.20 247.48
  L 479.76 253.34
  L 481.11 258.08
  L 483.77 269.45
  L 487.07 277.25
  L 489.51 282.68
  L 490.52 288.36
  L 491.58 294.28
  L 493.06 298.27
  L 494.24 299.14
  L 495.66 298.77
  L 495.91 298.51
  L 496.54 295.23
  L 496.40 279.41
  L 498.01 266.54
  L 501.18 253.77
  L 501.44 253.41
  L 501.84 253.63
  L 502.18 254.75
  L 503.40 266.59
  L 505.41 278.28
  L 505.41 278.28
  L 508.81 291.95
  L 511.26 299.02
  L 514.68 306.67
  L 530.14 337.29
  L 530.20 337.65
  L 529.96 337.93
  L 527.58 340.09
  L 525.17 343.83
  L 522.92 348.92
  L 521.02 354.77
  L 519.65 362.28
  L 518.64 373.38
  L 517.37 378.67
  L 514.40 388.00
  L 514.30 388.42
  L 514.29 388.48
  L 513.22 389.89
  L 511.46 390.11
  L 509.93 389.57
  L 507.70 388.92
  L 506.73 388.87
  L 500.19 388.66
  L 493.82 387.67
  L 493.82 387.67
  L 486.11 385.33
  L 478.68 381.77
  L 478.03 381.96
  L 478.02 381.99
  L 477.30 384.67
  L 477.55 387.02
  L 477.55 387.02
  L 478.58 388.84
  L 480.36 390.41
  L 484.10 392.31
  L 489.49 394.09
  L 494.18 395.04
  L 499.17 395.33
  L 500.22 395.32
  L 516.28 394.35
  L 516.69 394.18
  L 516.87 393.75
  L 518.92 384.91
  L 520.06 380.75
  L 523.04 368.51
  L 524.48 365.31
  L 524.71 364.55
  L 524.40 363.20
  L 523.77 362.53
  L 523.50 362.17
  L 523.58 361.72
  L 526.23 355.06
  L 527.64 347.24
  L 527.70 346.73
  L 527.70 346.73
  L 528.86 343.37
  L 531.28 340.20
  L 531.51 340.09
  L 531.70 340.27
  L 538.89 355.52
  L 544.38 369.39
  L 546.94 379.93
  L 547.88 392.65
  L 548.12 412.25
  L 547.65 416.63
  L 546.26 421.06
  L 545.65 422.81
  L 544.91 428.21
  L 545.70 428.69
  L 545.91 428.46
  L 549.82 422.21
  L 556.42 415.06
  L 559.11 412.34
  L 559.17 412.28
  L 559.85 410.95
  L 560.06 408.82
  L 560.22 407.09
  L 560.47 406.24
  L 561.31 404.17
  L 561.60 403.89
  L 561.90 404.15
  L 561.95 404.26
  L 562.02 404.60
  L 561.86 405.05
  L 561.04 408.05
  L 562.57 410.83
  L 563.06 411.71
  L 563.45 413.46
  L 565.26 424.86
  L 565.44 439.13
  L 564.93 454.99
  L 565.23 456.52
  L 566.22 457.59
  L 566.74 457.74
  L 567.21 457.48
  L 568.28 455.99
  L 568.91 453.80
  L 568.96 453.65
  L 569.53 453.67
  L 571.54 457.09
  L 571.56 457.12
  L 571.26 457.91
  L 568.10 459.18
  L 560.80 462.38
  L 553.57 465.86
  L 546.13 468.74
  L 546.13 468.74
  L 538.08 471.11
  L 529.79 472.81
  L 523.90 474.45
  L 519.38 475.65
  L 515.41 476.67
  L 506.88 479.00
  L 499.02 481.14
  L 489.05 484.67
  L 474.70 490.26
  L 474.55 490.32
  L 474.55 490.32
  L 472.48 490.55
  L 470.06 489.84
  L 469.13 489.75
  L 463.27 491.44
  L 454.59 493.73
  L 441.49 496.76
  L 439.04 497.21
  L 437.15 497.00
  L 433.78 494.91
  L 430.22 492.52
  L 430.01 492.43
  L 421.70 488.61
  L 416.33 484.78
  L 413.23 481.30
  L 399.80 463.23
  L 388.50 446.75
  L 387.58 445.34
  L 374.44 426.67
  L 374.10 426.43
  L 373.70 426.53
  L 373.34 426.89
  L 373.24 427.44
  L 375.41 430.51
  L 377.64 433.12
  L 378.27 435.29
  L 378.27 435.30
  L 378.16 435.61
  L 377.88 435.44
  L 377.41 434.91
  L 374.00 430.86
  L 371.81 427.42
  L 371.35 426.49
  L 356.70 392.78
  L 354.16 384.89
  L 354.16 384.89
  L 352.47 374.70
  L 352.39 364.10
  L 352.52 363.66
  L 352.85 363.35
  L 358.79 359.84
  L 359.82 359.93
  L 363.81 363.11
  L 370.01 367.58
  L 375.42 372.77
  L 379.37 377.69
  L 382.75 383.12
  L 384.43 387.97
  L 383.98 393.64
  L 384.03 394.28
  L 384.89 394.89
  L 385.83 394.40
  L 387.84 391.01
  L 387.96 390.87
  L 388.18 390.69
  L 395.68 383.51
  L 397.63 380.33
  L 398.29 377.64
  Z
  M 505.54 427.57
  L 504.14 426.40
  L 503.72 425.44
  L 502.38 424.24
  L 499.94 423.46
  L 498.53 423.22
  L 491.41 421.68
  L 485.05 419.89
  L 477.18 417.60
  L 471.54 415.26
  L 442.95 400.02
  L 437.92 396.86
  L 433.62 393.32
  L 431.44 391.69
  L 429.87 390.59
  L 409.68 375.09
  L 408.43 375.34
  L 408.39 375.43
  L 408.12 376.92
  L 409.18 378.91
  L 412.10 381.02
  L 413.80 382.14
  L 413.99 382.97
  L 413.59 385.00
  L 414.80 386.96
  L 415.77 388.21
  L 419.79 395.04
  L 420.10 395.45
  L 420.46 395.73
  L 423.68 397.71
  L 423.99 398.22
  L 425.38 415.97
  L 425.63 416.65
  L 426.88 417.19
  L 427.95 416.36
  L 430.27 412.57
  L 433.84 409.73
  L 435.09 409.45
  L 436.22 410.03
  L 438.97 412.73
  L 446.63 419.41
  L 450.93 421.52
  L 456.92 423.32
  L 461.75 424.69
  L 470.40 426.57
  L 482.73 427.71
  L 492.02 428.48
  L 497.97 428.44
  L 502.33 428.17
  L 507.46 428.44
  L 507.74 428.41
  L 508.07 428.23
  L 508.29 427.95
  L 507.95 427.81
  L 505.54 427.57
  Z
  M 457.40 444.21
  L 447.90 440.96
  L 439.07 436.08
  L 438.92 435.99
  L 438.13 436.01
  L 437.64 436.63
  L 437.75 438.85
  L 439.60 440.70
  L 441.60 441.78
  L 451.06 446.27
  L 454.68 447.12
  L 457.38 447.03
  L 458.46 446.03
  L 458.11 444.60
  L 458.11 444.60
  L 457.40 444.21
  Z"
/>
<path fill="none" stroke-width="1.00" stroke="#000000" d="
  M 582.50 225.32
  L 588.11 239.82
  L 590.97 246.71
  L 592.18 250.28
  L 595.77 259.32
  L 597.88 262.19
  L 600.06 263.86
  L 602.28 265.75
  L 602.62 267.70
  L 602.45 268.10
  L 602.02 268.00
  L 600.00 267.07
  L 598.05 266.84
  L 595.23 267.69
  L 592.93 269.68
  L 591.23 272.74
  L 590.64 276.24
  L 590.58 276.45
  L 590.49 276.50
  L 590.44 276.51
  L 590.39 276.50
  L 590.32 276.47
  L 590.28 276.38
  L 588.37 263.26
  L 587.02 257.11
  L 584.13 243.77
  L 583.39 239.61
  L 582.07 231.19
  L 582.09 225.35
  L 582.44 225.22
  L 582.50 225.32
  Z"
/>
<path fill="none" stroke-width="1.00" stroke="#000000" d="
  M 433.23 233.31
  L 435.43 235.72
  L 438.53 236.35
  L 439.27 236.58
  L 445.73 240.93
  L 451.47 243.80
  L 452.05 244.39
  L 452.05 245.21
  L 451.59 246.12
  L 449.54 248.25
  L 446.74 249.58
  L 443.06 250.28
  L 438.75 250.28
  L 435.55 249.58
  L 433.17 248.05
  L 433.17 248.05
  L 431.17 244.35
  L 431.05 243.75
  L 431.15 240.78
  L 431.24 237.83
  L 430.29 235.39
  L 430.45 234.46
  L 432.11 233.08
  L 432.17 233.03
  L 433.23 233.31
  Z"
/>
<path fill="none" stroke-width="1.00" stroke="#000000" d="
  M 688.20 366.18
  L 693.46 359.83
  L 696.63 352.75
  L 701.24 338.25
  L 702.33 332.41
  L 702.51 324.08
  L 702.50 320.52
  L 702.50 296.66
  L 701.69 278.25
  L 700.02 266.78
  L 696.57 253.04
  L 696.29 252.24
  L 694.66 249.57
  L 694.32 249.11
  L 694.60 248.61
  L 694.79 248.70
  L 696.98 252.27
  L 702.77 270.38
  L 704.61 279.04
  L 705.99 289.06
  L 707.27 303.99
  L 707.83 329.82
  L 706.52 339.56
  L 700.05 361.79
  L 697.68 366.82
  L 694.63 371.31
  L 691.16 375.00
  L 687.08 378.21
  L 685.98 378.06
  L 685.56 376.97
  L 686.18 376.15
  L 686.52 375.85
  L 686.78 375.39
  L 688.72 370.18
  L 688.33 369.73
  L 688.16 369.83
  L 686.61 372.38
  L 685.37 374.49
  L 684.10 375.86
  L 681.72 377.96
  L 680.16 378.88
  L 679.01 378.91
  L 679.01 378.91
  L 679.01 378.91
  L 678.19 377.83
  L 677.90 375.59
  L 678.26 374.34
  L 681.66 367.27
  L 682.56 363.09
  L 682.83 358.43
  L 681.98 342.52
  L 680.53 331.58
  L 678.92 324.41
  L 675.99 314.82
  L 674.36 309.72
  L 674.75 309.07
  L 674.82 309.06
  L 676.81 309.54
  L 678.10 311.27
  L 680.73 317.66
  L 684.66 328.24
  L 687.47 344.21
  L 687.47 344.21
  L 688.10 355.03
  L 687.74 365.96
  L 687.83 366.38
  L 688.20 366.18
  Z"
/>
<path fill="none" stroke-width="1.00" stroke="#000000" d="
  M 276.99 318.10
  L 280.05 300.48
  L 280.64 293.32
  L 281.81 279.00
  L 283.48 262.06
  L 284.20 261.74
  L 284.35 261.95
  L 284.63 264.00
  L 283.89 280.82
  L 283.24 293.85
  L 282.50 305.44
  L 281.31 315.89
  L 278.62 335.69
  L 276.39 349.86
  L 271.02 372.82
  L 269.84 378.74
  L 268.37 385.28
  L 265.23 393.41
  L 264.26 395.74
  L 260.24 406.94
  L 252.60 430.93
  L 245.49 450.82
  L 238.03 469.05
  L 229.90 486.35
  L 225.41 494.56
  L 220.20 504.20
  L 217.10 511.99
  L 211.75 525.30
  L 209.15 531.18
  L 206.02 541.04
  L 203.72 548.48
  L 200.16 556.89
  L 197.80 563.05
  L 195.71 571.57
  L 194.58 576.51
  L 193.64 581.90
  L 193.59 586.63
  L 193.13 586.88
  L 193.02 586.72
  L 192.90 586.23
  L 192.21 581.97
  L 192.14 577.20
  L 193.91 565.43
  L 194.76 561.05
  L 197.59 554.33
  L 200.18 548.92
  L 201.40 544.77
  L 204.00 533.81
  L 209.06 519.62
  L 210.60 515.58
  L 212.30 509.99
  L 215.49 500.98
  L 224.29 484.71
  L 232.13 468.01
  L 232.13 468.01
  L 232.13 468.01
  L 237.54 454.75
  L 242.37 441.24
  L 248.66 422.93
  L 253.11 410.07
  L 262.36 387.05
  L 262.71 386.26
  L 265.46 375.77
  L 266.25 371.89
  L 273.04 343.50
  L 274.96 331.15
  L 276.99 318.10
  Z"
/>
<path fill="none" stroke-width="1.00" stroke="#000000" d="
  M 596.73 282.93
  L 594.70 279.78
  L 594.40 275.54
  L 596.17 271.42
  L 597.45 270.21
  L 599.50 269.61
  L 601.64 269.97
  L 603.54 271.10
  L 604.84 272.83
  L 607.61 280.17
  L 607.35 281.03
  L 604.51 282.79
  L 601.57 283.83
  L 599.13 284.01
  L 597.05 283.21
  L 596.73 282.93
  Z"
/>
<path fill="none" stroke-width="1.00" stroke="#000000" d="
  M 608.97 269.96
  L 617.18 271.79
  L 620.71 273.38
  L 623.14 275.10
  L 623.37 275.52
  L 622.98 275.80
  L 612.38 278.93
  L 611.49 278.47
  L 608.57 270.47
  L 608.56 270.06
  L 608.97 269.96
  Z"
/>
<path fill="none" stroke-width="1.00" stroke="#000000" d="
  M 591.82 282.62
  L 594.48 285.68
  L 597.21 287.23
  L 601.34 287.51
  L 607.20 285.86
  L 609.23 285.17
  L 609.70 285.17
  L 609.96 285.56
  L 614.29 301.11
  L 614.06 302.26
  L 613.00 302.76
  L 612.61 302.69
  L 607.80 301.30
  L 602.92 300.52
  L 602.92 300.52
  L 597.84 300.34
  L 592.70 300.80
  L 592.03 300.28
  L 592.03 300.25
  L 591.42 282.75
  L 591.50 282.34
  L 591.82 282.62
  Z"
/>
<path fill="none" stroke-width="1.00" stroke="#000000" d="
  M 616.7846 288.0792
  L 616.3370 285.7469
  L 617.3954 283.6208
  L 617.8430 285.9531
  L 616.7846 288.0792
  Z"
/>
<path fill="none" stroke-width="1.00" stroke="#000000" d="
  M 622.76 304.22
  L 622.53 304.16
  L 622.48 304.07
  L 622.45 303.97
  L 618.92 291.32
  L 618.92 291.32
  L 619.51 291.13
  L 623.80 303.55
  L 623.83 303.64
  L 623.68 303.93
  L 622.76 304.22
  Z"
/>
<path fill="none" stroke-width="1.00" stroke="#000000" d="
  M 591.65 312.87
  L 591.95 306.92
  L 592.25 306.15
  L 593.00 305.79
  L 600.71 305.90
  L 607.24 306.97
  L 608.10 307.63
  L 608.96 310.67
  L 608.61 313.24
  L 607.41 315.52
  L 605.47 317.31
  L 602.96 318.40
  L 590.16 320.80
  L 589.39 320.56
  L 589.09 319.81
  L 589.12 319.62
  L 590.30 316.79
  L 591.52 313.68
  L 591.65 312.87
  Z"
/>
<path fill="none" stroke-width="1.00" stroke="#000000" d="
  M 607.02 472.78
  L 608.69 469.22
  L 610.40 467.05
  L 612.60 465.53
  L 615.67 464.34
  L 623.16 462.45
  L 629.69 461.37
  L 636.42 459.73
  L 653.08 453.85
  L 655.11 453.20
  L 657.85 451.98
  L 660.18 450.21
  L 662.01 448.00
  L 663.21 445.47
  L 665.63 438.22
  L 669.19 427.22
  L 671.25 418.98
  L 672.58 411.80
  L 674.90 395.64
  L 675.01 393.04
  L 675.47 388.10
  L 675.78 387.64
  L 676.67 387.58
  L 677.11 388.36
  L 675.68 413.27
  L 674.34 423.70
  L 671.92 432.98
  L 670.22 438.02
  L 667.33 447.52
  L 666.65 449.39
  L 664.91 452.25
  L 662.56 454.66
  L 659.43 456.76
  L 655.82 458.33
  L 638.74 464.49
  L 632.98 465.66
  L 627.45 466.52
  L 619.27 468.25
  L 615.32 469.44
  L 612.96 471.00
  L 611.15 474.38
  L 610.79 476.83
  L 611.14 479.04
  L 611.14 479.04
  L 612.61 481.50
  L 615.22 483.57
  L 615.45 483.85
  L 615.31 484.18
  L 612.26 487.65
  L 611.81 487.85
  L 610.22 487.44
  L 609.03 486.20
  L 604.40 478.31
  L 601.55 473.62
  L 598.09 466.14
  L 596.82 462.39
  L 593.96 452.73
  L 593.49 445.49
  L 594.10 438.36
  L 594.56 429.27
  L 595.70 425.42
  L 598.89 420.40
  L 604.13 414.28
  L 610.20 408.42
  L 614.82 406.08
  L 619.75 403.78
  L 622.84 401.14
  L 625.63 396.74
  L 635.03 381.62
  L 647.65 364.98
  L 649.43 362.35
  L 650.99 359.99
  L 666.57 340.32
  L 669.93 335.30
  L 672.96 328.81
  L 673.27 328.40
  L 673.72 328.24
  L 676.99 327.91
  L 678.19 328.38
  L 678.51 329.62
  L 678.34 330.04
  L 676.18 333.75
  L 670.10 343.25
  L 656.08 360.81
  L 654.92 362.69
  L 653.66 364.76
  L 642.14 379.17
  L 642.09 379.23
  L 635.73 387.96
  L 633.13 391.83
  L 627.12 401.77
  L 627.09 402.13
  L 627.43 402.27
  L 633.67 401.67
  L 636.24 400.95
  L 638.04 400.90
  L 638.46 401.66
  L 637.91 402.31
  L 634.43 404.09
  L 627.79 406.01
  L 621.94 407.78
  L 616.60 410.41
  L 612.02 413.70
  L 607.90 417.76
  L 606.24 419.60
  L 601.49 425.49
  L 599.39 430.71
  L 599.18 432.60
  L 598.19 446.74
  L 598.54 451.04
  L 600.36 457.07
  L 601.10 459.27
  L 603.14 465.14
  L 606.40 472.80
  L 606.72 473.14
  L 607.02 472.78
  Z"
/>
<path fill="none" stroke-width="1.00" stroke="#000000" d="
  M 128.70 720.00
  L 93.43 720.00
  L 87.70 717.20
  L 82.20 713.28
  L 78.73 709.61
  L 75.79 704.96
  L 73.22 699.16
  L 71.30 692.81
  L 69.98 685.73
  L 69.45 678.76
  L 69.75 672.27
  L 70.90 666.64
  L 72.22 664.72
  L 73.49 664.29
  L 75.68 664.00
  L 81.78 663.54
  L 85.75 664.74
  L 86.27 665.33
  L 86.06 666.91
  L 84.56 668.27
  L 80.94 669.66
  L 76.26 669.58
  L 75.41 669.79
  L 74.97 670.54
  L 74.97 670.54
  L 74.97 670.55
  L 74.48 677.25
  L 74.79 684.26
  L 75.88 690.86
  L 77.80 697.22
  L 80.25 702.49
  L 83.44 707.20
  L 87.10 710.92
  L 91.46 713.87
  L 95.52 715.58
  L 100.07 716.62
  L 113.44 716.85
  L 119.65 716.41
  L 125.34 715.37
  L 134.40 712.15
  L 140.18 710.04
  L 147.08 707.44
  L 148.89 707.09
  L 150.81 708.29
  L 151.21 708.51
  L 151.62 708.30
  L 152.38 707.27
  L 152.98 704.74
  L 153.00 672.75
  L 152.72 670.67
  L 151.88 668.69
  L 151.04 668.02
  L 147.82 667.32
  L 143.50 667.33
  L 142.63 667.78
  L 142.25 668.68
  L 140.96 682.03
  L 138.38 695.33
  L 136.06 699.34
  L 131.68 704.25
  L 129.07 705.91
  L 125.67 707.10
  L 116.42 708.21
  L 105.09 707.38
  L 100.20 706.29
  L 96.41 704.86
  L 93.03 702.34
  L 90.62 698.89
  L 89.56 695.22
  L 89.93 691.46
  L 90.99 689.26
  L 92.75 687.23
  L 93.07 686.28
  L 91.55 680.36
  L 88.81 672.64
  L 88.15 668.80
  L 88.53 663.05
  L 88.81 659.80
  L 89.11 628.20
  L 89.17 627.97
  L 89.98 627.96
  L 90.29 628.50
  L 91.37 633.01
  L 92.07 665.77
  L 92.22 667.58
  L 94.55 674.39
  L 94.92 675.22
  L 95.26 675.99
  L 97.84 685.68
  L 98.12 687.13
  L 98.78 688.26
  L 99.99 688.73
  L 114.14 688.89
  L 128.51 688.36
  L 130.54 687.96
  L 132.10 687.03
  L 132.15 686.99
  L 133.50 685.33
  L 134.06 683.59
  L 134.06 683.59
  L 134.08 683.25
  L 135.52 666.93
  L 136.71 655.57
  L 137.65 642.63
  L 137.63 642.53
  L 137.55 642.50
  L 137.30 642.50
  L 137.22 642.52
  L 137.17 642.59
  L 136.75 644.81
  L 136.53 647.07
  L 136.32 647.62
  L 135.73 647.73
  L 134.30 647.53
  L 134.26 647.52
  L 133.59 646.49
  L 134.14 643.84
  L 135.55 638.18
  L 136.20 636.39
  L 138.83 628.48
  L 139.99 622.48
  L 140.31 614.84
  L 140.60 613.81
  L 141.41 613.11
  L 144.96 611.49
  L 145.44 610.71
  L 145.23 607.97
  L 144.27 601.25
  L 142.62 597.58
  L 141.27 596.38
  L 139.67 595.84
  L 137.79 596.18
  L 135.80 597.62
  L 130.58 601.67
  L 126.83 604.36
  L 123.14 606.81
  L 119.00 607.69
  L 114.33 608.42
  L 108.97 609.17
  L 107.02 609.17
  L 101.23 609.55
  L 99.48 610.23
  L 98.19 611.40
  L 97.77 612.23
  L 96.83 617.50
  L 96.99 619.78
  L 96.99 619.81
  L 96.75 620.64
  L 95.98 621.04
  L 91.94 621.36
  L 91.12 621.80
  L 89.63 623.38
  L 71.04 634.78
  L 66.34 638.23
  L 61.71 641.69
  L 57.99 643.69
  L 48.34 647.81
  L 39.85 650.91
  L 31.80 653.81
  L 12.53 661.80
  L 7.73 662.59
  L 1.05 662.42
  L 0.42 661.92
  L 0.00 660.61
  L 0.00 659.49
  L 0.50 656.96
  L 0.73 656.55
  L 1.20 656.53
  L 4.54 657.22
  L 7.83 657.27
  L 12.65 656.17
  L 22.98 651.92
  L 26.77 650.19
  L 40.64 644.06
  L 46.24 641.56
  L 54.30 637.44
  L 61.09 632.74
  L 67.50 628.80
  L 72.56 626.74
  L 77.94 625.35
  L 80.91 624.37
  L 84.70 622.31
  L 88.73 620.14
  L 89.08 619.85
  L 89.19 619.42
  L 89.51 614.49
  L 90.56 610.33
  L 92.29 607.03
  L 94.89 604.42
  L 97.20 603.20
  L 100.01 602.50
  L 108.84 602.28
  L 117.74 604.10
  L 120.14 603.72
  L 122.09 602.42
  L 127.71 598.00
  L 133.28 594.99
  L 138.13 593.88
  L 141.95 594.69
  L 143.61 595.91
  L 145.03 597.76
  L 146.81 602.79
  L 147.46 603.49
  L 152.40 603.99
  L 155.22 603.39
  L 158.22 602.09
  L 168.07 597.48
  L 176.57 594.59
  L 191.03 590.04
  L 193.00 589.40
  L 195.66 589.02
  L 199.01 588.71
  L 204.17 587.70
  L 209.60 585.92
  L 223.37 579.22
  L 225.81 577.92
  L 230.87 575.58
  L 237.88 572.17
  L 242.54 568.55
  L 244.74 566.28
  L 254.31 555.98
  L 260.24 547.96
  L 260.29 547.88
  L 266.15 539.39
  L 274.62 528.48
  L 280.92 520.44
  L 285.64 512.26
  L 288.63 506.72
  L 296.94 492.90
  L 304.42 479.19
  L 308.16 471.09
  L 312.37 460.21
  L 312.45 459.07
  L 311.75 458.16
  L 310.74 457.43
  L 310.47 456.63
  L 311.15 454.00
  L 312.46 449.65
  L 317.69 437.11
  L 322.02 424.57
  L 325.43 412.03
  L 327.93 399.49
  L 327.96 398.72
  L 326.54 396.21
  L 326.24 395.27
  L 327.55 390.72
  L 328.67 386.88
  L 334.27 362.43
  L 335.80 353.98
  L 336.33 350.56
  L 336.59 349.99
  L 336.81 349.85
  L 337.25 349.78
  L 337.25 349.78
  L 337.84 350.48
  L 336.21 366.01
  L 334.65 372.79
  L 333.59 377.92
  L 333.45 382.96
  L 333.85 383.50
  L 334.51 383.38
  L 334.70 383.00
  L 336.28 370.42
  L 336.42 370.14
  L 336.72 370.24
  L 337.55 371.62
  L 337.91 373.93
  L 337.37 381.55
  L 335.17 393.00
  L 331.22 408.51
  L 322.95 443.90
  L 320.89 447.32
  L 318.86 450.44
  L 317.56 454.93
  L 316.57 458.51
  L 306.39 486.13
  L 306.31 486.88
  L 306.66 487.54
  L 314.32 497.18
  L 318.30 502.41
  L 322.34 507.43
  L 330.23 517.09
  L 336.08 523.42
  L 344.98 531.18
  L 356.79 539.08
  L 361.29 541.26
  L 366.55 543.08
  L 376.47 546.05
  L 392.20 550.66
  L 403.57 553.43
  L 406.49 554.05
  L 421.88 556.70
  L 437.47 557.39
  L 455.57 556.59
  L 461.87 554.85
  L 471.23 550.34
  L 483.46 546.34
  L 491.75 543.54
  L 495.93 541.51
  L 497.39 541.35
  L 498.54 542.27
  L 498.02 543.76
  L 495.42 546.53
  L 491.58 549.06
  L 479.83 553.53
  L 468.96 557.68
  L 462.51 560.54
  L 453.42 562.47
  L 440.48 563.01
  L 421.78 562.09
  L 407.61 559.90
  L 399.17 557.79
  L 388.43 554.38
  L 362.84 545.85
  L 354.65 541.83
  L 344.14 534.12
  L 341.53 532.07
  L 336.29 527.61
  L 331.37 522.49
  L 323.06 512.51
  L 314.65 501.36
  L 312.42 497.96
  L 308.78 492.52
  L 305.64 488.81
  L 305.22 488.61
  L 304.94 488.97
  L 302.99 492.69
  L 301.55 494.31
  L 298.95 497.53
  L 291.32 511.06
  L 282.24 525.09
  L 271.54 539.99
  L 257.95 557.50
  L 251.66 564.27
  L 242.46 572.14
  L 241.46 572.96
  L 232.64 578.93
  L 227.28 582.03
  L 216.17 588.16
  L 207.26 591.70
  L 198.04 594.98
  L 183.36 600.61
  L 171.24 603.99
  L 158.21 605.85
  L 147.83 606.13
  L 147.02 606.87
  L 143.06 663.24
  L 143.14 663.57
  L 143.68 663.78
  L 145.89 663.82
  L 151.24 664.20
  L 154.33 665.74
  L 155.72 667.97
  L 156.29 671.50
  L 156.50 710.63
  L 156.42 711.09
  L 156.16 711.50
  L 152.38 714.30
  L 148.88 715.20
  L 145.11 714.68
  L 140.62 714.10
  L 139.72 714.49
  L 136.16 717.12
  L 132.31 718.99
  L 132.31 718.99
  L 128.70 720.00
  Z
  M 329.36 394.55
  L 330.03 394.75
  L 330.05 394.76
  L 330.27 394.63
  L 330.31 394.48
  L 332.65 385.16
  L 332.59 385.14
  L 329.28 394.17
  L 329.24 394.31
  L 329.28 394.50
  L 329.36 394.55
  Z
  M 187.3683 596.1293
  L 185.6180 595.9725
  L 183.9517 596.5307
  L 185.7020 596.6875
  L 187.3683 596.1293
  Z
  M 181.1114 597.9964
  L 177.5342 598.1605
  L 174.1686 599.3836
  L 177.7458 599.2195
  L 181.1114 597.9964
  Z
  M 104.39 700.02
  L 111.00 701.05
  L 116.54 701.30
  L 122.10 700.38
  L 127.03 698.39
  L 130.49 695.63
  L 130.63 695.31
  L 130.29 695.24
  L 120.55 695.76
  L 109.82 695.69
  L 109.23 695.67
  L 101.99 695.15
  L 97.14 693.71
  L 94.95 692.46
  L 93.62 692.40
  L 92.98 693.57
  L 92.98 693.57
  L 93.28 694.32
  L 95.73 696.68
  L 98.49 698.42
  L 104.39 700.02
  Z"
/>
<path fill="none" stroke-width="1.00" stroke="#000000" d="
  M 716.74 372.37
  L 719.19 374.08
  L 719.46 374.60
  L 719.44 379.53
  L 718.99 380.13
  L 718.22 379.74
  L 715.79 373.11
  L 715.94 372.44
  L 716.74 372.37
  Z"
/>
<path fill="none" stroke-width="1.00" stroke="#000000" d="
  M 505.54 427.57
  L 507.95 427.81
  L 508.29 427.95
  L 508.07 428.23
  L 507.74 428.41
  L 507.46 428.44
  L 502.33 428.17
  L 497.97 428.44
  L 492.02 428.48
  L 482.73 427.71
  L 470.40 426.57
  L 461.75 424.69
  L 456.92 423.32
  L 450.93 421.52
  L 446.63 419.41
  L 438.97 412.73
  L 436.22 410.03
  L 435.09 409.45
  L 433.84 409.73
  L 430.27 412.57
  L 427.95 416.36
  L 426.88 417.19
  L 425.63 416.65
  L 425.38 415.97
  L 423.99 398.22
  L 423.68 397.71
  L 420.46 395.73
  L 420.10 395.45
  L 419.79 395.04
  L 415.77 388.21
  L 414.80 386.96
  L 413.59 385.00
  L 413.99 382.97
  L 413.80 382.14
  L 412.10 381.02
  L 409.18 378.91
  L 408.12 376.92
  L 408.39 375.43
  L 408.43 375.34
  L 409.68 375.09
  L 429.87 390.59
  L 431.44 391.69
  L 433.62 393.32
  L 437.92 396.86
  L 442.95 400.02
  L 471.54 415.26
  L 477.18 417.60
  L 485.05 419.89
  L 491.41 421.68
  L 498.53 423.22
  L 499.94 423.46
  L 502.38 424.24
  L 503.72 425.44
  L 504.14 426.40
  L 505.54 427.57
  Z
  M 427.04 397.86
  L 427.36 403.93
  L 427.13 410.27
  L 427.29 412.00
  L 428.39 412.35
  L 428.55 412.20
  L 428.87 411.77
  L 432.11 408.00
  L 434.27 406.50
  L 436.43 405.10
  L 439.80 402.04
  L 439.72 401.30
  L 439.69 401.28
  L 429.30 394.32
  L 417.18 384.60
  L 416.82 384.75
  L 416.87 384.89
  L 426.95 397.61
  L 427.04 397.86
  Z
  M 490.36 424.99
  L 487.10 423.90
  L 481.29 422.13
  L 473.34 419.65
  L 465.02 415.69
  L 443.98 403.76
  L 442.55 403.93
  L 438.35 407.97
  L 438.02 408.59
  L 438.29 409.21
  L 444.37 414.74
  L 450.91 418.13
  L 460.27 420.96
  L 464.65 421.93
  L 470.58 422.75
  L 473.11 423.40
  L 476.23 424.10
  L 476.27 424.10
  L 483.43 424.48
  L 490.24 425.47
  L 490.50 425.10
  L 490.36 424.99
  Z"
/>
<path fill="none" stroke-width="1.00" stroke="#000000" d="
  M 426.95 397.61
  L 416.87 384.89
  L 416.82 384.75
  L 417.18 384.60
  L 429.30 394.32
  L 439.69 401.28
  L 439.72 401.30
  L 439.80 402.04
  L 436.43 405.10
  L 434.27 406.50
  L 432.11 408.00
  L 428.87 411.77
  L 428.55 412.20
  L 428.39 412.35
  L 427.29 412.00
  L 427.13 410.27
  L 427.36 403.93
  L 427.04 397.86
  L 426.95 397.61
  Z"
/>
<path fill="none" stroke-width="1.00" stroke="#000000" d="
  M 329.36 394.55
  L 329.26 394.47
  L 329.24 394.31
  L 329.28 394.17
  L 332.59 385.14
  L 332.59 385.14
  L 332.65 385.16
  L 330.31 394.48
  L 330.27 394.63
  L 330.03 394.75
  L 329.36 394.55
  Z"
/>
<path fill="none" stroke-width="1.00" stroke="#000000" d="
  M 490.36 424.99
  L 490.50 425.10
  L 490.24 425.47
  L 483.43 424.48
  L 476.27 424.10
  L 476.23 424.10
  L 473.11 423.40
  L 470.58 422.75
  L 464.65 421.93
  L 460.27 420.96
  L 450.91 418.13
  L 444.37 414.74
  L 438.29 409.21
  L 438.02 408.59
  L 438.35 407.97
  L 442.55 403.93
  L 443.98 403.76
  L 465.02 415.69
  L 473.34 419.65
  L 481.29 422.13
  L 487.10 423.90
  L 490.36 424.99
  Z"
/>
<path fill="none" stroke-width="1.00" stroke="#000000" d="
  M 439.07 436.08
  L 447.90 440.96
  L 457.40 444.21
  L 458.11 444.60
  L 458.46 446.03
  L 457.38 447.03
  L 454.68 447.12
  L 451.06 446.27
  L 441.60 441.78
  L 439.60 440.70
  L 437.75 438.85
  L 437.64 436.63
  L 438.13 436.01
  L 438.92 435.99
  L 439.07 436.08
  Z"
/>
<path fill="none" stroke-width="1.00" stroke="#000000" d="
  M 576.49 452.51
  L 575.76 453.72
  L 574.82 454.67
  L 574.43 454.82
  L 574.29 454.43
  L 574.53 452.77
  L 575.20 451.38
  L 575.65 451.08
  L 576.43 451.50
  L 576.49 452.51
  Z"
/>
<path fill="none" stroke-width="1.00" stroke="#000000" d="
  M 720.00 581.07
  L 720.00 586.24
  L 719.20 592.27
  L 718.99 592.92
  L 718.70 592.30
  L 714.64 580.53
  L 711.73 572.46
  L 708.24 559.98
  L 705.21 546.77
  L 700.59 518.49
  L 699.61 503.45
  L 700.20 487.14
  L 700.36 486.80
  L 700.74 486.79
  L 701.17 487.01
  L 701.87 488.72
  L 703.68 510.19
  L 706.81 531.10
  L 711.25 551.46
  L 717.01 571.25
  L 720.00 581.07
  Z"
/>
<path fill="none" stroke-width="1.00" stroke="#000000" d="
  M 93.43 720.00
  L 0.00 720.00
  L 0.00 660.61
  L 0.42 661.92
  L 1.05 662.42
  L 7.73 662.59
  L 12.53 661.80
  L 31.80 653.81
  L 39.85 650.91
  L 48.34 647.81
  L 57.99 643.69
  L 61.71 641.69
  L 66.34 638.23
  L 71.04 634.78
  L 89.63 623.38
  L 91.12 621.80
  L 91.94 621.36
  L 95.98 621.04
  L 96.75 620.64
  L 96.99 619.81
  L 96.99 619.78
  L 96.83 617.50
  L 97.77 612.23
  L 98.19 611.40
  L 99.48 610.23
  L 101.23 609.55
  L 107.02 609.17
  L 108.97 609.17
  L 114.33 608.42
  L 119.00 607.69
  L 123.14 606.81
  L 126.83 604.36
  L 130.58 601.67
  L 135.80 597.62
  L 137.79 596.18
  L 139.67 595.84
  L 141.27 596.38
  L 142.62 597.58
  L 144.27 601.25
  L 145.23 607.97
  L 145.44 610.71
  L 144.96 611.49
  L 141.41 613.11
  L 140.60 613.81
  L 140.31 614.84
  L 139.99 622.48
  L 138.83 628.48
  L 136.20 636.39
  L 135.55 638.18
  L 134.14 643.84
  L 133.59 646.49
  L 134.26 647.52
  L 134.30 647.53
  L 135.73 647.73
  L 136.32 647.62
  L 136.53 647.07
  L 136.75 644.81
  L 137.17 642.59
  L 137.22 642.52
  L 137.30 642.50
  L 137.55 642.50
  L 137.63 642.53
  L 137.65 642.63
  L 136.71 655.57
  L 135.52 666.93
  L 134.08 683.25
  L 134.06 683.59
  L 134.06 683.59
  L 133.50 685.33
  L 132.15 686.99
  L 132.10 687.03
  L 130.54 687.96
  L 128.51 688.36
  L 114.14 688.89
  L 99.99 688.73
  L 98.78 688.26
  L 98.12 687.13
  L 97.84 685.68
  L 95.26 675.99
  L 94.92 675.22
  L 94.55 674.39
  L 92.22 667.58
  L 92.07 665.77
  L 91.37 633.01
  L 90.29 628.50
  L 89.98 627.96
  L 89.17 627.97
  L 89.11 628.20
  L 88.81 659.80
  L 88.53 663.05
  L 88.15 668.80
  L 88.81 672.64
  L 91.55 680.36
  L 93.07 686.28
  L 92.75 687.23
  L 90.99 689.26
  L 89.93 691.46
  L 89.56 695.22
  L 90.62 698.89
  L 93.03 702.34
  L 96.41 704.86
  L 100.20 706.29
  L 105.09 707.38
  L 116.42 708.21
  L 125.67 707.10
  L 129.07 705.91
  L 131.68 704.25
  L 136.06 699.34
  L 138.38 695.33
  L 140.96 682.03
  L 142.25 668.68
  L 142.63 667.78
  L 143.50 667.33
  L 147.82 667.32
  L 151.04 668.02
  L 151.88 668.69
  L 152.72 670.67
  L 153.00 672.75
  L 152.98 704.74
  L 152.38 707.27
  L 151.62 708.30
  L 151.21 708.51
  L 150.81 708.29
  L 148.89 707.09
  L 147.08 707.44
  L 140.18 710.04
  L 134.40 712.15
  L 125.34 715.37
  L 119.65 716.41
  L 113.44 716.85
  L 100.07 716.62
  L 95.52 715.58
  L 91.46 713.87
  L 87.10 710.92
  L 83.44 707.20
  L 80.25 702.49
  L 77.80 697.22
  L 75.88 690.86
  L 74.79 684.26
  L 74.48 677.25
  L 74.97 670.55
  L 74.97 670.54
  L 75.41 669.79
  L 76.26 669.58
  L 80.94 669.66
  L 84.56 668.27
  L 86.06 666.91
  L 86.40 665.85
  L 85.90 664.85
  L 85.75 664.74
  L 81.78 663.54
  L 75.68 664.00
  L 73.49 664.29
  L 72.22 664.72
  L 70.90 666.64
  L 69.75 672.27
  L 69.45 678.76
  L 69.98 685.73
  L 71.30 692.81
  L 73.22 699.16
  L 75.79 704.96
  L 78.73 709.61
  L 82.20 713.28
  L 87.70 717.20
  L 93.43 720.00
  Z
  M 124.9075 669.5324
  L 124.2288 668.0082
  L 122.6711 667.4102
  L 108.8759 667.7715
  L 107.3516 668.4501
  L 106.7537 670.0078
  L 106.7725 670.7276
  L 107.4512 672.2518
  L 109.0089 672.8498
  L 122.8041 672.4885
  L 124.3284 671.8099
  L 124.9263 670.2522
  L 124.9075 669.5324
  Z"
/>
<path fill="none" stroke-width="1.00" stroke="#000000" d="
  M 187.3683 596.1293
  L 185.7020 596.6875
  L 183.9517 596.5307
  L 185.6180 595.9725
  L 187.3683 596.1293
  Z"
/>
<path fill="none" stroke-width="1.00" stroke="#000000" d="
  M 181.1114 597.9964
  L 177.7458 599.2195
  L 174.1686 599.3836
  L 177.5342 598.1605
  L 181.1114 597.9964
  Z"
/>
<path fill="none" stroke-width="1.00" stroke="#000000" d="
  M 720.00 694.11
  L 720.00 698.09
  L 719.62 699.15
  L 719.37 699.49
  L 718.94 699.52
  L 710.93 696.90
  L 706.65 694.89
  L 700.21 692.11
  L 694.45 689.57
  L 688.42 686.33
  L 682.44 683.81
  L 676.48 681.98
  L 670.57 680.87
  L 666.23 679.50
  L 666.16 679.46
  L 655.85 674.49
  L 640.94 669.57
  L 637.05 668.04
  L 632.95 664.69
  L 632.73 664.55
  L 632.19 665.12
  L 632.81 668.05
  L 632.67 670.56
  L 631.08 674.10
  L 627.39 678.25
  L 624.48 681.29
  L 619.13 687.86
  L 618.17 690.26
  L 618.51 692.26
  L 619.31 698.60
  L 618.66 703.08
  L 618.03 704.55
  L 615.64 708.71
  L 610.77 715.14
  L 610.34 715.38
  L 604.10 716.50
  L 603.63 716.52
  L 603.24 716.44
  L 599.24 715.54
  L 593.40 715.07
  L 583.93 713.91
  L 580.47 712.58
  L 577.88 710.81
  L 576.93 709.87
  L 574.27 706.24
  L 572.73 702.34
  L 572.73 702.34
  L 572.46 700.99
  L 571.72 680.94
  L 570.30 670.24
  L 570.10 669.83
  L 569.80 670.19
  L 569.11 671.23
  L 566.29 672.52
  L 561.41 672.36
  L 559.56 672.18
  L 558.66 672.47
  L 557.71 673.57
  L 557.12 677.03
  L 557.10 678.40
  L 557.15 694.51
  L 558.94 708.77
  L 560.04 712.44
  L 561.89 715.51
  L 561.89 715.51
  L 565.08 718.42
  L 565.29 718.64
  L 565.31 719.31
  L 564.76 719.69
  L 561.73 720.00
  L 560.38 720.00
  L 557.82 719.12
  L 556.16 717.20
  L 555.17 713.87
  L 554.70 710.66
  L 553.46 697.67
  L 553.79 678.43
  L 554.22 674.90
  L 555.23 671.75
  L 556.57 669.67
  L 558.46 668.45
  L 558.78 668.37
  L 564.04 667.86
  L 569.36 668.48
  L 569.66 668.45
  L 569.73 668.14
  L 568.03 644.73
  L 567.23 630.24
  L 567.05 629.39
  L 565.06 627.23
  L 564.04 626.20
  L 564.35 623.30
  L 564.45 622.99
  L 566.08 619.54
  L 568.43 617.12
  L 568.43 617.12
  L 572.19 615.59
  L 576.98 615.54
  L 578.63 616.02
  L 580.20 617.21
  L 581.49 618.98
  L 590.40 633.33
  L 594.45 637.04
  L 599.86 639.84
  L 607.17 642.38
  L 619.44 646.40
  L 624.04 648.31
  L 627.62 651.31
  L 629.96 655.07
  L 631.21 659.67
  L 631.67 660.70
  L 632.62 661.31
  L 636.44 662.70
  L 641.20 664.32
  L 642.06 664.50
  L 655.85 667.85
  L 665.14 671.55
  L 666.51 672.32
  L 670.39 674.09
  L 671.81 674.33
  L 678.22 675.26
  L 684.25 676.75
  L 689.90 678.78
  L 695.17 681.37
  L 703.25 685.48
  L 709.05 688.14
  L 718.95 692.38
  L 719.35 692.61
  L 719.60 693.02
  L 720.00 694.11
  Z
  M 609.88 695.79
  L 609.59 696.36
  L 607.97 697.32
  L 599.15 698.50
  L 590.76 697.71
  L 590.76 697.71
  L 583.42 695.23
  L 576.45 691.08
  L 576.08 690.95
  L 576.01 691.34
  L 577.27 697.43
  L 579.01 702.74
  L 580.90 706.09
  L 582.74 707.42
  L 594.00 709.18
  L 607.37 709.52
  L 607.83 709.41
  L 608.17 709.14
  L 610.97 705.19
  L 612.78 701.65
  L 613.92 695.95
  L 614.32 692.77
  L 616.26 688.70
  L 621.80 681.39
  L 627.50 672.99
  L 628.83 669.01
  L 628.88 663.31
  L 627.62 657.65
  L 625.32 653.39
  L 622.30 650.96
  L 622.30 650.96
  L 619.72 649.97
  L 616.79 649.62
  L 612.26 649.10
  L 599.47 645.06
  L 599.31 645.03
  L 598.70 645.77
  L 599.52 649.08
  L 598.84 649.88
  L 598.65 649.83
  L 592.79 646.46
  L 588.22 641.54
  L 582.05 632.23
  L 576.69 623.41
  L 574.98 621.83
  L 573.43 621.67
  L 571.81 622.19
  L 568.13 625.08
  L 567.84 626.01
  L 569.39 634.89
  L 571.42 648.31
  L 572.91 662.55
  L 576.34 681.49
  L 576.52 682.55
  L 577.70 685.72
  L 578.20 686.11
  L 583.65 688.94
  L 589.97 691.30
  L 597.17 692.45
  L 602.81 693.20
  L 609.48 694.98
  L 609.88 695.79
  Z"
/>
<path fill="none" stroke-width="1.00" stroke="#000000" d="
  M 609.88 695.79
  L 609.48 694.98
  L 602.81 693.20
  L 597.17 692.45
  L 589.97 691.30
  L 583.65 688.94
  L 578.20 686.11
  L 577.70 685.72
  L 576.52 682.55
  L 576.34 681.49
  L 572.91 662.55
  L 571.42 648.31
  L 569.39 634.89
  L 567.84 626.01
  L 568.13 625.08
  L 571.81 622.19
  L 573.43 621.67
  L 574.98 621.83
  L 576.69 623.41
  L 582.05 632.23
  L 588.22 641.54
  L 592.79 646.46
  L 598.65 649.83
  L 598.84 649.88
  L 599.52 649.08
  L 598.70 645.77
  L 599.31 645.03
  L 599.47 645.06
  L 612.26 649.10
  L 616.79 649.62
  L 619.72 649.97
  L 622.30 650.96
  L 622.30 650.96
  L 625.32 653.39
  L 627.62 657.65
  L 628.88 663.31
  L 628.83 669.01
  L 627.50 672.99
  L 621.80 681.39
  L 616.26 688.70
  L 614.32 692.77
  L 613.92 695.95
  L 612.78 701.65
  L 610.97 705.19
  L 608.17 709.14
  L 607.83 709.41
  L 607.37 709.52
  L 594.00 709.18
  L 582.74 707.42
  L 580.85 706.03
  L 578.94 702.56
  L 577.23 697.30
  L 576.01 691.34
  L 576.08 690.95
  L 576.45 691.08
  L 583.42 695.23
  L 590.76 697.71
  L 590.76 697.71
  L 599.15 698.50
  L 607.97 697.32
  L 609.59 696.36
  L 609.88 695.79
  Z
  M 587.76 676.70
  L 589.50 677.66
  L 596.68 681.05
  L 599.36 681.58
  L 602.03 681.41
  L 604.21 680.64
  L 606.39 679.19
  L 606.59 678.85
  L 606.31 678.58
  L 601.55 676.61
  L 597.18 675.18
  L 595.90 674.71
  L 591.82 671.75
  L 591.72 671.66
  L 591.66 671.61
  L 590.93 671.43
  L 590.29 671.84
  L 587.58 675.99
  L 587.47 676.39
  L 587.76 676.70
  Z"
/>
<path fill="none" stroke-width="1.00" stroke="#000000" d="
  M 720.00 698.09
  L 720.00 720.00
  L 624.24 720.00
  L 625.99 719.52
  L 626.62 718.89
  L 627.02 717.34
  L 628.37 706.89
  L 627.80 692.81
  L 627.51 688.91
  L 627.04 687.35
  L 626.47 686.66
  L 626.24 686.52
  L 625.57 686.59
  L 625.24 687.19
  L 624.82 698.32
  L 623.80 709.49
  L 622.60 714.70
  L 620.38 718.82
  L 620.26 719.18
  L 620.56 719.42
  L 622.15 720.00
  L 561.73 720.00
  L 564.76 719.69
  L 565.31 719.31
  L 565.29 718.64
  L 565.29 718.64
  L 565.08 718.42
  L 561.89 715.51
  L 561.89 715.51
  L 560.04 712.44
  L 558.94 708.77
  L 557.15 694.51
  L 557.10 678.40
  L 557.12 677.03
  L 557.71 673.57
  L 558.66 672.47
  L 559.56 672.18
  L 561.41 672.36
  L 566.29 672.52
  L 569.11 671.23
  L 569.80 670.19
  L 570.10 669.83
  L 570.30 670.24
  L 571.72 680.94
  L 572.46 700.99
  L 572.73 702.34
  L 572.73 702.34
  L 574.27 706.24
  L 576.93 709.87
  L 577.88 710.81
  L 580.47 712.58
  L 583.93 713.91
  L 593.40 715.07
  L 599.24 715.54
  L 603.24 716.44
  L 603.63 716.52
  L 604.10 716.50
  L 610.34 715.38
  L 610.77 715.14
  L 615.64 708.71
  L 618.03 704.55
  L 618.66 703.08
  L 619.31 698.60
  L 618.51 692.26
  L 618.17 690.26
  L 619.13 687.86
  L 624.48 681.29
  L 627.39 678.25
  L 631.08 674.10
  L 632.67 670.56
  L 632.81 668.05
  L 632.19 665.12
  L 632.73 664.55
  L 632.95 664.69
  L 637.05 668.04
  L 640.94 669.57
  L 655.85 674.49
  L 666.16 679.46
  L 666.23 679.50
  L 670.57 680.87
  L 676.48 681.98
  L 682.44 683.81
  L 688.42 686.33
  L 694.45 689.57
  L 700.21 692.11
  L 706.65 694.89
  L 710.93 696.90
  L 718.94 699.52
  L 719.37 699.49
  L 719.62 699.15
  L 720.00 698.09
  Z"
/>
<path fill="none" stroke-width="1.00" stroke="#000000" d="
  M 124.9263 670.2522
  L 124.3284 671.8099
  L 122.8041 672.4885
  L 109.0089 672.8498
  L 107.4512 672.2518
  L 106.7725 670.7276
  L 106.7537 670.0078
  L 107.3516 668.4501
  L 108.8759 667.7715
  L 122.6711 667.4102
  L 124.2288 668.0082
  L 124.9075 669.5324
  L 124.9263 670.2522
  Z"
/>
<path fill="none" stroke-width="1.00" stroke="#000000" d="
  M 606.39 679.19
  L 604.21 680.64
  L 602.03 681.41
  L 599.36 681.58
  L 596.68 681.05
  L 589.50 677.66
  L 587.76 676.70
  L 587.47 676.39
  L 587.58 675.99
  L 590.29 671.84
  L 590.93 671.43
  L 591.66 671.61
  L 591.66 671.61
  L 591.72 671.66
  L 591.82 671.75
  L 595.90 674.71
  L 597.18 675.18
  L 601.55 676.61
  L 606.31 678.58
  L 606.59 678.85
  L 606.39 679.19
  Z"
/>
<path fill="none" stroke-width="1.00" stroke="#000000" d="
  M 624.24 720.00
  L 622.15 720.00
  L 620.56 719.42
  L 620.26 719.18
  L 620.38 718.82
  L 622.60 714.70
  L 623.80 709.49
  L 624.82 698.32
  L 625.24 687.19
  L 625.57 686.59
  L 626.24 686.52
  L 626.47 686.66
  L 627.04 687.35
  L 627.51 688.91
  L 627.80 692.81
  L 628.37 706.89
  L 627.02 717.34
  L 626.62 718.89
  L 625.99 719.52
  L 624.24 720.00
  Z"
/>
<path fill="none" stroke-width="1.00" stroke="#000000" d="
  M 104.39 700.02
  L 98.49 698.42
  L 95.73 696.68
  L 93.28 694.32
  L 92.98 693.57
  L 93.62 692.40
  L 94.95 692.46
  L 97.14 693.71
  L 101.99 695.15
  L 109.23 695.67
  L 109.82 695.69
  L 120.55 695.76
  L 130.29 695.24
  L 130.63 695.31
  L 130.49 695.63
  L 127.03 698.39
  L 122.10 700.38
  L 116.54 701.30
  L 111.00 701.05
  L 104.39 700.02
  Z"
/>
</svg>
